<svg width="1366" height="720" viewBox="0 0 1366 720" fill="none" xmlns="http://www.w3.org/2000/svg">
<rect width="1366" height="720" fill="#E4E6EC"/>
<rect x="193" y="144" width="380" height="340" rx="8" fill="#F9F9FB"/>
<path d="M238.017 195H234.554L228.964 185.279H228.885C228.908 185.684 228.929 186.091 228.946 186.501C228.964 186.911 228.981 187.321 228.999 187.731C229.017 188.136 229.034 188.543 229.052 188.953V195H226.617V182.15H230.054L235.635 191.774H235.696C235.685 191.376 235.67 190.98 235.652 190.588C235.635 190.195 235.617 189.803 235.6 189.41C235.588 189.018 235.576 188.625 235.564 188.232V182.15H238.017V195ZM249.979 190.069C249.979 190.89 249.867 191.616 249.645 192.249C249.428 192.882 249.108 193.418 248.687 193.857C248.271 194.291 247.767 194.619 247.175 194.842C246.589 195.064 245.927 195.176 245.188 195.176C244.497 195.176 243.861 195.064 243.281 194.842C242.707 194.619 242.206 194.291 241.778 193.857C241.356 193.418 241.028 192.882 240.794 192.249C240.565 191.616 240.451 190.89 240.451 190.069C240.451 188.979 240.645 188.057 241.031 187.301C241.418 186.545 241.969 185.971 242.684 185.578C243.398 185.186 244.251 184.989 245.241 184.989C246.161 184.989 246.976 185.186 247.685 185.578C248.399 185.971 248.959 186.545 249.363 187.301C249.773 188.057 249.979 188.979 249.979 190.069ZM243.185 190.069C243.185 190.714 243.255 191.256 243.396 191.695C243.536 192.135 243.756 192.466 244.055 192.688C244.354 192.911 244.743 193.022 245.224 193.022C245.698 193.022 246.082 192.911 246.375 192.688C246.674 192.466 246.891 192.135 247.025 191.695C247.166 191.256 247.236 190.714 247.236 190.069C247.236 189.419 247.166 188.88 247.025 188.452C246.891 188.019 246.674 187.693 246.375 187.477C246.076 187.26 245.687 187.151 245.206 187.151C244.497 187.151 243.981 187.395 243.659 187.881C243.343 188.367 243.185 189.097 243.185 190.069ZM254.531 195L250.787 185.174H253.591L255.489 190.772C255.595 191.101 255.677 191.446 255.735 191.81C255.8 192.173 255.844 192.498 255.867 192.785H255.938C255.955 192.475 255.996 192.144 256.061 191.792C256.131 191.44 256.222 191.101 256.333 190.772L258.223 185.174H261.026L257.282 195H254.531ZM271.371 190.069C271.371 190.89 271.26 191.616 271.037 192.249C270.82 192.882 270.501 193.418 270.079 193.857C269.663 194.291 269.159 194.619 268.567 194.842C267.981 195.064 267.319 195.176 266.581 195.176C265.89 195.176 265.254 195.064 264.674 194.842C264.1 194.619 263.599 194.291 263.171 193.857C262.749 193.418 262.421 192.882 262.187 192.249C261.958 191.616 261.844 190.89 261.844 190.069C261.844 188.979 262.037 188.057 262.424 187.301C262.811 186.545 263.361 185.971 264.076 185.578C264.791 185.186 265.644 184.989 266.634 184.989C267.554 184.989 268.368 185.186 269.077 185.578C269.792 185.971 270.352 186.545 270.756 187.301C271.166 188.057 271.371 188.979 271.371 190.069ZM264.577 190.069C264.577 190.714 264.647 191.256 264.788 191.695C264.929 192.135 265.148 192.466 265.447 192.688C265.746 192.911 266.136 193.022 266.616 193.022C267.091 193.022 267.475 192.911 267.768 192.688C268.066 192.466 268.283 192.135 268.418 191.695C268.559 191.256 268.629 190.714 268.629 190.069C268.629 189.419 268.559 188.88 268.418 188.452C268.283 188.019 268.066 187.693 267.768 187.477C267.469 187.26 267.079 187.151 266.599 187.151C265.89 187.151 265.374 187.395 265.052 187.881C264.735 188.367 264.577 189.097 264.577 190.069ZM280.942 195H278.262V181.324H280.942V195ZM286.444 185.174V195H283.764V185.174H286.444ZM285.108 181.324C285.507 181.324 285.85 181.418 286.137 181.605C286.424 181.787 286.567 182.13 286.567 182.634C286.567 183.132 286.424 183.478 286.137 183.671C285.85 183.858 285.507 183.952 285.108 183.952C284.704 183.952 284.358 183.858 284.071 183.671C283.79 183.478 283.649 183.132 283.649 182.634C283.649 182.13 283.79 181.787 284.071 181.605C284.358 181.418 284.704 181.324 285.108 181.324ZM294.847 184.989C295.896 184.989 296.739 185.276 297.378 185.851C298.017 186.419 298.336 187.333 298.336 188.593V195H295.655V189.261C295.655 188.558 295.526 188.027 295.269 187.67C295.017 187.312 294.618 187.134 294.073 187.134C293.253 187.134 292.693 187.412 292.395 187.969C292.096 188.525 291.946 189.328 291.946 190.377V195H289.266V185.174H291.313L291.674 186.431H291.823C292.034 186.091 292.295 185.815 292.605 185.604C292.922 185.394 293.271 185.238 293.651 185.139C294.038 185.039 294.437 184.989 294.847 184.989ZM303.776 181.324V187.441C303.776 187.811 303.762 188.18 303.732 188.549C303.703 188.918 303.671 189.287 303.636 189.656H303.671C303.853 189.398 304.037 189.144 304.225 188.892C304.418 188.64 304.623 188.396 304.84 188.162L307.591 185.174H310.614L306.712 189.437L310.852 195H307.758L304.928 191.019L303.776 191.941V195H301.096V181.324H303.776Z" fill="#1F2025"/>
<path d="M225.977 321V313.861H226.807V320.258H229.976V321H225.977ZM231.201 321V313.861H232.031V321H231.201ZM239.575 321H238.618L234.727 315.004H234.688C234.697 315.163 234.709 315.346 234.722 315.551C234.735 315.753 234.744 315.969 234.751 316.2C234.761 316.428 234.766 316.661 234.766 316.898V321H233.994V313.861H234.946L238.823 319.838H238.857C238.851 319.724 238.843 319.563 238.833 319.354C238.823 319.143 238.813 318.917 238.804 318.676C238.797 318.432 238.794 318.205 238.794 317.997V313.861H239.575V321ZM246.67 321H245.688L243.115 317.528L242.354 318.212V321H241.523V313.861H242.354V317.421C242.539 317.209 242.729 316.999 242.925 316.791C243.12 316.579 243.314 316.366 243.506 316.151L245.591 313.861H246.562L243.721 316.957L246.67 321ZM254.219 321H250.244V313.861H254.219V314.594H251.074V316.903H254.038V317.626H251.074V320.268H254.219V321ZM261.382 321H260.425L256.533 315.004H256.494C256.504 315.163 256.515 315.346 256.528 315.551C256.541 315.753 256.551 315.969 256.558 316.2C256.567 316.428 256.572 316.661 256.572 316.898V321H255.801V313.861H256.753L260.63 319.838H260.664C260.658 319.724 260.649 319.563 260.64 319.354C260.63 319.143 260.62 318.917 260.61 318.676C260.604 318.432 260.601 318.205 260.601 317.997V313.861H261.382V321ZM266.382 314.491C265.988 314.491 265.633 314.56 265.317 314.696C265.005 314.83 264.738 315.025 264.517 315.282C264.299 315.536 264.131 315.844 264.014 316.205C263.896 316.566 263.838 316.973 263.838 317.426C263.838 318.025 263.931 318.546 264.116 318.988C264.305 319.428 264.585 319.768 264.956 320.009C265.33 320.25 265.798 320.37 266.357 320.37C266.676 320.37 266.976 320.344 267.256 320.292C267.539 320.237 267.814 320.168 268.081 320.087V320.81C267.821 320.907 267.547 320.979 267.261 321.024C266.974 321.073 266.634 321.098 266.24 321.098C265.514 321.098 264.907 320.948 264.419 320.648C263.934 320.346 263.569 319.919 263.325 319.369C263.084 318.819 262.964 318.17 262.964 317.421C262.964 316.881 263.039 316.387 263.188 315.941C263.341 315.492 263.563 315.105 263.853 314.779C264.146 314.454 264.504 314.203 264.927 314.027C265.353 313.848 265.841 313.759 266.392 313.759C266.753 313.759 267.101 313.795 267.437 313.866C267.772 313.938 268.075 314.04 268.345 314.174L268.013 314.877C267.785 314.773 267.534 314.683 267.261 314.608C266.991 314.53 266.698 314.491 266.382 314.491ZM275.029 313.861V318.48C275.029 318.985 274.927 319.434 274.722 319.828C274.52 320.222 274.214 320.533 273.804 320.761C273.394 320.985 272.879 321.098 272.261 321.098C271.379 321.098 270.706 320.858 270.244 320.38C269.785 319.901 269.556 319.262 269.556 318.461V313.861H270.391V318.485C270.391 319.091 270.55 319.558 270.869 319.887C271.191 320.215 271.672 320.38 272.31 320.38C272.746 320.38 273.102 320.302 273.379 320.146C273.659 319.986 273.866 319.765 273.999 319.481C274.136 319.195 274.204 318.865 274.204 318.49V313.861H275.029ZM278.853 313.861C279.438 313.861 279.922 313.935 280.303 314.081C280.687 314.224 280.973 314.444 281.162 314.74C281.351 315.036 281.445 315.414 281.445 315.873C281.445 316.251 281.377 316.566 281.24 316.82C281.104 317.071 280.924 317.274 280.703 317.431C280.482 317.587 280.246 317.707 279.995 317.792L281.953 321H280.986L279.238 318.021H277.754V321H276.924V313.861H278.853ZM278.804 314.579H277.754V317.318H278.887C279.469 317.318 279.897 317.2 280.171 316.962C280.448 316.724 280.586 316.374 280.586 315.912C280.586 315.427 280.439 315.084 280.146 314.882C279.857 314.68 279.409 314.579 278.804 314.579ZM285.288 321H284.453V314.594H282.207V313.861H287.524V314.594H285.288V321ZM293.081 321L292.202 318.734H289.341L288.467 321H287.627L290.42 313.832H291.167L293.94 321H293.081ZM291.953 317.997L291.118 315.746C291.099 315.688 291.066 315.591 291.021 315.458C290.978 315.325 290.934 315.186 290.889 315.043C290.843 314.9 290.806 314.784 290.776 314.696C290.744 314.83 290.708 314.963 290.669 315.097C290.633 315.227 290.597 315.349 290.562 315.463C290.526 315.574 290.495 315.668 290.469 315.746L289.619 317.997H291.953ZM300.601 317.362C300.601 318.166 300.454 318.839 300.161 319.379C299.868 319.916 299.443 320.321 298.887 320.595C298.333 320.865 297.661 321 296.87 321H294.932V313.861H297.085C297.811 313.861 298.436 313.995 298.96 314.262C299.484 314.525 299.888 314.918 300.171 315.438C300.457 315.956 300.601 316.597 300.601 317.362ZM299.727 317.392C299.727 316.75 299.619 316.221 299.404 315.805C299.193 315.388 298.88 315.079 298.467 314.877C298.057 314.672 297.554 314.569 296.958 314.569H295.762V320.287H296.772C297.756 320.287 298.493 320.045 298.984 319.56C299.479 319.075 299.727 318.352 299.727 317.392ZM308.379 317.421C308.379 317.971 308.309 318.472 308.169 318.925C308.029 319.374 307.821 319.761 307.544 320.087C307.271 320.409 306.93 320.658 306.523 320.834C306.117 321.01 305.645 321.098 305.107 321.098C304.554 321.098 304.071 321.01 303.657 320.834C303.247 320.658 302.905 320.408 302.632 320.082C302.362 319.757 302.158 319.368 302.021 318.915C301.888 318.463 301.821 317.961 301.821 317.411C301.821 316.682 301.942 316.042 302.183 315.492C302.424 314.942 302.788 314.514 303.276 314.208C303.768 313.902 304.383 313.749 305.122 313.749C305.828 313.749 306.423 313.9 306.904 314.203C307.389 314.506 307.756 314.932 308.003 315.482C308.254 316.029 308.379 316.675 308.379 317.421ZM302.695 317.421C302.695 318.026 302.782 318.55 302.954 318.993C303.127 319.436 303.39 319.778 303.745 320.019C304.103 320.259 304.557 320.38 305.107 320.38C305.661 320.38 306.113 320.259 306.465 320.019C306.82 319.778 307.082 319.436 307.251 318.993C307.42 318.55 307.505 318.026 307.505 317.421C307.505 316.5 307.311 315.78 306.924 315.263C306.54 314.742 305.939 314.481 305.122 314.481C304.569 314.481 304.113 314.6 303.755 314.838C303.397 315.076 303.13 315.414 302.954 315.854C302.782 316.29 302.695 316.812 302.695 317.421Z" fill="#4D505C"/>
<rect x="225.5" y="332.5" width="315" height="47" rx="7.5" stroke="#CDCFD5"/>
<path d="M243.331 350.363V353.022C243.331 353.328 243.322 353.624 243.304 353.911C243.29 354.198 243.279 354.422 243.27 354.581H243.331C243.536 354.244 243.832 353.959 244.22 353.727C244.607 353.494 245.102 353.378 245.703 353.378C246.642 353.378 247.389 353.704 247.945 354.355C248.506 355.003 248.786 355.966 248.786 357.247C248.786 358.09 248.659 358.801 248.403 359.38C248.148 359.959 247.788 360.396 247.323 360.692C246.858 360.989 246.309 361.137 245.676 361.137C245.083 361.137 244.596 361.027 244.213 360.809C243.835 360.585 243.543 360.314 243.338 359.995H243.249L243.017 361H242.196V350.363H243.331ZM245.519 354.328C244.976 354.328 244.546 354.435 244.227 354.649C243.908 354.859 243.677 355.178 243.536 355.606C243.399 356.03 243.331 356.568 243.331 357.22V357.281C243.331 358.225 243.488 358.947 243.803 359.448C244.117 359.945 244.689 360.193 245.519 360.193C246.216 360.193 246.738 359.938 247.084 359.428C247.435 358.917 247.61 358.188 247.61 357.24C247.61 356.274 247.437 355.547 247.091 355.06C246.749 354.572 246.225 354.328 245.519 354.328ZM254.173 353.371C254.323 353.371 254.48 353.38 254.645 353.398C254.809 353.412 254.954 353.433 255.082 353.46L254.938 354.513C254.815 354.481 254.679 354.456 254.528 354.438C254.378 354.419 254.237 354.41 254.104 354.41C253.804 354.41 253.519 354.472 253.25 354.595C252.986 354.713 252.753 354.886 252.553 355.114C252.352 355.338 252.195 355.609 252.081 355.928C251.967 356.242 251.91 356.593 251.91 356.98V361H250.769V353.508H251.712L251.835 354.889H251.883C252.038 354.611 252.225 354.358 252.443 354.13C252.662 353.897 252.915 353.713 253.202 353.576C253.494 353.439 253.817 353.371 254.173 353.371ZM259.382 353.371C260.02 353.371 260.567 353.512 261.022 353.795C261.478 354.077 261.827 354.474 262.068 354.984C262.31 355.49 262.431 356.083 262.431 356.762V357.466H257.256C257.27 358.345 257.488 359.015 257.912 359.476C258.336 359.936 258.933 360.166 259.703 360.166C260.177 360.166 260.596 360.123 260.961 360.036C261.326 359.95 261.704 359.822 262.096 359.653V360.651C261.717 360.82 261.341 360.943 260.968 361.021C260.599 361.098 260.161 361.137 259.655 361.137C258.935 361.137 258.306 360.991 257.769 360.699C257.235 360.403 256.821 359.97 256.524 359.4C256.228 358.831 256.08 358.133 256.08 357.309C256.08 356.502 256.215 355.805 256.483 355.217C256.757 354.624 257.14 354.169 257.632 353.85C258.129 353.531 258.712 353.371 259.382 353.371ZM259.368 354.301C258.762 354.301 258.279 354.499 257.919 354.896C257.559 355.292 257.345 355.846 257.276 356.557H261.241C261.237 356.11 261.166 355.718 261.029 355.381C260.897 355.039 260.694 354.775 260.421 354.588C260.147 354.396 259.797 354.301 259.368 354.301ZM266.006 361L263.162 353.508H264.379L266.026 358.04C266.14 358.35 266.257 358.692 266.375 359.065C266.493 359.439 266.576 359.74 266.621 359.968H266.669C266.724 359.74 266.815 359.439 266.942 359.065C267.07 358.687 267.186 358.345 267.291 358.04L268.938 353.508H270.155L267.305 361H266.006ZM271.188 360.289C271.188 359.97 271.265 359.744 271.42 359.612C271.575 359.476 271.764 359.407 271.987 359.407C272.22 359.407 272.416 359.476 272.575 359.612C272.735 359.744 272.814 359.97 272.814 360.289C272.814 360.604 272.735 360.834 272.575 360.979C272.416 361.121 272.22 361.191 271.987 361.191C271.764 361.191 271.575 361.121 271.42 360.979C271.265 360.834 271.188 360.604 271.188 360.289ZM276.178 361H275.036V350.363H276.178V361ZM277.395 353.508H278.611L280.266 357.855C280.361 358.111 280.45 358.357 280.532 358.594C280.614 358.826 280.687 359.049 280.751 359.264C280.815 359.478 280.865 359.685 280.901 359.886H280.949C281.013 359.658 281.104 359.359 281.223 358.99C281.341 358.617 281.469 358.236 281.605 357.849L283.171 353.508H284.395L281.134 362.101C280.961 362.561 280.758 362.962 280.525 363.304C280.298 363.646 280.02 363.908 279.691 364.09C279.363 364.277 278.967 364.37 278.502 364.37C278.288 364.37 278.099 364.356 277.935 364.329C277.771 364.306 277.629 364.279 277.511 364.247V363.338C277.611 363.361 277.732 363.381 277.873 363.399C278.019 363.418 278.169 363.427 278.324 363.427C278.607 363.427 278.851 363.372 279.056 363.263C279.265 363.158 279.445 363.003 279.596 362.798C279.746 362.593 279.876 362.349 279.985 362.066L280.396 361.014L277.395 353.508ZM289.378 351.006L285.659 361H284.538L288.264 351.006H289.378Z" fill="#74798B"/>
<path d="M225.977 235V227.861H226.807V234.258H229.976V235H225.977ZM231.201 235V227.861H232.031V235H231.201ZM239.575 235H238.618L234.727 229.004H234.688C234.697 229.163 234.709 229.346 234.722 229.551C234.735 229.753 234.744 229.969 234.751 230.2C234.761 230.428 234.766 230.661 234.766 230.898V235H233.994V227.861H234.946L238.823 233.838H238.857C238.851 233.724 238.843 233.563 238.833 233.354C238.823 233.143 238.813 232.917 238.804 232.676C238.797 232.432 238.794 232.205 238.794 231.997V227.861H239.575V235ZM246.67 235H245.688L243.115 231.528L242.354 232.212V235H241.523V227.861H242.354V231.421C242.539 231.209 242.729 230.999 242.925 230.791C243.12 230.579 243.314 230.366 243.506 230.151L245.591 227.861H246.562L243.721 230.957L246.67 235ZM256.436 231.421C256.436 231.971 256.366 232.472 256.226 232.925C256.086 233.374 255.877 233.761 255.601 234.087C255.327 234.409 254.987 234.658 254.58 234.834C254.173 235.01 253.701 235.098 253.164 235.098C252.611 235.098 252.127 235.01 251.714 234.834C251.304 234.658 250.962 234.408 250.688 234.082C250.418 233.757 250.215 233.368 250.078 232.915C249.945 232.463 249.878 231.961 249.878 231.411C249.878 230.682 249.998 230.042 250.239 229.492C250.48 228.942 250.845 228.514 251.333 228.208C251.825 227.902 252.44 227.749 253.179 227.749C253.885 227.749 254.479 227.9 254.961 228.203C255.446 228.506 255.812 228.932 256.06 229.482C256.31 230.029 256.436 230.675 256.436 231.421ZM250.752 231.421C250.752 232.026 250.838 232.55 251.011 232.993C251.183 233.436 251.447 233.778 251.802 234.019C252.16 234.259 252.614 234.38 253.164 234.38C253.717 234.38 254.17 234.259 254.521 234.019C254.876 233.778 255.138 233.436 255.308 232.993C255.477 232.55 255.562 232.026 255.562 231.421C255.562 230.5 255.368 229.78 254.98 229.263C254.596 228.742 253.996 228.481 253.179 228.481C252.625 228.481 252.17 228.6 251.812 228.838C251.453 229.076 251.187 229.414 251.011 229.854C250.838 230.29 250.752 230.812 250.752 231.421ZM259.956 227.861C260.542 227.861 261.025 227.935 261.406 228.081C261.79 228.224 262.077 228.444 262.266 228.74C262.454 229.036 262.549 229.414 262.549 229.873C262.549 230.251 262.48 230.566 262.344 230.82C262.207 231.071 262.028 231.274 261.807 231.431C261.585 231.587 261.349 231.707 261.099 231.792L263.057 235H262.09L260.342 232.021H258.857V235H258.027V227.861H259.956ZM259.907 228.579H258.857V231.318H259.99C260.573 231.318 261.001 231.2 261.274 230.962C261.551 230.724 261.689 230.374 261.689 229.912C261.689 229.427 261.543 229.084 261.25 228.882C260.96 228.68 260.513 228.579 259.907 228.579ZM264.199 235V227.861H265.029V235H264.199ZM270.044 231.26H272.539V234.722C272.165 234.849 271.779 234.943 271.382 235.005C270.988 235.067 270.547 235.098 270.059 235.098C269.316 235.098 268.69 234.95 268.179 234.653C267.671 234.357 267.285 233.936 267.021 233.389C266.758 232.839 266.626 232.186 266.626 231.431C266.626 230.692 266.771 230.047 267.061 229.497C267.354 228.947 267.775 228.521 268.325 228.218C268.879 227.912 269.543 227.759 270.317 227.759C270.715 227.759 271.09 227.796 271.445 227.871C271.803 227.943 272.135 228.045 272.441 228.179L272.124 228.901C271.86 228.787 271.569 228.69 271.25 228.608C270.934 228.527 270.607 228.486 270.269 228.486C269.686 228.486 269.186 228.607 268.77 228.848C268.356 229.089 268.039 229.429 267.817 229.868C267.599 230.308 267.49 230.828 267.49 231.431C267.49 232.026 267.586 232.546 267.778 232.988C267.97 233.428 268.27 233.77 268.677 234.014C269.084 234.258 269.608 234.38 270.249 234.38C270.571 234.38 270.848 234.362 271.079 234.326C271.31 234.287 271.52 234.242 271.709 234.189V232.002H270.044V231.26ZM274.268 235V227.861H275.098V235H274.268ZM282.642 235H281.685L277.793 229.004H277.754C277.764 229.163 277.775 229.346 277.788 229.551C277.801 229.753 277.811 229.969 277.817 230.2C277.827 230.428 277.832 230.661 277.832 230.898V235H277.061V227.861H278.013L281.89 233.838H281.924C281.917 233.724 281.909 233.563 281.899 233.354C281.89 233.143 281.88 232.917 281.87 232.676C281.864 232.432 281.86 232.205 281.86 231.997V227.861H282.642V235ZM289.067 235L288.188 232.734H285.327L284.453 235H283.613L286.406 227.832H287.153L289.927 235H289.067ZM287.939 231.997L287.104 229.746C287.085 229.688 287.052 229.591 287.007 229.458C286.965 229.325 286.921 229.186 286.875 229.043C286.829 228.9 286.792 228.784 286.763 228.696C286.73 228.83 286.694 228.963 286.655 229.097C286.619 229.227 286.584 229.349 286.548 229.463C286.512 229.574 286.481 229.668 286.455 229.746L285.605 231.997H287.939ZM290.918 235V227.861H291.748V234.258H294.917V235H290.918Z" fill="#4D505C"/>
<rect x="225.5" y="246.5" width="315" height="47" rx="7.5" stroke="#CDCFD5"/>
<path d="M248.294 274.986L246.961 270.625C246.902 270.438 246.845 270.256 246.79 270.078C246.74 269.896 246.692 269.723 246.646 269.559C246.605 269.39 246.567 269.235 246.53 269.094C246.498 268.948 246.471 268.823 246.448 268.718H246.4C246.382 268.823 246.357 268.948 246.325 269.094C246.293 269.235 246.255 269.39 246.209 269.559C246.168 269.727 246.122 269.905 246.072 270.092C246.022 270.274 245.965 270.459 245.901 270.646L244.507 274.986H243.229L241.164 267.494H242.34L243.42 271.63C243.493 271.903 243.561 272.174 243.625 272.443C243.693 272.708 243.75 272.958 243.796 273.195C243.846 273.428 243.882 273.631 243.905 273.804H243.96C243.987 273.69 244.017 273.553 244.049 273.394C244.085 273.234 244.124 273.065 244.165 272.888C244.211 272.705 244.258 272.525 244.309 272.348C244.359 272.165 244.409 271.994 244.459 271.835L245.84 267.494H247.063L248.396 271.828C248.465 272.047 248.531 272.275 248.595 272.512C248.663 272.749 248.725 272.979 248.779 273.202C248.834 273.421 248.873 273.617 248.896 273.79H248.95C248.968 273.635 249.003 273.444 249.053 273.216C249.103 272.988 249.16 272.737 249.224 272.464C249.292 272.19 249.363 271.912 249.436 271.63L250.529 267.494H251.685L249.613 274.986H248.294ZM259.149 274.986L257.816 270.625C257.757 270.438 257.7 270.256 257.646 270.078C257.595 269.896 257.548 269.723 257.502 269.559C257.461 269.39 257.422 269.235 257.386 269.094C257.354 268.948 257.326 268.823 257.304 268.718H257.256C257.238 268.823 257.213 268.948 257.181 269.094C257.149 269.235 257.11 269.39 257.064 269.559C257.023 269.727 256.978 269.905 256.928 270.092C256.878 270.274 256.821 270.459 256.757 270.646L255.362 274.986H254.084L252.02 267.494H253.195L254.275 271.63C254.348 271.903 254.417 272.174 254.48 272.443C254.549 272.708 254.606 272.958 254.651 273.195C254.701 273.428 254.738 273.631 254.761 273.804H254.815C254.843 273.69 254.872 273.553 254.904 273.394C254.941 273.234 254.979 273.065 255.021 272.888C255.066 272.705 255.114 272.525 255.164 272.348C255.214 272.165 255.264 271.994 255.314 271.835L256.695 267.494H257.919L259.252 271.828C259.32 272.047 259.386 272.275 259.45 272.512C259.519 272.749 259.58 272.979 259.635 273.202C259.689 273.421 259.728 273.617 259.751 273.79H259.806C259.824 273.635 259.858 273.444 259.908 273.216C259.958 272.988 260.015 272.737 260.079 272.464C260.147 272.19 260.218 271.912 260.291 271.63L261.385 267.494H262.54L260.469 274.986H259.149ZM270.005 274.986L268.672 270.625C268.613 270.438 268.556 270.256 268.501 270.078C268.451 269.896 268.403 269.723 268.357 269.559C268.316 269.39 268.278 269.235 268.241 269.094C268.209 268.948 268.182 268.823 268.159 268.718H268.111C268.093 268.823 268.068 268.948 268.036 269.094C268.004 269.235 267.965 269.39 267.92 269.559C267.879 269.727 267.833 269.905 267.783 270.092C267.733 270.274 267.676 270.459 267.612 270.646L266.218 274.986H264.939L262.875 267.494H264.051L265.131 271.63C265.204 271.903 265.272 272.174 265.336 272.443C265.404 272.708 265.461 272.958 265.507 273.195C265.557 273.428 265.593 273.631 265.616 273.804H265.671C265.698 273.69 265.728 273.553 265.76 273.394C265.796 273.234 265.835 273.065 265.876 272.888C265.922 272.705 265.969 272.525 266.02 272.348C266.07 272.165 266.12 271.994 266.17 271.835L267.551 267.494H268.774L270.107 271.828C270.176 272.047 270.242 272.275 270.306 272.512C270.374 272.749 270.436 272.979 270.49 273.202C270.545 273.421 270.584 273.617 270.606 273.79H270.661C270.679 273.635 270.714 273.444 270.764 273.216C270.814 272.988 270.871 272.737 270.935 272.464C271.003 272.19 271.074 271.912 271.146 271.63L272.24 267.494H273.396L271.324 274.986H270.005ZM274.592 274.289C274.592 273.97 274.669 273.744 274.824 273.612C274.979 273.476 275.168 273.407 275.392 273.407C275.624 273.407 275.82 273.476 275.979 273.612C276.139 273.744 276.219 273.97 276.219 274.289C276.219 274.604 276.139 274.834 275.979 274.979C275.82 275.121 275.624 275.191 275.392 275.191C275.168 275.191 274.979 275.121 274.824 274.979C274.669 274.834 274.592 274.604 274.592 274.289ZM281.325 267.371C281.963 267.371 282.51 267.512 282.966 267.795C283.422 268.077 283.77 268.474 284.012 268.984C284.253 269.49 284.374 270.083 284.374 270.762V271.466H279.199C279.213 272.345 279.432 273.015 279.855 273.476C280.279 273.936 280.876 274.166 281.646 274.166C282.12 274.166 282.54 274.123 282.904 274.036C283.269 273.95 283.647 273.822 284.039 273.653V274.651C283.661 274.82 283.285 274.943 282.911 275.021C282.542 275.098 282.104 275.137 281.599 275.137C280.879 275.137 280.25 274.991 279.712 274.699C279.179 274.403 278.764 273.97 278.468 273.4C278.172 272.831 278.023 272.133 278.023 271.309C278.023 270.502 278.158 269.805 278.427 269.217C278.7 268.624 279.083 268.169 279.575 267.85C280.072 267.531 280.655 267.371 281.325 267.371ZM281.312 268.301C280.705 268.301 280.222 268.499 279.862 268.896C279.502 269.292 279.288 269.846 279.22 270.557H283.185C283.18 270.11 283.109 269.718 282.973 269.381C282.84 269.039 282.638 268.775 282.364 268.588C282.091 268.396 281.74 268.301 281.312 268.301ZM288.086 271.165L285.495 267.508H286.794L288.77 270.393L290.738 267.508H292.023L289.433 271.165L292.167 275H290.868L288.77 271.944L286.657 275H285.372L288.086 271.165ZM296.515 267.371C297.153 267.371 297.7 267.512 298.155 267.795C298.611 268.077 298.96 268.474 299.201 268.984C299.443 269.49 299.563 270.083 299.563 270.762V271.466H294.389C294.402 272.345 294.621 273.015 295.045 273.476C295.469 273.936 296.066 274.166 296.836 274.166C297.31 274.166 297.729 274.123 298.094 274.036C298.458 273.95 298.837 273.822 299.229 273.653V274.651C298.85 274.82 298.474 274.943 298.101 275.021C297.731 275.098 297.294 275.137 296.788 275.137C296.068 275.137 295.439 274.991 294.901 274.699C294.368 274.403 293.953 273.97 293.657 273.4C293.361 272.831 293.213 272.133 293.213 271.309C293.213 270.502 293.347 269.805 293.616 269.217C293.89 268.624 294.272 268.169 294.765 267.85C295.261 267.531 295.845 267.371 296.515 267.371ZM296.501 268.301C295.895 268.301 295.412 268.499 295.052 268.896C294.692 269.292 294.478 269.846 294.409 270.557H298.374C298.369 270.11 298.299 269.718 298.162 269.381C298.03 269.039 297.827 268.775 297.554 268.588C297.28 268.396 296.929 268.301 296.501 268.301ZM309.626 267.371C310.451 267.371 311.073 267.588 311.492 268.021C311.911 268.449 312.121 269.139 312.121 270.092V275H311V270.146C311 269.54 310.868 269.087 310.604 268.786C310.344 268.481 309.956 268.328 309.441 268.328C308.717 268.328 308.19 268.538 307.862 268.957C307.534 269.376 307.37 269.994 307.37 270.81V275H306.242V270.146C306.242 269.741 306.183 269.404 306.064 269.135C305.951 268.866 305.777 268.665 305.545 268.533C305.317 268.396 305.028 268.328 304.677 268.328C304.18 268.328 303.781 268.431 303.48 268.636C303.18 268.841 302.961 269.146 302.824 269.552C302.692 269.953 302.626 270.447 302.626 271.035V275H301.491V267.508H302.407L302.578 268.567H302.64C302.79 268.308 302.979 268.089 303.207 267.911C303.435 267.733 303.69 267.599 303.973 267.508C304.255 267.417 304.556 267.371 304.875 267.371C305.445 267.371 305.921 267.478 306.304 267.692C306.691 267.902 306.971 268.223 307.145 268.656H307.206C307.452 268.223 307.789 267.902 308.218 267.692C308.646 267.478 309.116 267.371 309.626 267.371ZM317.973 267.371C318.907 267.371 319.652 267.692 320.208 268.335C320.764 268.978 321.042 269.944 321.042 271.233C321.042 272.086 320.914 272.801 320.659 273.38C320.404 273.959 320.044 274.396 319.579 274.692C319.119 274.989 318.574 275.137 317.945 275.137C317.549 275.137 317.2 275.084 316.899 274.979C316.599 274.875 316.341 274.733 316.127 274.556C315.913 274.378 315.735 274.184 315.594 273.975H315.512C315.525 274.152 315.541 274.367 315.56 274.617C315.582 274.868 315.594 275.087 315.594 275.273V278.35H314.452V267.508H315.389L315.539 268.615H315.594C315.74 268.387 315.917 268.18 316.127 267.993C316.337 267.802 316.592 267.651 316.893 267.542C317.198 267.428 317.558 267.371 317.973 267.371ZM317.774 268.328C317.255 268.328 316.836 268.428 316.517 268.629C316.202 268.829 315.972 269.13 315.826 269.531C315.68 269.928 315.603 270.427 315.594 271.028V271.247C315.594 271.881 315.662 272.416 315.799 272.854C315.94 273.291 316.17 273.624 316.489 273.852C316.813 274.079 317.246 274.193 317.788 274.193C318.253 274.193 318.64 274.068 318.95 273.817C319.26 273.567 319.49 273.218 319.641 272.771C319.796 272.32 319.873 271.803 319.873 271.22C319.873 270.336 319.7 269.634 319.354 269.114C319.012 268.59 318.485 268.328 317.774 268.328ZM324.166 275H323.024V264.363H324.166V275ZM333.025 271.24C333.025 271.855 332.946 272.405 332.786 272.888C332.627 273.371 332.396 273.779 332.096 274.111C331.795 274.444 331.43 274.699 331.002 274.877C330.578 275.05 330.097 275.137 329.56 275.137C329.058 275.137 328.598 275.05 328.179 274.877C327.764 274.699 327.404 274.444 327.099 274.111C326.798 273.779 326.563 273.371 326.395 272.888C326.23 272.405 326.148 271.855 326.148 271.24C326.148 270.42 326.287 269.723 326.565 269.148C326.843 268.57 327.24 268.13 327.755 267.829C328.274 267.524 328.892 267.371 329.607 267.371C330.291 267.371 330.888 267.524 331.398 267.829C331.913 268.134 332.312 268.576 332.595 269.155C332.882 269.729 333.025 270.424 333.025 271.24ZM327.324 271.24C327.324 271.842 327.404 272.364 327.563 272.806C327.723 273.248 327.969 273.59 328.302 273.831C328.634 274.073 329.063 274.193 329.587 274.193C330.106 274.193 330.533 274.073 330.865 273.831C331.202 273.59 331.451 273.248 331.61 272.806C331.77 272.364 331.85 271.842 331.85 271.24C331.85 270.643 331.77 270.128 331.61 269.695C331.451 269.258 331.205 268.921 330.872 268.684C330.539 268.447 330.109 268.328 329.58 268.328C328.801 268.328 328.229 268.586 327.864 269.101C327.504 269.616 327.324 270.329 327.324 271.24ZM334.816 274.289C334.816 273.97 334.894 273.744 335.049 273.612C335.204 273.476 335.393 273.407 335.616 273.407C335.849 273.407 336.045 273.476 336.204 273.612C336.364 273.744 336.443 273.97 336.443 274.289C336.443 274.604 336.364 274.834 336.204 274.979C336.045 275.121 335.849 275.191 335.616 275.191C335.393 275.191 335.204 275.121 335.049 274.979C334.894 274.834 334.816 274.604 334.816 274.289ZM341.666 275.137C340.992 275.137 340.397 274.998 339.882 274.72C339.367 274.442 338.966 274.018 338.679 273.448C338.392 272.879 338.248 272.161 338.248 271.295C338.248 270.388 338.398 269.647 338.699 269.073C339.005 268.494 339.424 268.066 339.957 267.788C340.49 267.51 341.096 267.371 341.775 267.371C342.149 267.371 342.509 267.41 342.855 267.487C343.206 267.56 343.493 267.654 343.717 267.768L343.375 268.718C343.147 268.627 342.883 268.545 342.582 268.472C342.286 268.399 342.008 268.362 341.748 268.362C341.229 268.362 340.796 268.474 340.449 268.697C340.107 268.921 339.85 269.249 339.677 269.682C339.508 270.115 339.424 270.648 339.424 271.281C339.424 271.887 339.506 272.405 339.67 272.833C339.839 273.261 340.087 273.59 340.415 273.817C340.748 274.041 341.162 274.152 341.659 274.152C342.056 274.152 342.413 274.111 342.732 274.029C343.051 273.943 343.341 273.842 343.601 273.729V274.74C343.35 274.868 343.07 274.966 342.76 275.034C342.454 275.103 342.09 275.137 341.666 275.137ZM351.838 271.24C351.838 271.855 351.758 272.405 351.599 272.888C351.439 273.371 351.209 273.779 350.908 274.111C350.607 274.444 350.243 274.699 349.814 274.877C349.391 275.05 348.91 275.137 348.372 275.137C347.871 275.137 347.41 275.05 346.991 274.877C346.576 274.699 346.216 274.444 345.911 274.111C345.61 273.779 345.376 273.371 345.207 272.888C345.043 272.405 344.961 271.855 344.961 271.24C344.961 270.42 345.1 269.723 345.378 269.148C345.656 268.57 346.052 268.13 346.567 267.829C347.087 267.524 347.704 267.371 348.42 267.371C349.104 267.371 349.701 267.524 350.211 267.829C350.726 268.134 351.125 268.576 351.407 269.155C351.694 269.729 351.838 270.424 351.838 271.24ZM346.137 271.24C346.137 271.842 346.216 272.364 346.376 272.806C346.535 273.248 346.782 273.59 347.114 273.831C347.447 274.073 347.875 274.193 348.399 274.193C348.919 274.193 349.345 274.073 349.678 273.831C350.015 273.59 350.263 273.248 350.423 272.806C350.582 272.364 350.662 271.842 350.662 271.24C350.662 270.643 350.582 270.128 350.423 269.695C350.263 269.258 350.017 268.921 349.685 268.684C349.352 268.447 348.921 268.328 348.393 268.328C347.613 268.328 347.041 268.586 346.677 269.101C346.317 269.616 346.137 270.329 346.137 271.24ZM361.935 267.371C362.759 267.371 363.382 267.588 363.801 268.021C364.22 268.449 364.43 269.139 364.43 270.092V275H363.309V270.146C363.309 269.54 363.176 269.087 362.912 268.786C362.652 268.481 362.265 268.328 361.75 268.328C361.025 268.328 360.499 268.538 360.171 268.957C359.843 269.376 359.679 269.994 359.679 270.81V275H358.551V270.146C358.551 269.741 358.492 269.404 358.373 269.135C358.259 268.866 358.086 268.665 357.854 268.533C357.626 268.396 357.336 268.328 356.985 268.328C356.489 268.328 356.09 268.431 355.789 268.636C355.488 268.841 355.27 269.146 355.133 269.552C355.001 269.953 354.935 270.447 354.935 271.035V275H353.8V267.508H354.716L354.887 268.567H354.948C355.099 268.308 355.288 268.089 355.516 267.911C355.743 267.733 355.999 267.599 356.281 267.508C356.564 267.417 356.865 267.371 357.184 267.371C357.753 267.371 358.229 267.478 358.612 267.692C359 267.902 359.28 268.223 359.453 268.656H359.515C359.761 268.223 360.098 267.902 360.526 267.692C360.955 267.478 361.424 267.371 361.935 267.371ZM366.59 274.289C366.59 273.97 366.667 273.744 366.822 273.612C366.977 273.476 367.166 273.407 367.39 273.407C367.622 273.407 367.818 273.476 367.978 273.612C368.137 273.744 368.217 273.97 368.217 274.289C368.217 274.604 368.137 274.834 367.978 274.979C367.818 275.121 367.622 275.191 367.39 275.191C367.166 275.191 366.977 275.121 366.822 274.979C366.667 274.834 366.59 274.604 366.59 274.289ZM371.573 264.363V267.022C371.573 267.328 371.564 267.624 371.546 267.911C371.532 268.198 371.521 268.422 371.512 268.581H371.573C371.778 268.244 372.075 267.959 372.462 267.727C372.849 267.494 373.344 267.378 373.945 267.378C374.884 267.378 375.632 267.704 376.188 268.355C376.748 269.003 377.028 269.966 377.028 271.247C377.028 272.09 376.901 272.801 376.646 273.38C376.39 273.959 376.03 274.396 375.565 274.692C375.101 274.989 374.551 275.137 373.918 275.137C373.326 275.137 372.838 275.027 372.455 274.809C372.077 274.585 371.785 274.314 371.58 273.995H371.491L371.259 275H370.438V264.363H371.573ZM373.761 268.328C373.218 268.328 372.788 268.435 372.469 268.649C372.15 268.859 371.92 269.178 371.778 269.606C371.642 270.03 371.573 270.568 371.573 271.22V271.281C371.573 272.225 371.73 272.947 372.045 273.448C372.359 273.945 372.931 274.193 373.761 274.193C374.458 274.193 374.98 273.938 375.326 273.428C375.677 272.917 375.853 272.188 375.853 271.24C375.853 270.274 375.679 269.547 375.333 269.06C374.991 268.572 374.467 268.328 373.761 268.328ZM382.415 267.371C382.565 267.371 382.723 267.38 382.887 267.398C383.051 267.412 383.197 267.433 383.324 267.46L383.181 268.513C383.058 268.481 382.921 268.456 382.771 268.438C382.62 268.419 382.479 268.41 382.347 268.41C382.046 268.41 381.761 268.472 381.492 268.595C381.228 268.713 380.995 268.886 380.795 269.114C380.594 269.338 380.437 269.609 380.323 269.928C380.209 270.242 380.152 270.593 380.152 270.98V275H379.011V267.508H379.954L380.077 268.889H380.125C380.28 268.611 380.467 268.358 380.686 268.13C380.904 267.897 381.157 267.713 381.444 267.576C381.736 267.439 382.06 267.371 382.415 267.371Z" fill="#74798B"/>
<g opacity="0.5">
<rect x="225" y="404" width="316" height="48" rx="8" fill="#2C46B1"/>
<path d="M355.205 430.279C355.205 430.872 355.059 431.382 354.768 431.811C354.48 432.239 354.066 432.567 353.523 432.795C352.986 433.023 352.343 433.137 351.596 433.137C351.231 433.137 350.882 433.116 350.55 433.075C350.217 433.034 349.903 432.975 349.606 432.897C349.315 432.815 349.048 432.717 348.807 432.604V431.059C349.212 431.236 349.666 431.398 350.167 431.544C350.668 431.685 351.179 431.756 351.698 431.756C352.122 431.756 352.473 431.701 352.751 431.592C353.034 431.478 353.243 431.318 353.38 431.113C353.517 430.904 353.585 430.66 353.585 430.382C353.585 430.086 353.505 429.835 353.346 429.63C353.186 429.425 352.945 429.238 352.621 429.069C352.302 428.896 351.901 428.712 351.418 428.516C351.09 428.383 350.775 428.233 350.475 428.064C350.178 427.896 349.914 427.698 349.682 427.47C349.449 427.242 349.265 426.973 349.128 426.663C348.996 426.349 348.93 425.979 348.93 425.556C348.93 424.991 349.064 424.507 349.333 424.106C349.606 423.705 349.989 423.398 350.481 423.184C350.978 422.969 351.557 422.862 352.218 422.862C352.742 422.862 353.234 422.917 353.694 423.026C354.159 423.136 354.615 423.291 355.062 423.491L354.542 424.811C354.132 424.642 353.733 424.507 353.346 424.407C352.963 424.307 352.571 424.257 352.17 424.257C351.824 424.257 351.53 424.309 351.288 424.414C351.047 424.519 350.862 424.667 350.734 424.858C350.611 425.045 350.55 425.269 350.55 425.528C350.55 425.82 350.62 426.066 350.762 426.267C350.908 426.463 351.131 426.643 351.432 426.807C351.737 426.971 352.129 427.153 352.607 427.354C353.159 427.581 353.626 427.821 354.009 428.071C354.396 428.322 354.692 428.623 354.897 428.974C355.103 429.32 355.205 429.755 355.205 430.279ZM359.936 425.289C360.893 425.289 361.615 425.501 362.103 425.925C362.595 426.349 362.841 427.009 362.841 427.907V433H361.699L361.392 431.927H361.337C361.123 432.2 360.902 432.426 360.674 432.604C360.446 432.781 360.182 432.913 359.881 433C359.585 433.091 359.222 433.137 358.794 433.137C358.343 433.137 357.939 433.055 357.584 432.891C357.229 432.722 356.948 432.467 356.743 432.125C356.538 431.783 356.436 431.35 356.436 430.826C356.436 430.047 356.725 429.461 357.304 429.069C357.887 428.677 358.767 428.461 359.942 428.42L361.255 428.372V427.976C361.255 427.451 361.132 427.078 360.886 426.854C360.644 426.631 360.302 426.52 359.86 426.52C359.482 426.52 359.115 426.574 358.76 426.684C358.404 426.793 358.058 426.927 357.721 427.087L357.201 425.952C357.57 425.756 357.99 425.597 358.459 425.474C358.933 425.351 359.425 425.289 359.936 425.289ZM361.248 429.384L360.271 429.418C359.468 429.445 358.906 429.582 358.582 429.828C358.258 430.074 358.097 430.411 358.097 430.84C358.097 431.214 358.208 431.487 358.432 431.66C358.655 431.829 358.949 431.913 359.313 431.913C359.869 431.913 360.33 431.756 360.694 431.441C361.063 431.122 361.248 430.655 361.248 430.04V429.384ZM366.703 433H365.09V422.363H366.703V433ZM370.729 433L367.852 425.433H369.554L371.112 429.876C371.213 430.159 371.304 430.464 371.386 430.792C371.468 431.12 371.525 431.396 371.557 431.619H371.611C371.643 431.387 371.705 431.109 371.796 430.785C371.887 430.457 371.98 430.154 372.076 429.876L373.635 425.433H375.33L372.452 433H370.729ZM379.445 425.289C380.402 425.289 381.125 425.501 381.612 425.925C382.104 426.349 382.351 427.009 382.351 427.907V433H381.209L380.901 431.927H380.847C380.632 432.2 380.411 432.426 380.184 432.604C379.956 432.781 379.691 432.913 379.391 433C379.094 433.091 378.732 433.137 378.304 433.137C377.853 433.137 377.449 433.055 377.094 432.891C376.738 432.722 376.458 432.467 376.253 432.125C376.048 431.783 375.945 431.35 375.945 430.826C375.945 430.047 376.235 429.461 376.813 429.069C377.397 428.677 378.276 428.461 379.452 428.42L380.765 428.372V427.976C380.765 427.451 380.642 427.078 380.396 426.854C380.154 426.631 379.812 426.52 379.37 426.52C378.992 426.52 378.625 426.574 378.27 426.684C377.914 426.793 377.568 426.927 377.23 427.087L376.711 425.952C377.08 425.756 377.499 425.597 377.969 425.474C378.443 425.351 378.935 425.289 379.445 425.289ZM380.758 429.384L379.78 429.418C378.978 429.445 378.415 429.582 378.092 429.828C377.768 430.074 377.606 430.411 377.606 430.84C377.606 431.214 377.718 431.487 377.941 431.66C378.165 431.829 378.459 431.913 378.823 431.913C379.379 431.913 379.84 431.756 380.204 431.441C380.573 431.122 380.758 430.655 380.758 430.04V429.384ZM388.435 425.289C388.562 425.289 388.701 425.296 388.852 425.31C389.002 425.323 389.132 425.341 389.241 425.364L389.091 426.868C388.995 426.841 388.877 426.82 388.735 426.807C388.599 426.793 388.476 426.786 388.366 426.786C388.079 426.786 387.806 426.834 387.546 426.93C387.286 427.021 387.056 427.162 386.855 427.354C386.655 427.54 386.498 427.775 386.384 428.058C386.27 428.34 386.213 428.668 386.213 429.042V433H384.6V425.433H385.857L386.076 426.766H386.151C386.302 426.497 386.489 426.251 386.712 426.027C386.935 425.804 387.19 425.626 387.478 425.494C387.769 425.357 388.088 425.289 388.435 425.289ZM395.893 433H394.279V422.363H395.893V433ZM399.796 425.433V433H398.189V425.433H399.796ZM399.003 422.534C399.249 422.534 399.461 422.6 399.639 422.732C399.821 422.865 399.912 423.092 399.912 423.416C399.912 423.735 399.821 423.963 399.639 424.1C399.461 424.232 399.249 424.298 399.003 424.298C398.748 424.298 398.531 424.232 398.354 424.1C398.18 423.963 398.094 423.735 398.094 423.416C398.094 423.092 398.18 422.865 398.354 422.732C398.531 422.6 398.748 422.534 399.003 422.534ZM406.044 425.289C406.896 425.289 407.559 425.51 408.033 425.952C408.512 426.39 408.751 427.094 408.751 428.064V433H407.145V428.365C407.145 427.777 407.024 427.338 406.782 427.046C406.541 426.75 406.167 426.602 405.661 426.602C404.927 426.602 404.417 426.827 404.13 427.278C403.847 427.729 403.706 428.383 403.706 429.24V433H402.1V425.433H403.351L403.576 426.458H403.665C403.829 426.194 404.032 425.977 404.273 425.809C404.52 425.635 404.793 425.506 405.094 425.419C405.399 425.332 405.716 425.289 406.044 425.289ZM412.606 422.363V427.504C412.606 427.736 412.597 427.992 412.579 428.27C412.561 428.543 412.543 428.8 412.524 429.042H412.559C412.677 428.882 412.818 428.696 412.982 428.481C413.151 428.267 413.311 428.08 413.461 427.921L415.771 425.433H417.617L414.589 428.687L417.815 433H415.929L413.509 429.678L412.606 430.45V433H411V422.363H412.606Z" fill="white"/>
</g>
<rect x="593" y="144" width="580" height="234" rx="8" fill="#F9F9FB"/>
<path d="M632.058 199L628.964 188.919H628.885C628.896 189.159 628.914 189.522 628.938 190.009C628.967 190.489 628.993 191.002 629.017 191.547C629.04 192.092 629.052 192.584 629.052 193.023V199H626.617V186.15H630.326L633.367 195.977H633.42L636.646 186.15H640.354V199H637.814V192.918C637.814 192.514 637.82 192.048 637.832 191.521C637.85 190.993 637.87 190.492 637.894 190.018C637.917 189.537 637.935 189.177 637.946 188.937H637.867L634.554 199H632.058ZM647.438 188.989C648.347 188.989 649.129 189.165 649.785 189.517C650.441 189.862 650.948 190.366 651.306 191.028C651.663 191.69 651.842 192.499 651.842 193.454V194.755H645.505C645.534 195.511 645.76 196.105 646.182 196.539C646.609 196.967 647.201 197.181 647.957 197.181C648.584 197.181 649.158 197.116 649.68 196.987C650.201 196.858 650.737 196.665 651.288 196.407V198.481C650.802 198.722 650.292 198.897 649.759 199.009C649.231 199.12 648.59 199.176 647.834 199.176C646.85 199.176 645.977 198.994 645.215 198.631C644.459 198.268 643.864 197.714 643.431 196.97C643.003 196.226 642.789 195.288 642.789 194.157C642.789 193.009 642.982 192.054 643.369 191.292C643.762 190.524 644.307 189.95 645.004 189.569C645.701 189.183 646.513 188.989 647.438 188.989ZM647.456 190.896C646.935 190.896 646.501 191.063 646.155 191.397C645.815 191.731 645.619 192.256 645.566 192.971H649.328C649.322 192.572 649.249 192.218 649.108 191.907C648.974 191.597 648.769 191.351 648.493 191.169C648.224 190.987 647.878 190.896 647.456 190.896ZM663.039 189.174V199H660.982L660.622 197.743H660.481C660.271 198.077 660.007 198.35 659.69 198.561C659.374 198.771 659.025 198.927 658.645 199.026C658.264 199.126 657.868 199.176 657.458 199.176C656.755 199.176 656.143 199.053 655.621 198.807C655.1 198.555 654.692 198.165 654.399 197.638C654.112 197.11 653.969 196.425 653.969 195.581V189.174H656.649V194.913C656.649 195.616 656.775 196.146 657.027 196.504C657.279 196.861 657.681 197.04 658.231 197.04C658.776 197.04 659.204 196.917 659.515 196.671C659.825 196.419 660.042 196.053 660.165 195.572C660.294 195.086 660.358 194.494 660.358 193.797V189.174H663.039ZM672.707 196.082C672.707 196.75 672.549 197.315 672.232 197.778C671.922 198.235 671.456 198.584 670.835 198.824C670.214 199.059 669.44 199.176 668.515 199.176C667.829 199.176 667.24 199.132 666.748 199.044C666.262 198.956 665.77 198.81 665.271 198.604V196.39C665.805 196.63 666.376 196.829 666.985 196.987C667.601 197.14 668.14 197.216 668.603 197.216C669.124 197.216 669.496 197.14 669.719 196.987C669.947 196.829 670.062 196.624 670.062 196.372C670.062 196.208 670.015 196.062 669.921 195.933C669.833 195.798 669.64 195.648 669.341 195.484C669.042 195.314 668.573 195.095 667.935 194.825C667.319 194.567 666.812 194.307 666.414 194.043C666.021 193.779 665.729 193.469 665.535 193.111C665.348 192.748 665.254 192.288 665.254 191.731C665.254 190.823 665.605 190.141 666.309 189.684C667.018 189.221 667.964 188.989 669.147 188.989C669.757 188.989 670.337 189.051 670.888 189.174C671.444 189.297 672.016 189.493 672.602 189.763L671.793 191.696C671.307 191.485 670.847 191.312 670.413 191.178C669.985 191.043 669.549 190.976 669.104 190.976C668.711 190.976 668.415 191.028 668.216 191.134C668.017 191.239 667.917 191.4 667.917 191.617C667.917 191.775 667.967 191.916 668.066 192.039C668.172 192.162 668.371 192.3 668.664 192.452C668.963 192.599 669.399 192.789 669.974 193.023C670.53 193.252 671.014 193.492 671.424 193.744C671.834 193.99 672.15 194.298 672.373 194.667C672.596 195.03 672.707 195.502 672.707 196.082ZM682.155 199H679.475V185.324H682.155V199ZM687.657 189.174V199H684.977V189.174H687.657ZM686.321 185.324C686.72 185.324 687.062 185.418 687.35 185.605C687.637 185.787 687.78 186.13 687.78 186.634C687.78 187.132 687.637 187.478 687.35 187.671C687.062 187.858 686.72 187.952 686.321 187.952C685.917 187.952 685.571 187.858 685.284 187.671C685.003 187.478 684.862 187.132 684.862 186.634C684.862 186.13 685.003 185.787 685.284 185.605C685.571 185.418 685.917 185.324 686.321 185.324ZM696.06 188.989C697.108 188.989 697.952 189.276 698.591 189.851C699.229 190.419 699.549 191.333 699.549 192.593V199H696.868V193.261C696.868 192.558 696.739 192.027 696.481 191.67C696.229 191.312 695.831 191.134 695.286 191.134C694.466 191.134 693.906 191.412 693.607 191.969C693.309 192.525 693.159 193.328 693.159 194.377V199H690.479V189.174H692.526L692.887 190.431H693.036C693.247 190.091 693.508 189.815 693.818 189.604C694.135 189.394 694.483 189.238 694.864 189.139C695.251 189.039 695.649 188.989 696.06 188.989ZM704.989 185.324V191.441C704.989 191.811 704.975 192.18 704.945 192.549C704.916 192.918 704.884 193.287 704.849 193.656H704.884C705.065 193.398 705.25 193.144 705.438 192.892C705.631 192.64 705.836 192.396 706.053 192.162L708.804 189.174H711.827L707.925 193.437L712.064 199H708.971L706.141 195.019L704.989 195.941V199H702.309V185.324H704.989ZM720.326 196.082C720.326 196.75 720.168 197.315 719.852 197.778C719.541 198.235 719.075 198.584 718.454 198.824C717.833 199.059 717.06 199.176 716.134 199.176C715.448 199.176 714.859 199.132 714.367 199.044C713.881 198.956 713.389 198.81 712.891 198.604V196.39C713.424 196.63 713.995 196.829 714.604 196.987C715.22 197.14 715.759 197.216 716.222 197.216C716.743 197.216 717.115 197.14 717.338 196.987C717.566 196.829 717.681 196.624 717.681 196.372C717.681 196.208 717.634 196.062 717.54 195.933C717.452 195.798 717.259 195.648 716.96 195.484C716.661 195.314 716.192 195.095 715.554 194.825C714.938 194.567 714.432 194.307 714.033 194.043C713.641 193.779 713.348 193.469 713.154 193.111C712.967 192.748 712.873 192.288 712.873 191.731C712.873 190.823 713.225 190.141 713.928 189.684C714.637 189.221 715.583 188.989 716.767 188.989C717.376 188.989 717.956 189.051 718.507 189.174C719.063 189.297 719.635 189.493 720.221 189.763L719.412 191.696C718.926 191.485 718.466 191.312 718.032 191.178C717.604 191.043 717.168 190.976 716.723 190.976C716.33 190.976 716.034 191.028 715.835 191.134C715.636 191.239 715.536 191.4 715.536 191.617C715.536 191.775 715.586 191.916 715.686 192.039C715.791 192.162 715.99 192.3 716.283 192.452C716.582 192.599 717.019 192.789 717.593 193.023C718.149 193.252 718.633 193.492 719.043 193.744C719.453 193.99 719.77 194.298 719.992 194.667C720.215 195.03 720.326 195.502 720.326 196.082Z" fill="#1F2025"/>
<g opacity="0.5">
<rect x="1041" y="176" width="100" height="32" rx="4" fill="#E4E6EC"/>
<path d="M1063 193V197C1063 197.133 1062.95 197.26 1062.85 197.354C1062.76 197.447 1062.63 197.5 1062.5 197.5H1051.5C1051.37 197.5 1051.24 197.447 1051.15 197.354C1051.05 197.26 1051 197.133 1051 197V193C1051 192.867 1051.05 192.74 1051.15 192.646C1051.24 192.553 1051.37 192.5 1051.5 192.5C1051.63 192.5 1051.76 192.553 1051.85 192.646C1051.95 192.74 1052 192.867 1052 193V196.5H1062V193C1062 192.867 1062.05 192.74 1062.15 192.646C1062.24 192.553 1062.37 192.5 1062.5 192.5C1062.63 192.5 1062.76 192.553 1062.85 192.646C1062.95 192.74 1063 192.867 1063 193ZM1056.65 193.354C1056.69 193.4 1056.75 193.437 1056.81 193.462C1056.87 193.487 1056.93 193.5 1057 193.5C1057.07 193.5 1057.13 193.487 1057.19 193.462C1057.25 193.437 1057.31 193.4 1057.35 193.354L1059.85 190.854C1059.9 190.807 1059.94 190.752 1059.96 190.691C1059.99 190.631 1060 190.566 1060 190.5C1060 190.434 1059.99 190.369 1059.96 190.309C1059.94 190.248 1059.9 190.193 1059.85 190.146C1059.81 190.1 1059.75 190.063 1059.69 190.038C1059.63 190.013 1059.57 190 1059.5 190C1059.43 190 1059.37 190.013 1059.31 190.038C1059.25 190.063 1059.19 190.1 1059.15 190.146L1057.5 191.793V186C1057.5 185.867 1057.45 185.74 1057.35 185.646C1057.26 185.553 1057.13 185.5 1057 185.5C1056.87 185.5 1056.74 185.553 1056.65 185.646C1056.55 185.74 1056.5 185.867 1056.5 186V191.793L1054.85 190.146C1054.76 190.052 1054.63 190 1054.5 190C1054.37 190 1054.24 190.052 1054.15 190.146C1054.05 190.24 1054 190.367 1054 190.5C1054 190.633 1054.05 190.76 1054.15 190.854L1056.65 193.354Z" fill="#1F2025"/>
<path d="M1072.24 188.434H1074.79C1075.89 188.434 1076.73 188.594 1077.29 188.914C1077.85 189.234 1078.13 189.787 1078.13 190.572C1078.13 190.9 1078.08 191.197 1077.96 191.463C1077.85 191.725 1077.68 191.941 1077.46 192.113C1077.24 192.281 1076.97 192.395 1076.65 192.453V192.512C1076.98 192.57 1077.28 192.674 1077.54 192.822C1077.8 192.971 1078 193.184 1078.15 193.461C1078.3 193.738 1078.38 194.098 1078.38 194.539C1078.38 195.062 1078.26 195.508 1078.01 195.875C1077.76 196.242 1077.41 196.521 1076.95 196.713C1076.49 196.904 1075.95 197 1075.32 197H1072.24V188.434ZM1073.65 191.967H1074.99C1075.63 191.967 1076.07 191.863 1076.32 191.656C1076.56 191.449 1076.69 191.146 1076.69 190.748C1076.69 190.342 1076.54 190.049 1076.25 189.869C1075.96 189.689 1075.5 189.6 1074.87 189.6H1073.65V191.967ZM1073.65 193.104V195.822H1075.13C1075.79 195.822 1076.25 195.695 1076.51 195.441C1076.78 195.188 1076.91 194.844 1076.91 194.41C1076.91 194.145 1076.85 193.914 1076.73 193.719C1076.61 193.523 1076.42 193.373 1076.15 193.268C1075.88 193.158 1075.52 193.104 1075.06 193.104H1073.65ZM1082.55 190.391C1083.37 190.391 1083.99 190.572 1084.41 190.936C1084.83 191.299 1085.04 191.865 1085.04 192.635V197H1084.06L1083.8 196.08H1083.75C1083.57 196.314 1083.38 196.508 1083.19 196.66C1082.99 196.812 1082.76 196.926 1082.51 197C1082.25 197.078 1081.94 197.117 1081.57 197.117C1081.19 197.117 1080.84 197.047 1080.54 196.906C1080.23 196.762 1079.99 196.543 1079.82 196.25C1079.64 195.957 1079.55 195.586 1079.55 195.137C1079.55 194.469 1079.8 193.967 1080.3 193.631C1080.8 193.295 1081.55 193.109 1082.56 193.074L1083.68 193.033V192.693C1083.68 192.244 1083.58 191.924 1083.37 191.732C1083.16 191.541 1082.87 191.445 1082.49 191.445C1082.16 191.445 1081.85 191.492 1081.54 191.586C1081.24 191.68 1080.94 191.795 1080.65 191.932L1080.21 190.959C1080.53 190.791 1080.88 190.654 1081.29 190.549C1081.69 190.443 1082.12 190.391 1082.55 190.391ZM1083.68 193.9L1082.84 193.93C1082.15 193.953 1081.67 194.07 1081.39 194.281C1081.12 194.492 1080.98 194.781 1080.98 195.148C1080.98 195.469 1081.07 195.703 1081.26 195.852C1081.46 195.996 1081.71 196.068 1082.02 196.068C1082.5 196.068 1082.89 195.934 1083.2 195.664C1083.52 195.391 1083.68 194.99 1083.68 194.463V193.9ZM1088.35 190.514V197H1086.97V190.514H1088.35ZM1087.67 188.029C1087.88 188.029 1088.06 188.086 1088.21 188.199C1088.37 188.312 1088.45 188.508 1088.45 188.785C1088.45 189.059 1088.37 189.254 1088.21 189.371C1088.06 189.484 1087.88 189.541 1087.67 189.541C1087.45 189.541 1087.26 189.484 1087.11 189.371C1086.96 189.254 1086.89 189.059 1086.89 188.785C1086.89 188.508 1086.96 188.312 1087.11 188.199C1087.26 188.086 1087.45 188.029 1087.67 188.029ZM1091.76 193.684L1089.59 190.514H1091.16L1092.64 192.793L1094.13 190.514H1095.7L1093.52 193.684L1095.81 197H1094.23L1092.64 194.568L1091.05 197H1089.48L1091.76 193.684ZM1099.47 190.391C1100.29 190.391 1100.91 190.572 1101.33 190.936C1101.75 191.299 1101.96 191.865 1101.96 192.635V197H1100.99L1100.72 196.08H1100.68C1100.49 196.314 1100.3 196.508 1100.11 196.66C1099.91 196.812 1099.69 196.926 1099.43 197C1099.17 197.078 1098.86 197.117 1098.5 197.117C1098.11 197.117 1097.76 197.047 1097.46 196.906C1097.15 196.762 1096.91 196.543 1096.74 196.25C1096.56 195.957 1096.47 195.586 1096.47 195.137C1096.47 194.469 1096.72 193.967 1097.22 193.631C1097.72 193.295 1098.47 193.109 1099.48 193.074L1100.61 193.033V192.693C1100.61 192.244 1100.5 191.924 1100.29 191.732C1100.08 191.541 1099.79 191.445 1099.41 191.445C1099.09 191.445 1098.77 191.492 1098.47 191.586C1098.16 191.68 1097.87 191.795 1097.58 191.932L1097.13 190.959C1097.45 190.791 1097.81 190.654 1098.21 190.549C1098.62 190.443 1099.04 190.391 1099.47 190.391ZM1100.6 193.9L1099.76 193.93C1099.07 193.953 1098.59 194.07 1098.31 194.281C1098.04 194.492 1097.9 194.781 1097.9 195.148C1097.9 195.469 1097.99 195.703 1098.19 195.852C1098.38 195.996 1098.63 196.068 1098.94 196.068C1099.42 196.068 1099.81 195.934 1100.12 195.664C1100.44 195.391 1100.6 194.99 1100.6 194.463V193.9ZM1107.18 190.391C1107.29 190.391 1107.41 190.396 1107.54 190.408C1107.67 190.42 1107.78 190.436 1107.87 190.455L1107.74 191.744C1107.66 191.721 1107.56 191.703 1107.44 191.691C1107.32 191.68 1107.21 191.674 1107.12 191.674C1106.88 191.674 1106.64 191.715 1106.42 191.797C1106.2 191.875 1106 191.996 1105.83 192.16C1105.65 192.32 1105.52 192.521 1105.42 192.764C1105.32 193.006 1105.28 193.287 1105.28 193.607V197H1103.89V190.514H1104.97L1105.16 191.656H1105.22C1105.35 191.426 1105.51 191.215 1105.7 191.023C1105.89 190.832 1106.11 190.68 1106.36 190.566C1106.61 190.449 1106.88 190.391 1107.18 190.391ZM1115.98 189.506C1115.57 189.506 1115.2 189.58 1114.88 189.729C1114.56 189.877 1114.29 190.092 1114.06 190.373C1113.84 190.65 1113.67 190.988 1113.55 191.387C1113.44 191.781 1113.38 192.227 1113.38 192.723C1113.38 193.387 1113.47 193.959 1113.66 194.439C1113.85 194.916 1114.13 195.283 1114.52 195.541C1114.9 195.795 1115.38 195.922 1115.97 195.922C1116.33 195.922 1116.69 195.887 1117.03 195.816C1117.37 195.746 1117.73 195.65 1118.1 195.529V196.725C1117.75 196.861 1117.4 196.961 1117.04 197.023C1116.69 197.086 1116.28 197.117 1115.81 197.117C1114.94 197.117 1114.21 196.936 1113.63 196.572C1113.06 196.209 1112.63 195.697 1112.34 195.037C1112.06 194.377 1111.92 193.604 1111.92 192.717C1111.92 192.068 1112.01 191.475 1112.19 190.936C1112.37 190.396 1112.63 189.932 1112.97 189.541C1113.32 189.146 1113.74 188.844 1114.25 188.633C1114.75 188.418 1115.33 188.311 1115.99 188.311C1116.42 188.311 1116.84 188.359 1117.25 188.457C1117.67 188.551 1118.06 188.686 1118.41 188.861L1117.92 190.021C1117.62 189.881 1117.31 189.76 1116.99 189.658C1116.66 189.557 1116.33 189.506 1115.98 189.506ZM1124.88 194.668C1124.88 195.176 1124.76 195.613 1124.51 195.98C1124.26 196.348 1123.9 196.629 1123.44 196.824C1122.98 197.02 1122.43 197.117 1121.79 197.117C1121.47 197.117 1121.18 197.1 1120.89 197.064C1120.61 197.029 1120.34 196.979 1120.08 196.912C1119.83 196.842 1119.6 196.758 1119.4 196.66V195.336C1119.74 195.488 1120.13 195.627 1120.56 195.752C1120.99 195.873 1121.43 195.934 1121.88 195.934C1122.24 195.934 1122.54 195.887 1122.78 195.793C1123.02 195.695 1123.2 195.559 1123.32 195.383C1123.43 195.203 1123.49 194.994 1123.49 194.756C1123.49 194.502 1123.42 194.287 1123.29 194.111C1123.15 193.936 1122.94 193.775 1122.67 193.631C1122.39 193.482 1122.05 193.324 1121.63 193.156C1121.35 193.043 1121.08 192.914 1120.83 192.77C1120.57 192.625 1120.35 192.455 1120.15 192.26C1119.95 192.064 1119.79 191.834 1119.67 191.568C1119.56 191.299 1119.5 190.982 1119.5 190.619C1119.5 190.135 1119.62 189.721 1119.85 189.377C1120.08 189.033 1120.41 188.77 1120.83 188.586C1121.26 188.402 1121.75 188.311 1122.32 188.311C1122.77 188.311 1123.19 188.357 1123.59 188.451C1123.98 188.545 1124.38 188.678 1124.76 188.85L1124.31 189.98C1123.96 189.836 1123.62 189.721 1123.29 189.635C1122.96 189.549 1122.62 189.506 1122.28 189.506C1121.98 189.506 1121.73 189.551 1121.52 189.641C1121.32 189.73 1121.16 189.857 1121.05 190.021C1120.94 190.182 1120.89 190.373 1120.89 190.596C1120.89 190.846 1120.95 191.057 1121.07 191.229C1121.2 191.396 1121.39 191.551 1121.65 191.691C1121.91 191.832 1122.24 191.988 1122.65 192.16C1123.13 192.355 1123.53 192.561 1123.86 192.775C1124.19 192.99 1124.44 193.248 1124.62 193.549C1124.79 193.846 1124.88 194.219 1124.88 194.668ZM1132.88 188.434L1129.89 197H1128.4L1125.41 188.434H1126.85L1128.65 193.801C1128.71 193.957 1128.77 194.146 1128.83 194.369C1128.9 194.592 1128.96 194.816 1129.01 195.043C1129.07 195.27 1129.12 195.471 1129.15 195.646C1129.18 195.471 1129.22 195.27 1129.28 195.043C1129.33 194.816 1129.39 194.592 1129.46 194.369C1129.52 194.146 1129.58 193.955 1129.63 193.795L1131.44 188.434H1132.88Z" fill="#4D505C"/>
</g>
<line x1="625" y1="227.5" x2="1141" y2="227.5" stroke="#E4E6EC"/>
<path d="M897 271.029C896.95 272.77 896.234 274.425 895 275.654L890.656 280C890.024 280.636 889.271 281.14 888.442 281.484C887.613 281.827 886.725 282.002 885.827 282H885.821C884.909 281.999 884.006 281.816 883.165 281.46C882.325 281.105 881.564 280.584 880.929 279.93C880.293 279.276 879.794 278.5 879.463 277.65C879.132 276.8 878.974 275.892 879 274.98C879.007 274.715 879.12 274.463 879.313 274.281C879.506 274.099 879.763 274.001 880.028 274.008C880.293 274.016 880.545 274.128 880.727 274.321C880.909 274.514 881.007 274.771 881 275.036C880.982 275.681 881.093 276.323 881.327 276.924C881.561 277.526 881.914 278.074 882.363 278.536C882.813 278.999 883.35 279.367 883.945 279.618C884.539 279.87 885.177 280 885.822 280C886.457 280.002 887.085 279.878 887.671 279.635C888.257 279.392 888.789 279.036 889.236 278.586L893.58 274.243C894.476 273.335 894.977 272.11 894.973 270.834C894.969 269.559 894.461 268.337 893.559 267.435C892.657 266.533 891.435 266.025 890.159 266.021C888.884 266.017 887.659 266.518 886.751 267.414L885.376 268.789C885.187 268.968 884.935 269.067 884.675 269.064C884.414 269.06 884.165 268.955 883.98 268.771C883.796 268.586 883.691 268.337 883.688 268.077C883.684 267.816 883.783 267.564 883.962 267.375L885.337 266C885.972 265.365 886.725 264.862 887.554 264.519C888.383 264.175 889.271 263.998 890.169 263.998C891.066 263.998 891.955 264.175 892.783 264.519C893.612 264.862 894.366 265.365 895 266C895.657 266.659 896.173 267.444 896.517 268.309C896.861 269.173 897.025 270.099 897 271.029ZM880.625 283.208L879.25 284.583C878.802 285.034 878.268 285.392 877.68 285.635C877.092 285.878 876.461 286.002 875.825 286C874.87 285.999 873.937 285.716 873.144 285.185C872.35 284.654 871.732 283.9 871.367 283.018C871.002 282.136 870.907 281.165 871.093 280.229C871.279 279.293 871.739 278.433 872.414 277.758L876.75 273.414C877.433 272.727 878.307 272.262 879.257 272.078C880.208 271.894 881.192 272.001 882.082 272.384C882.972 272.766 883.726 273.408 884.246 274.225C884.766 275.041 885.029 275.996 885 276.964C884.993 277.229 885.091 277.486 885.273 277.679C885.455 277.872 885.707 277.984 885.972 277.992C886.237 277.999 886.494 277.901 886.687 277.719C886.88 277.537 886.993 277.285 887 277.02C887.024 276.091 886.859 275.168 886.515 274.305C886.171 273.442 885.656 272.658 885 272C883.719 270.72 881.982 270 880.171 270C878.359 270 876.622 270.72 875.341 272L871 276.344C870.045 277.298 869.395 278.514 869.131 279.838C868.867 281.162 869.002 282.534 869.517 283.782C870.033 285.029 870.907 286.095 872.029 286.846C873.151 287.597 874.47 287.999 875.82 288C876.717 288.003 877.606 287.827 878.435 287.484C879.264 287.141 880.017 286.636 880.65 286L882.025 284.625C882.187 284.434 882.271 284.19 882.262 283.94C882.253 283.69 882.15 283.453 881.974 283.275C881.798 283.097 881.562 282.992 881.313 282.979C881.063 282.967 880.818 283.048 880.625 283.208Z" fill="#74798B"/>
<path d="M788.786 317L787.907 314.734H785.046L784.172 317H783.332L786.125 309.832H786.872L789.646 317H788.786ZM787.658 313.997L786.823 311.746C786.804 311.688 786.771 311.591 786.726 311.458C786.683 311.325 786.639 311.186 786.594 311.043C786.548 310.9 786.511 310.784 786.481 310.696C786.449 310.83 786.413 310.963 786.374 311.097C786.338 311.227 786.302 311.349 786.267 311.463C786.231 311.574 786.2 311.668 786.174 311.746L785.324 313.997H787.658ZM790.637 317V309.861H791.467V317H790.637ZM799.011 317H798.054L794.162 311.004H794.123C794.133 311.163 794.144 311.346 794.157 311.551C794.17 311.753 794.18 311.969 794.187 312.2C794.196 312.428 794.201 312.661 794.201 312.898V317H793.43V309.861H794.382L798.259 315.838H798.293C798.286 315.724 798.278 315.563 798.269 315.354C798.259 315.143 798.249 314.917 798.239 314.676C798.233 314.432 798.229 314.205 798.229 313.997V309.861H799.011V317ZM806.628 313.362C806.628 314.166 806.481 314.839 806.188 315.379C805.896 315.916 805.471 316.321 804.914 316.595C804.361 316.865 803.688 317 802.897 317H800.959V309.861H803.112C803.838 309.861 804.463 309.995 804.987 310.262C805.511 310.525 805.915 310.918 806.198 311.438C806.485 311.956 806.628 312.597 806.628 313.362ZM805.754 313.392C805.754 312.75 805.646 312.221 805.432 311.805C805.22 311.388 804.908 311.079 804.494 310.877C804.084 310.672 803.581 310.569 802.985 310.569H801.789V316.287H802.8C803.783 316.287 804.52 316.045 805.012 315.56C805.507 315.075 805.754 314.352 805.754 313.392ZM812.692 317L811.813 314.734H808.952L808.078 317H807.238L810.031 309.832H810.778L813.552 317H812.692ZM811.564 313.997L810.729 311.746C810.71 311.688 810.677 311.591 810.632 311.458C810.59 311.325 810.546 311.186 810.5 311.043C810.454 310.9 810.417 310.784 810.388 310.696C810.355 310.83 810.319 310.963 810.28 311.097C810.244 311.227 810.209 311.349 810.173 311.463C810.137 311.574 810.106 311.668 810.08 311.746L809.23 313.997H811.564ZM822.722 317H821.765L817.873 311.004H817.834C817.844 311.163 817.855 311.346 817.868 311.551C817.881 311.753 817.891 311.969 817.897 312.2C817.907 312.428 817.912 312.661 817.912 312.898V317H817.141V309.861H818.093L821.97 315.838H822.004C821.997 315.724 821.989 315.563 821.979 315.354C821.97 315.143 821.96 314.917 821.95 314.676C821.944 314.432 821.94 314.205 821.94 313.997V309.861H822.722V317ZM829.147 317L828.269 314.734H825.407L824.533 317H823.693L826.486 309.832H827.233L830.007 317H829.147ZM828.02 313.997L827.185 311.746C827.165 311.688 827.132 311.591 827.087 311.458C827.045 311.325 827.001 311.186 826.955 311.043C826.91 310.9 826.872 310.784 826.843 310.696C826.81 310.83 826.774 310.963 826.735 311.097C826.7 311.227 826.664 311.349 826.628 311.463C826.592 311.574 826.561 311.668 826.535 311.746L825.686 313.997H828.02ZM825.007 309.134C825.026 308.938 825.064 308.764 825.119 308.611C825.174 308.458 825.248 308.328 825.339 308.221C825.43 308.113 825.537 308.032 825.661 307.977C825.788 307.918 825.928 307.889 826.081 307.889C826.231 307.889 826.374 307.92 826.511 307.981C826.647 308.04 826.778 308.108 826.901 308.187C827.025 308.261 827.144 308.33 827.258 308.392C827.375 308.45 827.487 308.479 827.595 308.479C827.751 308.479 827.871 308.432 827.956 308.338C828.044 308.24 828.111 308.087 828.156 307.879H828.635C828.592 308.26 828.48 308.564 828.298 308.792C828.116 309.017 827.87 309.129 827.561 309.129C827.417 309.129 827.279 309.1 827.146 309.041C827.012 308.979 826.883 308.911 826.76 308.836C826.636 308.758 826.514 308.689 826.394 308.631C826.276 308.569 826.161 308.538 826.047 308.538C825.887 308.538 825.765 308.587 825.681 308.685C825.596 308.779 825.531 308.929 825.485 309.134H825.007ZM837.189 313.421C837.189 313.971 837.119 314.472 836.979 314.925C836.84 315.374 836.631 315.761 836.354 316.087C836.081 316.409 835.741 316.658 835.334 316.834C834.927 317.01 834.455 317.098 833.918 317.098C833.365 317.098 832.881 317.01 832.468 316.834C832.058 316.658 831.716 316.408 831.442 316.082C831.172 315.757 830.969 315.368 830.832 314.915C830.699 314.463 830.632 313.961 830.632 313.411C830.632 312.682 830.752 312.042 830.993 311.492C831.234 310.942 831.599 310.514 832.087 310.208C832.578 309.902 833.194 309.749 833.933 309.749C834.639 309.749 835.233 309.9 835.715 310.203C836.2 310.506 836.566 310.932 836.813 311.482C837.064 312.029 837.189 312.675 837.189 313.421ZM831.506 313.421C831.506 314.026 831.592 314.55 831.765 314.993C831.937 315.436 832.201 315.778 832.556 316.019C832.914 316.259 833.368 316.38 833.918 316.38C834.471 316.38 834.924 316.259 835.275 316.019C835.63 315.778 835.892 315.436 836.062 314.993C836.231 314.55 836.315 314.026 836.315 313.421C836.315 312.5 836.122 311.78 835.734 311.263C835.35 310.742 834.75 310.481 833.933 310.481C833.379 310.481 832.924 310.6 832.565 310.838C832.207 311.076 831.94 311.414 831.765 311.854C831.592 312.29 831.506 312.812 831.506 313.421ZM845.354 317H841.379V309.861H845.354V310.594H842.209V312.903H845.173V313.626H842.209V316.268H845.354V317ZM851.701 317H850.759L848.83 313.855L846.872 317H845.988L848.366 313.279L846.154 309.861H847.077L848.859 312.708L850.651 309.861H851.53L849.323 313.265L851.701 317ZM852.717 317V309.861H853.547V317H852.717ZM859.538 315.101C859.538 315.524 859.432 315.885 859.221 316.185C859.012 316.481 858.719 316.707 858.342 316.863C857.964 317.02 857.52 317.098 857.009 317.098C856.739 317.098 856.483 317.085 856.242 317.059C856.001 317.033 855.78 316.995 855.578 316.946C855.376 316.897 855.199 316.837 855.046 316.766V315.97C855.29 316.071 855.588 316.165 855.939 316.253C856.291 316.338 856.659 316.38 857.043 316.38C857.401 316.38 857.704 316.333 857.951 316.238C858.199 316.141 858.386 316.002 858.513 315.823C858.643 315.641 858.708 315.423 858.708 315.169C858.708 314.925 858.654 314.721 858.547 314.559C858.439 314.393 858.26 314.243 858.01 314.109C857.762 313.973 857.424 313.828 856.994 313.675C856.691 313.567 856.424 313.45 856.193 313.323C855.962 313.193 855.769 313.047 855.612 312.884C855.456 312.721 855.337 312.532 855.256 312.317C855.178 312.103 855.139 311.857 855.139 311.58C855.139 311.199 855.235 310.874 855.427 310.604C855.622 310.33 855.891 310.122 856.232 309.979C856.577 309.832 856.973 309.759 857.419 309.759C857.8 309.759 858.151 309.795 858.474 309.866C858.799 309.938 859.097 310.034 859.367 310.154L859.108 310.867C858.851 310.76 858.578 310.67 858.288 310.599C858.002 310.527 857.705 310.491 857.399 310.491C857.093 310.491 856.835 310.537 856.623 310.628C856.415 310.716 856.255 310.841 856.145 311.004C856.034 311.167 855.979 311.36 855.979 311.585C855.979 311.836 856.031 312.044 856.135 312.21C856.242 312.376 856.411 312.524 856.643 312.654C856.877 312.781 857.186 312.915 857.57 313.055C857.99 313.208 858.347 313.37 858.64 313.543C858.933 313.712 859.156 313.921 859.309 314.168C859.462 314.412 859.538 314.723 859.538 315.101ZM863.19 317H862.355V310.594H860.109V309.861H865.427V310.594H863.19V317ZM870.48 317H866.506V309.861H870.48V310.594H867.336V312.903H870.3V313.626H867.336V316.268H870.48V317ZM875.202 317L872.805 310.682H872.766C872.779 310.815 872.79 310.978 872.8 311.17C872.81 311.362 872.818 311.572 872.824 311.8C872.831 312.024 872.834 312.254 872.834 312.488V317H872.062V309.861H873.293L875.554 315.799H875.588L877.883 309.861H879.104V317H878.283V312.43C878.283 312.218 878.286 312.007 878.293 311.795C878.299 311.58 878.308 311.378 878.317 311.189C878.327 310.997 878.337 310.831 878.347 310.691H878.308L875.881 317H875.202ZM883.654 317V309.861H884.484V316.258H887.653V317H883.654ZM888.879 317V309.861H889.709V317H888.879ZM897.253 317H896.296L892.404 311.004H892.365C892.375 311.163 892.386 311.346 892.399 311.551C892.412 311.753 892.422 311.969 892.429 312.2C892.438 312.428 892.443 312.661 892.443 312.898V317H891.672V309.861H892.624L896.501 315.838H896.535C896.529 315.724 896.521 315.563 896.511 315.354C896.501 315.143 896.491 314.917 896.481 314.676C896.475 314.432 896.472 314.205 896.472 313.997V309.861H897.253V317ZM904.348 317H903.366L900.793 313.528L900.031 314.212V317H899.201V309.861H900.031V313.421C900.217 313.209 900.407 312.999 900.603 312.791C900.798 312.579 900.992 312.366 901.184 312.151L903.269 309.861H904.24L901.398 312.957L904.348 317ZM909.353 315.101C909.353 315.524 909.247 315.885 909.035 316.185C908.827 316.481 908.534 316.707 908.156 316.863C907.779 317.02 907.334 317.098 906.823 317.098C906.553 317.098 906.298 317.085 906.057 317.059C905.816 317.033 905.594 316.995 905.393 316.946C905.191 316.897 905.013 316.837 904.86 316.766V315.97C905.104 316.071 905.402 316.165 905.754 316.253C906.105 316.338 906.473 316.38 906.857 316.38C907.215 316.38 907.518 316.333 907.766 316.238C908.013 316.141 908.2 316.002 908.327 315.823C908.457 315.641 908.522 315.423 908.522 315.169C908.522 314.925 908.469 314.721 908.361 314.559C908.254 314.393 908.075 314.243 907.824 314.109C907.577 313.973 907.238 313.828 906.809 313.675C906.506 313.567 906.239 313.45 906.008 313.323C905.777 313.193 905.583 313.047 905.427 312.884C905.271 312.721 905.152 312.532 905.07 312.317C904.992 312.103 904.953 311.857 904.953 311.58C904.953 311.199 905.049 310.874 905.241 310.604C905.437 310.33 905.705 310.122 906.047 309.979C906.392 309.832 906.787 309.759 907.233 309.759C907.614 309.759 907.966 309.795 908.288 309.866C908.614 309.938 908.911 310.034 909.182 310.154L908.923 310.867C908.666 310.76 908.392 310.67 908.103 310.599C907.816 310.527 907.52 310.491 907.214 310.491C906.908 310.491 906.649 310.537 906.438 310.628C906.229 310.716 906.07 310.841 905.959 311.004C905.848 311.167 905.793 311.36 905.793 311.585C905.793 311.836 905.845 312.044 905.949 312.21C906.057 312.376 906.226 312.524 906.457 312.654C906.691 312.781 907.001 312.915 907.385 313.055C907.805 313.208 908.161 313.37 908.454 313.543C908.747 313.712 908.97 313.921 909.123 314.168C909.276 314.412 909.353 314.723 909.353 315.101ZM916.462 310.491C916.068 310.491 915.713 310.56 915.397 310.696C915.085 310.83 914.818 311.025 914.597 311.282C914.379 311.536 914.211 311.844 914.094 312.205C913.977 312.566 913.918 312.973 913.918 313.426C913.918 314.025 914.011 314.546 914.196 314.988C914.385 315.428 914.665 315.768 915.036 316.009C915.41 316.25 915.878 316.37 916.438 316.37C916.757 316.37 917.056 316.344 917.336 316.292C917.619 316.237 917.894 316.168 918.161 316.087V316.81C917.901 316.907 917.627 316.979 917.341 317.024C917.054 317.073 916.714 317.098 916.32 317.098C915.594 317.098 914.987 316.948 914.499 316.648C914.014 316.346 913.649 315.919 913.405 315.369C913.164 314.819 913.044 314.17 913.044 313.421C913.044 312.881 913.119 312.387 913.269 311.941C913.422 311.492 913.643 311.105 913.933 310.779C914.226 310.454 914.584 310.203 915.007 310.027C915.433 309.848 915.922 309.759 916.472 309.759C916.833 309.759 917.181 309.795 917.517 309.866C917.852 309.938 918.155 310.04 918.425 310.174L918.093 310.877C917.865 310.773 917.614 310.683 917.341 310.608C917.071 310.53 916.778 310.491 916.462 310.491ZM924.187 317L923.308 314.734H920.446L919.572 317H918.732L921.525 309.832H922.272L925.046 317H924.187ZM923.059 313.997L922.224 311.746C922.204 311.688 922.172 311.591 922.126 311.458C922.084 311.325 922.04 311.186 921.994 311.043C921.949 310.9 921.911 310.784 921.882 310.696C921.849 310.83 921.813 310.963 921.774 311.097C921.739 311.227 921.703 311.349 921.667 311.463C921.631 311.574 921.6 311.668 921.574 311.746L920.725 313.997H923.059ZM931.706 313.362C931.706 314.166 931.56 314.839 931.267 315.379C930.974 315.916 930.549 316.321 929.992 316.595C929.439 316.865 928.767 317 927.976 317H926.037V309.861H928.19C928.916 309.861 929.541 309.995 930.065 310.262C930.59 310.525 930.993 310.918 931.276 311.438C931.563 311.956 931.706 312.597 931.706 313.362ZM930.832 313.392C930.832 312.75 930.725 312.221 930.51 311.805C930.298 311.388 929.986 311.079 929.572 310.877C929.162 310.672 928.659 310.569 928.063 310.569H926.867V316.287H927.878C928.861 316.287 929.598 316.045 930.09 315.56C930.585 315.075 930.832 314.352 930.832 313.392ZM937.771 317L936.892 314.734H934.03L933.156 317H932.316L935.109 309.832H935.856L938.63 317H937.771ZM936.643 313.997L935.808 311.746C935.788 311.688 935.756 311.591 935.71 311.458C935.668 311.325 935.624 311.186 935.578 311.043C935.533 310.9 935.495 310.784 935.466 310.696C935.433 310.83 935.397 310.963 935.358 311.097C935.323 311.227 935.287 311.349 935.251 311.463C935.215 311.574 935.184 311.668 935.158 311.746L934.309 313.997H936.643ZM943.649 315.101C943.649 315.524 943.544 315.885 943.332 316.185C943.124 316.481 942.831 316.707 942.453 316.863C942.076 317.02 941.631 317.098 941.12 317.098C940.85 317.098 940.594 317.085 940.354 317.059C940.113 317.033 939.891 316.995 939.689 316.946C939.488 316.897 939.31 316.837 939.157 316.766V315.97C939.401 316.071 939.699 316.165 940.051 316.253C940.402 316.338 940.77 316.38 941.154 316.38C941.512 316.38 941.815 316.333 942.062 316.238C942.31 316.141 942.497 316.002 942.624 315.823C942.754 315.641 942.819 315.423 942.819 315.169C942.819 314.925 942.766 314.721 942.658 314.559C942.551 314.393 942.372 314.243 942.121 314.109C941.874 313.973 941.535 313.828 941.105 313.675C940.803 313.567 940.536 313.45 940.305 313.323C940.074 313.193 939.88 313.047 939.724 312.884C939.567 312.721 939.449 312.532 939.367 312.317C939.289 312.103 939.25 311.857 939.25 311.58C939.25 311.199 939.346 310.874 939.538 310.604C939.733 310.33 940.002 310.122 940.344 309.979C940.689 309.832 941.084 309.759 941.53 309.759C941.911 309.759 942.263 309.795 942.585 309.866C942.91 309.938 943.208 310.034 943.479 310.154L943.22 310.867C942.963 310.76 942.689 310.67 942.399 310.599C942.113 310.527 941.817 310.491 941.511 310.491C941.205 310.491 940.946 310.537 940.734 310.628C940.526 310.716 940.367 310.841 940.256 311.004C940.145 311.167 940.09 311.36 940.09 311.585C940.09 311.836 940.142 312.044 940.246 312.21C940.354 312.376 940.523 312.524 940.754 312.654C940.988 312.781 941.298 312.915 941.682 313.055C942.102 313.208 942.458 313.37 942.751 313.543C943.044 313.712 943.267 313.921 943.42 314.168C943.573 314.412 943.649 314.723 943.649 315.101ZM947.302 317H946.467V310.594H944.221V309.861H949.538V310.594H947.302V317ZM952.546 309.861C953.132 309.861 953.615 309.935 953.996 310.081C954.38 310.224 954.667 310.444 954.855 310.74C955.044 311.036 955.139 311.414 955.139 311.873C955.139 312.251 955.07 312.566 954.934 312.82C954.797 313.071 954.618 313.274 954.396 313.431C954.175 313.587 953.939 313.707 953.688 313.792L955.646 317H954.68L952.932 314.021H951.447V317H950.617V309.861H952.546ZM952.497 310.579H951.447V313.318H952.58C953.163 313.318 953.591 313.2 953.864 312.962C954.141 312.724 954.279 312.374 954.279 311.912C954.279 311.427 954.133 311.084 953.84 310.882C953.55 310.68 953.103 310.579 952.497 310.579ZM961.267 317L960.388 314.734H957.526L956.652 317H955.812L958.605 309.832H959.353L962.126 317H961.267ZM960.139 313.997L959.304 311.746C959.284 311.688 959.252 311.591 959.206 311.458C959.164 311.325 959.12 311.186 959.074 311.043C959.029 310.9 958.991 310.784 958.962 310.696C958.929 310.83 958.894 310.963 958.854 311.097C958.819 311.227 958.783 311.349 958.747 311.463C958.711 311.574 958.68 311.668 958.654 311.746L957.805 313.997H960.139ZM968.786 313.362C968.786 314.166 968.64 314.839 968.347 315.379C968.054 315.916 967.629 316.321 967.072 316.595C966.519 316.865 965.847 317 965.056 317H963.117V309.861H965.271C965.996 309.861 966.621 309.995 967.146 310.262C967.67 310.525 968.073 310.918 968.356 311.438C968.643 311.956 968.786 312.597 968.786 313.362ZM967.912 313.392C967.912 312.75 967.805 312.221 967.59 311.805C967.378 311.388 967.066 311.079 966.652 310.877C966.242 310.672 965.739 310.569 965.144 310.569H963.947V316.287H964.958C965.941 316.287 966.678 316.045 967.17 315.56C967.665 315.075 967.912 314.352 967.912 313.392ZM976.564 313.421C976.564 313.971 976.494 314.472 976.354 314.925C976.215 315.374 976.006 315.761 975.729 316.087C975.456 316.409 975.116 316.658 974.709 316.834C974.302 317.01 973.83 317.098 973.293 317.098C972.74 317.098 972.256 317.01 971.843 316.834C971.433 316.658 971.091 316.408 970.817 316.082C970.547 315.757 970.344 315.368 970.207 314.915C970.074 314.463 970.007 313.961 970.007 313.411C970.007 312.682 970.127 312.042 970.368 311.492C970.609 310.942 970.974 310.514 971.462 310.208C971.953 309.902 972.569 309.749 973.308 309.749C974.014 309.749 974.608 309.9 975.09 310.203C975.575 310.506 975.941 310.932 976.188 311.482C976.439 312.029 976.564 312.675 976.564 313.421ZM970.881 313.421C970.881 314.026 970.967 314.55 971.14 314.993C971.312 315.436 971.576 315.778 971.931 316.019C972.289 316.259 972.743 316.38 973.293 316.38C973.846 316.38 974.299 316.259 974.65 316.019C975.005 315.778 975.267 315.436 975.437 314.993C975.606 314.55 975.69 314.026 975.69 313.421C975.69 312.5 975.497 311.78 975.109 311.263C974.725 310.742 974.125 310.481 973.308 310.481C972.754 310.481 972.299 310.6 971.94 310.838C971.582 311.076 971.315 311.414 971.14 311.854C970.967 312.29 970.881 312.812 970.881 313.421ZM982.185 315.101C982.185 315.524 982.079 315.885 981.867 316.185C981.659 316.481 981.366 316.707 980.988 316.863C980.611 317.02 980.166 317.098 979.655 317.098C979.385 317.098 979.13 317.085 978.889 317.059C978.648 317.033 978.426 316.995 978.225 316.946C978.023 316.897 977.845 316.837 977.692 316.766V315.97C977.937 316.071 978.234 316.165 978.586 316.253C978.938 316.338 979.305 316.38 979.689 316.38C980.048 316.38 980.35 316.333 980.598 316.238C980.845 316.141 981.032 316.002 981.159 315.823C981.289 315.641 981.354 315.423 981.354 315.169C981.354 314.925 981.301 314.721 981.193 314.559C981.086 314.393 980.907 314.243 980.656 314.109C980.409 313.973 980.07 313.828 979.641 313.675C979.338 313.567 979.071 313.45 978.84 313.323C978.609 313.193 978.415 313.047 978.259 312.884C978.103 312.721 977.984 312.532 977.902 312.317C977.824 312.103 977.785 311.857 977.785 311.58C977.785 311.199 977.881 310.874 978.073 310.604C978.269 310.33 978.537 310.122 978.879 309.979C979.224 309.832 979.619 309.759 980.065 309.759C980.446 309.759 980.798 309.795 981.12 309.866C981.446 309.938 981.743 310.034 982.014 310.154L981.755 310.867C981.498 310.76 981.224 310.67 980.935 310.599C980.648 310.527 980.352 310.491 980.046 310.491C979.74 310.491 979.481 310.537 979.27 310.628C979.061 310.716 978.902 310.841 978.791 311.004C978.68 311.167 978.625 311.36 978.625 311.585C978.625 311.836 978.677 312.044 978.781 312.21C978.889 312.376 979.058 312.524 979.289 312.654C979.523 312.781 979.833 312.915 980.217 313.055C980.637 313.208 980.993 313.37 981.286 313.543C981.579 313.712 981.802 313.921 981.955 314.168C982.108 314.412 982.185 314.723 982.185 315.101Z" fill="#4D505C"/>
<path fill-rule="evenodd" clip-rule="evenodd" d="M216.337 95.4665C218.54 97.1836 219.626 99.5582 219.665 102.293C219.691 104.103 219.372 105.882 218.552 107.446C218.139 108.148 217.619 108.802 216.976 109.389C214.899 111.285 212.111 111.957 209.265 111.998C206.418 112.039 203.613 111.447 201.482 109.611C200.54 108.8 199.845 107.847 199.354 106.805C198.303 106.868 197.225 106.564 196.331 105.868L196.33 105.867C194.127 104.15 193.041 101.775 193.001 99.0407C192.975 97.2303 193.295 95.4505 194.115 93.887C194.527 93.1849 195.048 92.5313 195.691 91.9441C197.768 90.0481 200.555 89.376 203.402 89.3353C206.248 89.2946 209.054 89.8868 211.185 91.7226C212.126 92.5332 212.821 93.486 213.312 94.5279C214.364 94.4651 215.441 94.7694 216.335 95.4656L216.337 95.4665ZM197.782 98.9077C197.782 100.175 198.18 101.062 199.074 101.785C199.475 102.109 199.538 102.701 199.214 103.104C198.89 103.507 198.302 103.57 197.9 103.245C196.563 102.162 195.913 100.744 195.913 98.9077C195.913 94.4564 198.433 92.1993 203.405 92.1993C208.378 92.1993 210.898 94.4564 210.898 98.9077C210.898 100.749 210.248 102.168 208.91 103.246C208.738 103.384 208.531 103.452 208.325 103.452C208.053 103.452 207.781 103.332 207.597 103.101C207.273 102.697 207.338 102.106 207.74 101.783C208.632 101.064 209.03 100.177 209.03 98.9077C209.03 96.5174 208.362 94.0747 203.406 94.0747C198.45 94.0747 197.782 96.5184 197.782 98.9077ZM213.172 98.1744C213.496 97.7721 214.084 97.7074 214.486 98.0337V98.0328C215.822 99.1158 216.473 100.534 216.473 102.37C216.473 106.821 213.952 109.078 208.98 109.078C204.007 109.078 201.487 106.821 201.487 102.37C201.487 100.528 202.137 99.1093 203.475 98.0318C203.877 97.7074 204.466 97.7712 204.789 98.1762C205.113 98.5804 205.048 99.1712 204.645 99.4947C203.754 100.213 203.356 101.1 203.356 102.37C203.356 104.76 204.024 107.203 208.98 107.203C213.935 107.203 214.604 104.759 214.604 102.37C214.604 101.103 214.205 100.216 213.312 99.4928C212.911 99.1683 212.848 98.5776 213.172 98.1744Z" fill="#2C46B1"/>
<path d="M234.051 96.8267C234.922 96.8267 235.7 97.0507 236.384 97.4987C237.081 97.9342 237.628 98.5378 238.027 99.3093C238.437 100.081 238.643 100.977 238.643 101.997C238.643 103.018 238.437 103.92 238.027 104.704C237.628 105.476 237.087 106.085 236.403 106.533C235.731 106.969 234.972 107.187 234.125 107.187C233.628 107.187 233.161 107.106 232.725 106.944C232.29 106.782 231.904 106.577 231.568 106.328C231.244 106.079 230.989 105.83 230.803 105.581C230.628 105.32 230.541 105.102 230.541 104.928L231.12 104.685V106.048C231.12 106.372 231.014 106.645 230.803 106.869C230.591 107.081 230.324 107.187 230 107.187C229.676 107.187 229.409 107.081 229.197 106.869C228.986 106.658 228.88 106.384 228.88 106.048V94.3253C228.88 94.0018 228.986 93.7342 229.197 93.5227C229.409 93.2987 229.676 93.1867 230 93.1867C230.324 93.1867 230.591 93.2987 230.803 93.5227C231.014 93.7342 231.12 94.0018 231.12 94.3253V99.0667L230.803 98.8987C230.803 98.7369 230.89 98.544 231.064 98.32C231.238 98.0836 231.475 97.8533 231.773 97.6293C232.072 97.3929 232.414 97.2 232.8 97.0507C233.198 96.9013 233.615 96.8267 234.051 96.8267ZM233.771 98.88C233.223 98.88 232.744 99.0169 232.333 99.2907C231.923 99.5644 231.599 99.9378 231.363 100.411C231.139 100.871 231.027 101.4 231.027 101.997C231.027 102.582 231.139 103.117 231.363 103.603C231.599 104.076 231.923 104.449 232.333 104.723C232.744 104.996 233.223 105.133 233.771 105.133C234.318 105.133 234.791 104.996 235.189 104.723C235.6 104.449 235.917 104.076 236.141 103.603C236.378 103.117 236.496 102.582 236.496 101.997C236.496 101.4 236.378 100.871 236.141 100.411C235.917 99.9378 235.6 99.5644 235.189 99.2907C234.791 99.0169 234.318 98.88 233.771 98.88ZM241.721 107C241.398 107 241.13 106.894 240.919 106.683C240.707 106.459 240.601 106.185 240.601 105.861V98.152C240.601 97.8284 240.707 97.5609 240.919 97.3493C241.13 97.1253 241.398 97.0133 241.721 97.0133C242.045 97.0133 242.312 97.1253 242.524 97.3493C242.736 97.5609 242.841 97.8284 242.841 98.152V99.9067L242.711 98.656C242.848 98.3573 243.022 98.096 243.233 97.872C243.457 97.6356 243.706 97.4427 243.98 97.2933C244.254 97.1316 244.546 97.0133 244.857 96.9387C245.168 96.864 245.48 96.8267 245.791 96.8267C246.164 96.8267 246.475 96.9324 246.724 97.144C246.985 97.3556 247.116 97.6044 247.116 97.8907C247.116 98.3013 247.01 98.6 246.799 98.7867C246.587 98.9609 246.357 99.048 246.108 99.048C245.872 99.048 245.654 99.0044 245.455 98.9173C245.268 98.8302 245.05 98.7867 244.801 98.7867C244.577 98.7867 244.347 98.8427 244.111 98.9547C243.887 99.0542 243.675 99.216 243.476 99.44C243.289 99.664 243.134 99.944 243.009 100.28C242.897 100.604 242.841 100.989 242.841 101.437V105.861C242.841 106.185 242.736 106.459 242.524 106.683C242.312 106.894 242.045 107 241.721 107ZM252.98 107.187C251.922 107.187 251.001 106.969 250.217 106.533C249.446 106.085 248.848 105.482 248.425 104.723C248.015 103.964 247.809 103.105 247.809 102.147C247.809 101.027 248.033 100.075 248.481 99.2907C248.942 98.4942 249.539 97.8844 250.273 97.4613C251.007 97.0382 251.785 96.8267 252.607 96.8267C253.241 96.8267 253.839 96.9573 254.399 97.2187C254.971 97.48 255.475 97.8409 255.911 98.3013C256.346 98.7493 256.688 99.272 256.937 99.8693C257.199 100.467 257.329 101.101 257.329 101.773C257.317 102.072 257.199 102.315 256.975 102.501C256.751 102.688 256.489 102.781 256.191 102.781H249.06L248.5 100.915H255.351L254.94 101.288V100.784C254.915 100.423 254.784 100.1 254.548 99.8133C254.324 99.5271 254.038 99.3031 253.689 99.1413C253.353 98.9671 252.992 98.88 252.607 98.88C252.233 98.88 251.885 98.9298 251.561 99.0293C251.238 99.1289 250.958 99.2969 250.721 99.5333C250.485 99.7698 250.298 100.087 250.161 100.485C250.024 100.884 249.956 101.388 249.956 101.997C249.956 102.669 250.093 103.242 250.367 103.715C250.653 104.175 251.014 104.53 251.449 104.779C251.897 105.015 252.37 105.133 252.868 105.133C253.328 105.133 253.695 105.096 253.969 105.021C254.243 104.947 254.461 104.86 254.623 104.76C254.797 104.648 254.952 104.555 255.089 104.48C255.313 104.368 255.525 104.312 255.724 104.312C255.998 104.312 256.222 104.405 256.396 104.592C256.583 104.779 256.676 104.996 256.676 105.245C256.676 105.581 256.502 105.886 256.153 106.16C255.83 106.434 255.375 106.676 254.791 106.888C254.206 107.087 253.602 107.187 252.98 107.187ZM259.643 97.0133C259.88 97.0133 260.097 97.0756 260.296 97.2C260.496 97.312 260.645 97.4862 260.744 97.7227L263.488 103.995L263.078 104.181L265.878 97.7413C266.089 97.2436 266.419 97.0071 266.867 97.032C267.178 97.032 267.427 97.1316 267.614 97.3307C267.813 97.5173 267.912 97.7538 267.912 98.04C267.912 98.1271 267.894 98.2204 267.856 98.32C267.832 98.4196 267.8 98.5129 267.763 98.6L264.272 106.291C264.073 106.739 263.756 106.975 263.32 107C263.084 107.037 262.854 106.994 262.63 106.869C262.418 106.745 262.256 106.552 262.144 106.291L258.672 98.6C258.648 98.5378 258.616 98.4569 258.579 98.3573C258.554 98.2578 258.542 98.1396 258.542 98.0027C258.542 97.7787 258.641 97.5609 258.84 97.3493C259.04 97.1253 259.307 97.0133 259.643 97.0133ZM270.666 106.981C270.305 106.981 270.025 106.888 269.826 106.701C269.64 106.502 269.546 106.222 269.546 105.861V105.544C269.546 105.183 269.64 104.909 269.826 104.723C270.025 104.524 270.305 104.424 270.666 104.424H270.909C271.27 104.424 271.544 104.524 271.73 104.723C271.929 104.909 272.029 105.183 272.029 105.544V105.861C272.029 106.222 271.929 106.502 271.73 106.701C271.544 106.888 271.27 106.981 270.909 106.981H270.666ZM276.752 105.861C276.752 106.185 276.64 106.459 276.416 106.683C276.204 106.894 275.937 107 275.613 107C275.302 107 275.041 106.894 274.829 106.683C274.618 106.459 274.512 106.185 274.512 105.861V94.3253C274.512 94.0018 274.618 93.7342 274.829 93.5227C275.053 93.2987 275.327 93.1867 275.651 93.1867C275.974 93.1867 276.236 93.2987 276.435 93.5227C276.646 93.7342 276.752 94.0018 276.752 94.3253V105.861ZM286.494 97.0133C286.817 97.0133 287.085 97.1253 287.296 97.3493C287.508 97.5609 287.614 97.8284 287.614 98.152V106.085C287.614 107.23 287.396 108.139 286.96 108.811C286.537 109.495 285.965 109.987 285.243 110.285C284.521 110.584 283.712 110.733 282.816 110.733C282.418 110.733 281.995 110.702 281.547 110.64C281.099 110.578 280.732 110.484 280.446 110.36C280.072 110.198 279.811 109.993 279.662 109.744C279.525 109.508 279.5 109.252 279.587 108.979C279.699 108.618 279.88 108.369 280.128 108.232C280.377 108.108 280.639 108.095 280.912 108.195C281.112 108.257 281.373 108.35 281.696 108.475C282.02 108.612 282.393 108.68 282.816 108.68C283.389 108.68 283.862 108.599 284.235 108.437C284.621 108.288 284.907 108.027 285.094 107.653C285.293 107.292 285.392 106.795 285.392 106.16V104.909L285.784 105.357C285.573 105.768 285.305 106.11 284.982 106.384C284.671 106.645 284.297 106.844 283.862 106.981C283.426 107.118 282.928 107.187 282.368 107.187C281.709 107.187 281.13 107.037 280.632 106.739C280.147 106.428 279.768 106.004 279.494 105.469C279.22 104.922 279.083 104.3 279.083 103.603V98.152C279.083 97.8284 279.189 97.5609 279.4 97.3493C279.612 97.1253 279.88 97.0133 280.203 97.0133C280.527 97.0133 280.794 97.1253 281.006 97.3493C281.217 97.5609 281.323 97.8284 281.323 98.152V102.931C281.323 103.74 281.497 104.312 281.846 104.648C282.207 104.972 282.704 105.133 283.339 105.133C283.775 105.133 284.142 105.052 284.44 104.891C284.739 104.716 284.969 104.468 285.131 104.144C285.293 103.808 285.374 103.404 285.374 102.931V98.152C285.374 97.8284 285.48 97.5609 285.691 97.3493C285.903 97.1253 286.17 97.0133 286.494 97.0133Z" fill="#2C46B1"/>
</svg>
