<svg width="1366" height="720" viewBox="0 0 1366 720" fill="none" xmlns="http://www.w3.org/2000/svg">
<rect width="1366" height="720" fill="#E4E6EC"/>
<rect x="393" y="194.5" width="580" height="296" rx="8" fill="#F9F9FB"/>
<path fill-rule="evenodd" clip-rule="evenodd" d="M699.065 274.029C702.654 276.826 704.423 280.694 704.487 285.149C704.53 288.098 704.009 290.996 702.673 293.543C702.002 294.687 701.154 295.752 700.106 296.709C696.723 299.797 692.182 300.892 687.545 300.958C682.909 301.025 678.338 300.06 674.867 297.07C673.334 295.749 672.202 294.197 671.402 292.5C669.689 292.602 667.934 292.106 666.477 290.972L666.475 290.971C662.886 288.174 661.118 284.306 661.053 279.851C661.01 276.902 661.531 274.003 662.867 271.456C663.539 270.312 664.386 269.248 665.434 268.291C668.818 265.203 673.358 264.108 677.995 264.042C682.632 263.975 687.202 264.94 690.674 267.93C692.207 269.251 693.339 270.803 694.139 272.5C695.851 272.398 697.607 272.894 699.063 274.028L699.065 274.029ZM668.841 279.635C668.841 281.698 669.489 283.143 670.944 284.321C671.598 284.849 671.701 285.813 671.173 286.47C670.645 287.127 669.687 287.229 669.032 286.699C666.856 284.935 665.796 282.625 665.796 279.635C665.796 272.384 669.9 268.707 678 268.707C686.101 268.707 690.206 272.384 690.206 279.635C690.206 282.635 689.147 284.946 686.967 286.701C686.687 286.927 686.35 287.037 686.015 287.037C685.571 287.037 685.128 286.841 684.828 286.466C684.301 285.807 684.406 284.845 685.062 284.318C686.515 283.148 687.163 281.703 687.163 279.635C687.163 275.741 686.075 271.762 678.002 271.762C669.929 271.762 668.841 275.743 668.841 279.635ZM693.91 278.44C694.438 277.785 695.396 277.679 696.05 278.211V278.209C698.227 279.974 699.287 282.283 699.287 285.274C699.287 292.525 695.181 296.202 687.081 296.202C678.981 296.202 674.875 292.525 674.875 285.274C674.875 282.274 675.935 279.963 678.115 278.208C678.769 277.679 679.728 277.783 680.255 278.443C680.782 279.102 680.677 280.064 680.02 280.591C678.568 281.761 677.92 283.206 677.92 285.274C677.92 289.168 679.008 293.147 687.081 293.147C695.154 293.147 696.242 289.166 696.242 285.274C696.242 283.21 695.594 281.765 694.138 280.588C693.485 280.059 693.382 279.097 693.91 278.44Z" fill="#2C46B1"/>
<path d="M585.746 338.367C587.301 338.367 588.582 338.555 589.59 338.93C590.605 339.305 591.359 339.871 591.852 340.629C592.344 341.387 592.59 342.344 592.59 343.5C592.59 344.281 592.441 344.965 592.145 345.551C591.848 346.137 591.457 346.633 590.973 347.039C590.488 347.445 589.965 347.777 589.402 348.035L594.441 355.5H590.41L586.32 348.926H584.387V355.5H580.754V338.367H585.746ZM585.488 341.344H584.387V345.973H585.559C586.762 345.973 587.621 345.773 588.137 345.375C588.66 344.969 588.922 344.375 588.922 343.594C588.922 342.781 588.641 342.203 588.078 341.859C587.523 341.516 586.66 341.344 585.488 341.344ZM601.719 342.152C602.93 342.152 603.973 342.387 604.848 342.855C605.723 343.316 606.398 343.988 606.875 344.871C607.352 345.754 607.59 346.832 607.59 348.105V349.84H599.141C599.18 350.848 599.48 351.641 600.043 352.219C600.613 352.789 601.402 353.074 602.41 353.074C603.246 353.074 604.012 352.988 604.707 352.816C605.402 352.645 606.117 352.387 606.852 352.043V354.809C606.203 355.129 605.523 355.363 604.812 355.512C604.109 355.66 603.254 355.734 602.246 355.734C600.934 355.734 599.77 355.492 598.754 355.008C597.746 354.523 596.953 353.785 596.375 352.793C595.805 351.801 595.52 350.551 595.52 349.043C595.52 347.512 595.777 346.238 596.293 345.223C596.816 344.199 597.543 343.434 598.473 342.926C599.402 342.41 600.484 342.152 601.719 342.152ZM601.742 344.695C601.047 344.695 600.469 344.918 600.008 345.363C599.555 345.809 599.293 346.508 599.223 347.461H604.238C604.23 346.93 604.133 346.457 603.945 346.043C603.766 345.629 603.492 345.301 603.125 345.059C602.766 344.816 602.305 344.695 601.742 344.695ZM614.645 355.734C613.184 355.734 611.992 355.164 611.07 354.023C610.156 352.875 609.699 351.191 609.699 348.973C609.699 346.73 610.164 345.035 611.094 343.887C612.023 342.73 613.238 342.152 614.738 342.152C615.363 342.152 615.914 342.238 616.391 342.41C616.867 342.582 617.277 342.812 617.621 343.102C617.973 343.391 618.27 343.715 618.512 344.074H618.629C618.582 343.824 618.523 343.457 618.453 342.973C618.391 342.48 618.359 341.977 618.359 341.461V337.266H621.945V355.5H619.203L618.512 353.801H618.359C618.133 354.16 617.848 354.488 617.504 354.785C617.168 355.074 616.766 355.305 616.297 355.477C615.828 355.648 615.277 355.734 614.645 355.734ZM615.898 352.887C616.875 352.887 617.562 352.598 617.961 352.02C618.367 351.434 618.582 350.555 618.605 349.383V348.996C618.605 347.723 618.41 346.75 618.02 346.078C617.629 345.398 616.902 345.059 615.84 345.059C615.051 345.059 614.434 345.398 613.988 346.078C613.543 346.758 613.32 347.738 613.32 349.02C613.32 350.301 613.543 351.266 613.988 351.914C614.441 352.562 615.078 352.887 615.898 352.887ZM629.258 342.398V355.5H625.684V342.398H629.258ZM627.477 337.266C628.008 337.266 628.465 337.391 628.848 337.641C629.23 337.883 629.422 338.34 629.422 339.012C629.422 339.676 629.23 340.137 628.848 340.395C628.465 340.645 628.008 340.77 627.477 340.77C626.938 340.77 626.477 340.645 626.094 340.395C625.719 340.137 625.531 339.676 625.531 339.012C625.531 338.34 625.719 337.883 626.094 337.641C626.477 337.391 626.938 337.266 627.477 337.266ZM640.332 342.152C640.512 342.152 640.719 342.164 640.953 342.188C641.195 342.203 641.391 342.227 641.539 342.258L641.27 345.609C641.152 345.57 640.984 345.543 640.766 345.527C640.555 345.504 640.371 345.492 640.215 345.492C639.754 345.492 639.305 345.551 638.867 345.668C638.438 345.785 638.051 345.977 637.707 346.242C637.363 346.5 637.09 346.844 636.887 347.273C636.691 347.695 636.594 348.215 636.594 348.832V355.5H633.02V342.398H635.727L636.254 344.602H636.43C636.688 344.156 637.008 343.75 637.391 343.383C637.781 343.008 638.223 342.711 638.715 342.492C639.215 342.266 639.754 342.152 640.332 342.152ZM649.32 342.152C650.531 342.152 651.574 342.387 652.449 342.855C653.324 343.316 654 343.988 654.477 344.871C654.953 345.754 655.191 346.832 655.191 348.105V349.84H646.742C646.781 350.848 647.082 351.641 647.645 352.219C648.215 352.789 649.004 353.074 650.012 353.074C650.848 353.074 651.613 352.988 652.309 352.816C653.004 352.645 653.719 352.387 654.453 352.043V354.809C653.805 355.129 653.125 355.363 652.414 355.512C651.711 355.66 650.855 355.734 649.848 355.734C648.535 355.734 647.371 355.492 646.355 355.008C645.348 354.523 644.555 353.785 643.977 352.793C643.406 351.801 643.121 350.551 643.121 349.043C643.121 347.512 643.379 346.238 643.895 345.223C644.418 344.199 645.145 343.434 646.074 342.926C647.004 342.41 648.086 342.152 649.32 342.152ZM649.344 344.695C648.648 344.695 648.07 344.918 647.609 345.363C647.156 345.809 646.895 346.508 646.824 347.461H651.84C651.832 346.93 651.734 346.457 651.547 346.043C651.367 345.629 651.094 345.301 650.727 345.059C650.367 344.816 649.906 344.695 649.344 344.695ZM663.418 355.734C662.121 355.734 661.016 355.5 660.102 355.031C659.188 354.555 658.492 353.82 658.016 352.828C657.539 351.836 657.301 350.566 657.301 349.02C657.301 347.418 657.57 346.113 658.109 345.105C658.656 344.09 659.41 343.344 660.371 342.867C661.34 342.391 662.461 342.152 663.734 342.152C664.641 342.152 665.422 342.242 666.078 342.422C666.742 342.594 667.32 342.801 667.812 343.043L666.758 345.809C666.195 345.582 665.672 345.398 665.188 345.258C664.703 345.109 664.219 345.035 663.734 345.035C663.109 345.035 662.59 345.184 662.176 345.48C661.762 345.77 661.453 346.207 661.25 346.793C661.047 347.379 660.945 348.113 660.945 348.996C660.945 349.863 661.055 350.582 661.273 351.152C661.492 351.723 661.809 352.148 662.223 352.43C662.637 352.703 663.141 352.84 663.734 352.84C664.477 352.84 665.137 352.742 665.715 352.547C666.293 352.344 666.855 352.062 667.402 351.703V354.762C666.855 355.105 666.281 355.352 665.68 355.5C665.086 355.656 664.332 355.734 663.418 355.734ZM674.023 342.398V355.5H670.449V342.398H674.023ZM672.242 337.266C672.773 337.266 673.23 337.391 673.613 337.641C673.996 337.883 674.188 338.34 674.188 339.012C674.188 339.676 673.996 340.137 673.613 340.395C673.23 340.645 672.773 340.77 672.242 340.77C671.703 340.77 671.242 340.645 670.859 340.395C670.484 340.137 670.297 339.676 670.297 339.012C670.297 338.34 670.484 337.883 670.859 337.641C671.242 337.391 671.703 337.266 672.242 337.266ZM689.691 348.926C689.691 350.02 689.543 350.988 689.246 351.832C688.957 352.676 688.531 353.391 687.969 353.977C687.414 354.555 686.742 354.992 685.953 355.289C685.172 355.586 684.289 355.734 683.305 355.734C682.383 355.734 681.535 355.586 680.762 355.289C679.996 354.992 679.328 354.555 678.758 353.977C678.195 353.391 677.758 352.676 677.445 351.832C677.141 350.988 676.988 350.02 676.988 348.926C676.988 347.473 677.246 346.242 677.762 345.234C678.277 344.227 679.012 343.461 679.965 342.938C680.918 342.414 682.055 342.152 683.375 342.152C684.602 342.152 685.688 342.414 686.633 342.938C687.586 343.461 688.332 344.227 688.871 345.234C689.418 346.242 689.691 347.473 689.691 348.926ZM680.633 348.926C680.633 349.785 680.727 350.508 680.914 351.094C681.102 351.68 681.395 352.121 681.793 352.418C682.191 352.715 682.711 352.863 683.352 352.863C683.984 352.863 684.496 352.715 684.887 352.418C685.285 352.121 685.574 351.68 685.754 351.094C685.941 350.508 686.035 349.785 686.035 348.926C686.035 348.059 685.941 347.34 685.754 346.77C685.574 346.191 685.285 345.758 684.887 345.469C684.488 345.18 683.969 345.035 683.328 345.035C682.383 345.035 681.695 345.359 681.266 346.008C680.844 346.656 680.633 347.629 680.633 348.926ZM700.086 342.152C701.484 342.152 702.609 342.535 703.461 343.301C704.312 344.059 704.738 345.277 704.738 346.957V355.5H701.164V347.848C701.164 346.91 700.992 346.203 700.648 345.727C700.312 345.25 699.781 345.012 699.055 345.012C697.961 345.012 697.215 345.383 696.816 346.125C696.418 346.867 696.219 347.938 696.219 349.336V355.5H692.645V342.398H695.375L695.855 344.074H696.055C696.336 343.621 696.684 343.254 697.098 342.973C697.52 342.691 697.984 342.484 698.492 342.352C699.008 342.219 699.539 342.152 700.086 342.152ZM713.785 342.129C715.543 342.129 716.891 342.512 717.828 343.277C718.766 344.043 719.234 345.207 719.234 346.77V355.5H716.738L716.047 353.719H715.953C715.578 354.188 715.195 354.57 714.805 354.867C714.414 355.164 713.965 355.383 713.457 355.523C712.949 355.664 712.332 355.734 711.605 355.734C710.832 355.734 710.137 355.586 709.52 355.289C708.91 354.992 708.43 354.539 708.078 353.93C707.727 353.312 707.551 352.531 707.551 351.586C707.551 350.195 708.039 349.172 709.016 348.516C709.992 347.852 711.457 347.484 713.41 347.414L715.684 347.344V346.77C715.684 346.082 715.504 345.578 715.145 345.258C714.785 344.938 714.285 344.777 713.645 344.777C713.012 344.777 712.391 344.867 711.781 345.047C711.172 345.227 710.562 345.453 709.953 345.727L708.77 343.312C709.465 342.945 710.242 342.656 711.102 342.445C711.969 342.234 712.863 342.129 713.785 342.129ZM715.684 349.43L714.301 349.477C713.145 349.508 712.34 349.715 711.887 350.098C711.441 350.48 711.219 350.984 711.219 351.609C711.219 352.156 711.379 352.547 711.699 352.781C712.02 353.008 712.438 353.121 712.953 353.121C713.719 353.121 714.363 352.895 714.887 352.441C715.418 351.988 715.684 351.344 715.684 350.508V349.43ZM730.367 342.152C731.766 342.152 732.891 342.535 733.742 343.301C734.594 344.059 735.02 345.277 735.02 346.957V355.5H731.445V347.848C731.445 346.91 731.273 346.203 730.93 345.727C730.594 345.25 730.062 345.012 729.336 345.012C728.242 345.012 727.496 345.383 727.098 346.125C726.699 346.867 726.5 347.938 726.5 349.336V355.5H722.926V342.398H725.656L726.137 344.074H726.336C726.617 343.621 726.965 343.254 727.379 342.973C727.801 342.691 728.266 342.484 728.773 342.352C729.289 342.219 729.82 342.152 730.367 342.152ZM742.848 355.734C741.387 355.734 740.195 355.164 739.273 354.023C738.359 352.875 737.902 351.191 737.902 348.973C737.902 346.73 738.367 345.035 739.297 343.887C740.227 342.73 741.441 342.152 742.941 342.152C743.566 342.152 744.117 342.238 744.594 342.41C745.07 342.582 745.48 342.812 745.824 343.102C746.176 343.391 746.473 343.715 746.715 344.074H746.832C746.785 343.824 746.727 343.457 746.656 342.973C746.594 342.48 746.562 341.977 746.562 341.461V337.266H750.148V355.5H747.406L746.715 353.801H746.562C746.336 354.16 746.051 354.488 745.707 354.785C745.371 355.074 744.969 355.305 744.5 355.477C744.031 355.648 743.48 355.734 742.848 355.734ZM744.102 352.887C745.078 352.887 745.766 352.598 746.164 352.02C746.57 351.434 746.785 350.555 746.809 349.383V348.996C746.809 347.723 746.613 346.75 746.223 346.078C745.832 345.398 745.105 345.059 744.043 345.059C743.254 345.059 742.637 345.398 742.191 346.078C741.746 346.758 741.523 347.738 741.523 349.02C741.523 350.301 741.746 351.266 742.191 351.914C742.645 352.562 743.281 352.887 744.102 352.887ZM765.793 348.926C765.793 350.02 765.645 350.988 765.348 351.832C765.059 352.676 764.633 353.391 764.07 353.977C763.516 354.555 762.844 354.992 762.055 355.289C761.273 355.586 760.391 355.734 759.406 355.734C758.484 355.734 757.637 355.586 756.863 355.289C756.098 354.992 755.43 354.555 754.859 353.977C754.297 353.391 753.859 352.676 753.547 351.832C753.242 350.988 753.09 350.02 753.09 348.926C753.09 347.473 753.348 346.242 753.863 345.234C754.379 344.227 755.113 343.461 756.066 342.938C757.02 342.414 758.156 342.152 759.477 342.152C760.703 342.152 761.789 342.414 762.734 342.938C763.688 343.461 764.434 344.227 764.973 345.234C765.52 346.242 765.793 347.473 765.793 348.926ZM756.734 348.926C756.734 349.785 756.828 350.508 757.016 351.094C757.203 351.68 757.496 352.121 757.895 352.418C758.293 352.715 758.812 352.863 759.453 352.863C760.086 352.863 760.598 352.715 760.988 352.418C761.387 352.121 761.676 351.68 761.855 351.094C762.043 350.508 762.137 349.785 762.137 348.926C762.137 348.059 762.043 347.34 761.855 346.77C761.676 346.191 761.387 345.758 760.988 345.469C760.59 345.18 760.07 345.035 759.43 345.035C758.484 345.035 757.797 345.359 757.367 346.008C756.945 346.656 756.734 347.629 756.734 348.926ZM768.242 353.824C768.242 353.09 768.441 352.574 768.84 352.277C769.246 351.98 769.734 351.832 770.305 351.832C770.859 351.832 771.336 351.98 771.734 352.277C772.141 352.574 772.344 353.09 772.344 353.824C772.344 354.527 772.141 355.035 771.734 355.348C771.336 355.66 770.859 355.816 770.305 355.816C769.734 355.816 769.246 355.66 768.84 355.348C768.441 355.035 768.242 354.527 768.242 353.824ZM775.086 353.824C775.086 353.09 775.285 352.574 775.684 352.277C776.09 351.98 776.578 351.832 777.148 351.832C777.703 351.832 778.18 351.98 778.578 352.277C778.984 352.574 779.188 353.09 779.188 353.824C779.188 354.527 778.984 355.035 778.578 355.348C778.18 355.66 777.703 355.816 777.148 355.816C776.578 355.816 776.09 355.66 775.684 355.348C775.285 355.035 775.086 354.527 775.086 353.824ZM781.93 353.824C781.93 353.09 782.129 352.574 782.527 352.277C782.934 351.98 783.422 351.832 783.992 351.832C784.547 351.832 785.023 351.98 785.422 352.277C785.828 352.574 786.031 353.09 786.031 353.824C786.031 354.527 785.828 355.035 785.422 355.348C785.023 355.66 784.547 355.816 783.992 355.816C783.422 355.816 782.934 355.66 782.527 355.348C782.129 355.035 781.93 354.527 781.93 353.824Z" fill="#1F2025"/>
<path d="M498.86 395.489C498.86 396.259 498.762 396.961 498.566 397.595C498.375 398.224 498.086 398.766 497.698 399.222C497.311 399.673 496.826 400.021 496.242 400.268C495.659 400.514 494.975 400.637 494.191 400.637C493.394 400.637 492.701 400.514 492.113 400.268C491.53 400.021 491.045 399.671 490.657 399.215C490.274 398.759 489.987 398.215 489.796 397.581C489.604 396.948 489.509 396.246 489.509 395.476C489.509 394.446 489.677 393.548 490.015 392.782C490.356 392.012 490.874 391.415 491.566 390.991C492.264 390.563 493.143 390.349 494.205 390.349C495.244 390.349 496.108 390.561 496.796 390.984C497.484 391.408 497.999 392.005 498.341 392.775C498.687 393.541 498.86 394.446 498.86 395.489ZM491.231 395.489C491.231 396.259 491.336 396.927 491.546 397.492C491.756 398.053 492.077 398.486 492.51 398.791C492.947 399.092 493.508 399.242 494.191 399.242C494.88 399.242 495.44 399.092 495.873 398.791C496.306 398.486 496.625 398.053 496.83 397.492C497.035 396.927 497.138 396.259 497.138 395.489C497.138 394.318 496.903 393.402 496.434 392.741C495.969 392.076 495.226 391.743 494.205 391.743C493.521 391.743 492.959 391.894 492.517 392.194C492.079 392.495 491.756 392.926 491.546 393.486C491.336 394.042 491.231 394.71 491.231 395.489ZM506.093 400.5H504.479V389.863H506.093V400.5ZM509.996 392.933V400.5H508.39V392.933H509.996ZM509.203 390.034C509.449 390.034 509.661 390.1 509.839 390.232C510.021 390.365 510.112 390.592 510.112 390.916C510.112 391.235 510.021 391.463 509.839 391.6C509.661 391.732 509.449 391.798 509.203 391.798C508.948 391.798 508.731 391.732 508.554 391.6C508.381 391.463 508.294 391.235 508.294 390.916C508.294 390.592 508.381 390.365 508.554 390.232C508.731 390.1 508.948 390.034 509.203 390.034ZM516.244 392.789C517.096 392.789 517.759 393.01 518.233 393.452C518.712 393.89 518.951 394.594 518.951 395.564V400.5H517.345V395.865C517.345 395.277 517.224 394.838 516.982 394.546C516.741 394.25 516.367 394.102 515.861 394.102C515.128 394.102 514.617 394.327 514.33 394.778C514.048 395.229 513.906 395.883 513.906 396.74V400.5H512.3V392.933H513.551L513.776 393.958H513.865C514.029 393.694 514.232 393.477 514.474 393.309C514.72 393.135 514.993 393.006 515.294 392.919C515.599 392.832 515.916 392.789 516.244 392.789ZM522.807 389.863V395.004C522.807 395.236 522.798 395.492 522.779 395.77C522.761 396.043 522.743 396.3 522.725 396.542H522.759C522.877 396.382 523.019 396.196 523.183 395.981C523.351 395.767 523.511 395.58 523.661 395.421L525.972 392.933H527.817L524.789 396.187L528.016 400.5H526.129L523.709 397.178L522.807 397.95V400.5H521.2V389.863H522.807ZM537.948 398.34C537.948 398.837 537.827 399.256 537.586 399.598C537.344 399.939 536.991 400.199 536.526 400.377C536.066 400.55 535.501 400.637 534.831 400.637C534.302 400.637 533.847 400.598 533.464 400.521C533.086 400.448 532.728 400.334 532.391 400.179V398.791C532.751 398.96 533.154 399.105 533.601 399.229C534.052 399.352 534.478 399.413 534.879 399.413C535.408 399.413 535.788 399.331 536.021 399.167C536.253 398.998 536.369 398.775 536.369 398.497C536.369 398.333 536.321 398.187 536.226 398.06C536.134 397.927 535.961 397.793 535.706 397.656C535.455 397.515 535.086 397.346 534.599 397.15C534.12 396.959 533.717 396.768 533.389 396.576C533.061 396.385 532.812 396.155 532.644 395.886C532.475 395.612 532.391 395.264 532.391 394.84C532.391 394.17 532.655 393.662 533.184 393.315C533.717 392.965 534.421 392.789 535.296 392.789C535.761 392.789 536.198 392.837 536.608 392.933C537.023 393.024 537.429 393.158 537.825 393.336L537.319 394.546C536.978 394.396 536.633 394.272 536.287 394.177C535.945 394.076 535.597 394.026 535.241 394.026C534.826 394.026 534.51 394.09 534.291 394.218C534.077 394.345 533.97 394.528 533.97 394.765C533.97 394.942 534.022 395.093 534.127 395.216C534.232 395.339 534.412 395.462 534.667 395.585C534.927 395.708 535.287 395.861 535.747 396.043C536.198 396.216 536.588 396.398 536.916 396.59C537.249 396.777 537.504 397.007 537.682 397.28C537.859 397.554 537.948 397.907 537.948 398.34ZM542.699 392.789C543.374 392.789 543.952 392.928 544.436 393.206C544.919 393.484 545.29 393.878 545.55 394.389C545.81 394.899 545.939 395.51 545.939 396.221V397.082H540.888C540.906 397.816 541.102 398.381 541.476 398.777C541.854 399.174 542.382 399.372 543.062 399.372C543.545 399.372 543.978 399.326 544.36 399.235C544.748 399.14 545.146 399.001 545.557 398.818V400.124C545.178 400.302 544.793 400.432 544.401 400.514C544.009 400.596 543.54 400.637 542.993 400.637C542.25 400.637 541.596 400.493 541.031 400.206C540.471 399.914 540.031 399.481 539.712 398.907C539.397 398.333 539.24 397.62 539.24 396.768C539.24 395.92 539.384 395.2 539.671 394.607C539.958 394.015 540.361 393.564 540.881 393.254C541.4 392.944 542.007 392.789 542.699 392.789ZM542.699 393.999C542.193 393.999 541.783 394.163 541.469 394.491C541.159 394.819 540.977 395.3 540.922 395.934H544.367C544.363 395.555 544.299 395.22 544.176 394.929C544.057 394.637 543.875 394.409 543.629 394.245C543.387 394.081 543.077 393.999 542.699 393.999ZM551.586 392.789C551.714 392.789 551.853 392.796 552.003 392.81C552.153 392.823 552.283 392.841 552.393 392.864L552.242 394.368C552.146 394.341 552.028 394.32 551.887 394.307C551.75 394.293 551.627 394.286 551.518 394.286C551.23 394.286 550.957 394.334 550.697 394.43C550.438 394.521 550.207 394.662 550.007 394.854C549.806 395.04 549.649 395.275 549.535 395.558C549.421 395.84 549.364 396.168 549.364 396.542V400.5H547.751V392.933H549.009L549.228 394.266H549.303C549.453 393.997 549.64 393.751 549.863 393.527C550.087 393.304 550.342 393.126 550.629 392.994C550.921 392.857 551.24 392.789 551.586 392.789ZM556.761 392.789C557.718 392.789 558.44 393.001 558.928 393.425C559.42 393.849 559.666 394.509 559.666 395.407V400.5H558.524L558.217 399.427H558.162C557.948 399.7 557.727 399.926 557.499 400.104C557.271 400.281 557.007 400.413 556.706 400.5C556.41 400.591 556.048 400.637 555.619 400.637C555.168 400.637 554.765 400.555 554.409 400.391C554.054 400.222 553.773 399.967 553.568 399.625C553.363 399.283 553.261 398.85 553.261 398.326C553.261 397.547 553.55 396.961 554.129 396.569C554.712 396.177 555.592 395.961 556.768 395.92L558.08 395.872V395.476C558.08 394.951 557.957 394.578 557.711 394.354C557.469 394.131 557.128 394.02 556.686 394.02C556.307 394.02 555.94 394.074 555.585 394.184C555.229 394.293 554.883 394.427 554.546 394.587L554.026 393.452C554.396 393.256 554.815 393.097 555.284 392.974C555.758 392.851 556.25 392.789 556.761 392.789ZM558.073 396.884L557.096 396.918C556.294 396.945 555.731 397.082 555.407 397.328C555.084 397.574 554.922 397.911 554.922 398.34C554.922 398.714 555.034 398.987 555.257 399.16C555.48 399.329 555.774 399.413 556.139 399.413C556.695 399.413 557.155 399.256 557.52 398.941C557.889 398.622 558.073 398.155 558.073 397.54V396.884ZM559.037 389.774V389.911C558.928 390.043 558.78 390.203 558.593 390.39C558.406 390.572 558.203 390.766 557.984 390.971C557.766 391.171 557.549 391.365 557.335 391.552C557.121 391.734 556.927 391.889 556.754 392.017H555.681V391.839C555.831 391.666 555.997 391.458 556.18 391.217C556.367 390.975 556.549 390.727 556.727 390.472C556.909 390.216 557.062 389.984 557.185 389.774H559.037ZM568.519 392.789C569.476 392.789 570.198 393.001 570.686 393.425C571.178 393.849 571.424 394.509 571.424 395.407V400.5H570.282L569.975 399.427H569.92C569.706 399.7 569.485 399.926 569.257 400.104C569.029 400.281 568.765 400.413 568.464 400.5C568.168 400.591 567.805 400.637 567.377 400.637C566.926 400.637 566.522 400.555 566.167 400.391C565.812 400.222 565.531 399.967 565.326 399.625C565.121 399.283 565.019 398.85 565.019 398.326C565.019 397.547 565.308 396.961 565.887 396.569C566.47 396.177 567.35 395.961 568.525 395.92L569.838 395.872V395.476C569.838 394.951 569.715 394.578 569.469 394.354C569.227 394.131 568.885 394.02 568.443 394.02C568.065 394.02 567.698 394.074 567.343 394.184C566.987 394.293 566.641 394.427 566.304 394.587L565.784 393.452C566.153 393.256 566.573 393.097 567.042 392.974C567.516 392.851 568.008 392.789 568.519 392.789ZM569.831 396.884L568.854 396.918C568.051 396.945 567.489 397.082 567.165 397.328C566.841 397.574 566.68 397.911 566.68 398.34C566.68 398.714 566.791 398.987 567.015 399.16C567.238 399.329 567.532 399.413 567.896 399.413C568.452 399.413 568.913 399.256 569.277 398.941C569.646 398.622 569.831 398.155 569.831 397.54V396.884ZM575.279 389.863V392.427C575.279 392.723 575.27 393.015 575.252 393.302C575.238 393.584 575.225 393.805 575.211 393.965H575.279C575.484 393.637 575.769 393.361 576.134 393.138C576.503 392.91 576.975 392.796 577.549 392.796C578.447 392.796 579.169 393.126 579.716 393.787C580.263 394.443 580.536 395.416 580.536 396.706C580.536 397.563 580.411 398.283 580.16 398.866C579.91 399.45 579.556 399.892 579.101 400.192C578.649 400.489 578.118 400.637 577.508 400.637C576.934 400.637 576.469 400.532 576.113 400.322C575.762 400.108 575.487 399.86 575.286 399.577H575.17L574.876 400.5H573.673V389.863H575.279ZM577.125 394.102C576.669 394.102 576.307 394.193 576.038 394.375C575.774 394.557 575.582 394.831 575.464 395.195C575.345 395.555 575.284 396.013 575.279 396.569V396.713C575.279 397.556 575.411 398.201 575.676 398.647C575.945 399.094 576.432 399.317 577.139 399.317C577.699 399.317 578.13 399.092 578.431 398.641C578.731 398.185 578.882 397.533 578.882 396.686C578.882 395.829 578.731 395.184 578.431 394.751C578.134 394.318 577.699 394.102 577.125 394.102ZM585.41 392.789C586.085 392.789 586.663 392.928 587.146 393.206C587.63 393.484 588.001 393.878 588.261 394.389C588.521 394.899 588.65 395.51 588.65 396.221V397.082H583.599C583.617 397.816 583.813 398.381 584.187 398.777C584.565 399.174 585.093 399.372 585.772 399.372C586.256 399.372 586.688 399.326 587.071 399.235C587.459 399.14 587.857 399.001 588.268 398.818V400.124C587.889 400.302 587.504 400.432 587.112 400.514C586.72 400.596 586.251 400.637 585.704 400.637C584.961 400.637 584.307 400.493 583.742 400.206C583.182 399.914 582.742 399.481 582.423 398.907C582.108 398.333 581.951 397.62 581.951 396.768C581.951 395.92 582.095 395.2 582.382 394.607C582.669 394.015 583.072 393.564 583.592 393.254C584.111 392.944 584.717 392.789 585.41 392.789ZM585.41 393.999C584.904 393.999 584.494 394.163 584.18 394.491C583.87 394.819 583.688 395.3 583.633 395.934H587.078C587.074 395.555 587.01 395.22 586.887 394.929C586.768 394.637 586.586 394.409 586.34 394.245C586.098 394.081 585.788 393.999 585.41 393.999ZM594.297 392.789C594.424 392.789 594.563 392.796 594.714 392.81C594.864 392.823 594.994 392.841 595.104 392.864L594.953 394.368C594.857 394.341 594.739 394.32 594.598 394.307C594.461 394.293 594.338 394.286 594.229 394.286C593.941 394.286 593.668 394.334 593.408 394.43C593.148 394.521 592.918 394.662 592.718 394.854C592.517 395.04 592.36 395.275 592.246 395.558C592.132 395.84 592.075 396.168 592.075 396.542V400.5H590.462V392.933H591.72L591.938 394.266H592.014C592.164 393.997 592.351 393.751 592.574 393.527C592.798 393.304 593.053 393.126 593.34 392.994C593.632 392.857 593.951 392.789 594.297 392.789ZM599.321 399.338C599.531 399.338 599.738 399.32 599.943 399.283C600.148 399.242 600.335 399.194 600.504 399.14V400.356C600.326 400.434 600.096 400.5 599.813 400.555C599.531 400.609 599.237 400.637 598.932 400.637C598.503 400.637 598.118 400.566 597.776 400.425C597.435 400.279 597.163 400.031 596.963 399.68C596.762 399.329 596.662 398.843 596.662 398.224V394.156H595.63V393.438L596.737 392.871L597.264 391.251H598.275V392.933H600.442V394.156H598.275V398.203C598.275 398.586 598.371 398.871 598.562 399.058C598.754 399.244 599.007 399.338 599.321 399.338ZM608.741 396.699C608.741 397.328 608.659 397.886 608.495 398.374C608.331 398.862 608.092 399.274 607.777 399.611C607.463 399.944 607.085 400.199 606.643 400.377C606.201 400.55 605.701 400.637 605.146 400.637C604.626 400.637 604.15 400.55 603.717 400.377C603.284 400.199 602.908 399.944 602.589 399.611C602.274 399.274 602.031 398.862 601.857 398.374C601.684 397.886 601.598 397.328 601.598 396.699C601.598 395.865 601.741 395.159 602.028 394.58C602.32 393.997 602.735 393.552 603.272 393.247C603.81 392.942 604.451 392.789 605.193 392.789C605.891 392.789 606.506 392.942 607.039 393.247C607.572 393.552 607.989 393.997 608.29 394.58C608.591 395.163 608.741 395.87 608.741 396.699ZM603.252 396.699C603.252 397.251 603.318 397.722 603.45 398.114C603.587 398.506 603.797 398.807 604.079 399.017C604.362 399.222 604.726 399.324 605.173 399.324C605.619 399.324 605.984 399.222 606.267 399.017C606.549 398.807 606.757 398.506 606.889 398.114C607.021 397.722 607.087 397.251 607.087 396.699C607.087 396.148 607.021 395.681 606.889 395.298C606.757 394.91 606.549 394.617 606.267 394.416C605.984 394.211 605.617 394.108 605.166 394.108C604.501 394.108 604.015 394.332 603.71 394.778C603.405 395.225 603.252 395.865 603.252 396.699ZM617.19 392.789C618.147 392.789 618.87 393.001 619.357 393.425C619.85 393.849 620.096 394.509 620.096 395.407V400.5H618.954L618.646 399.427H618.592C618.378 399.7 618.157 399.926 617.929 400.104C617.701 400.281 617.437 400.413 617.136 400.5C616.84 400.591 616.477 400.637 616.049 400.637C615.598 400.637 615.194 400.555 614.839 400.391C614.483 400.222 614.203 399.967 613.998 399.625C613.793 399.283 613.69 398.85 613.69 398.326C613.69 397.547 613.98 396.961 614.559 396.569C615.142 396.177 616.021 395.961 617.197 395.92L618.51 395.872V395.476C618.51 394.951 618.387 394.578 618.141 394.354C617.899 394.131 617.557 394.02 617.115 394.02C616.737 394.02 616.37 394.074 616.015 394.184C615.659 394.293 615.313 394.427 614.976 394.587L614.456 393.452C614.825 393.256 615.244 393.097 615.714 392.974C616.188 392.851 616.68 392.789 617.19 392.789ZM618.503 396.884L617.525 396.918C616.723 396.945 616.16 397.082 615.837 397.328C615.513 397.574 615.352 397.911 615.352 398.34C615.352 398.714 615.463 398.987 615.687 399.16C615.91 399.329 616.204 399.413 616.568 399.413C617.124 399.413 617.585 399.256 617.949 398.941C618.318 398.622 618.503 398.155 618.503 397.54V396.884ZM628.941 392.933V400.5H627.677L627.458 399.481H627.369C627.21 399.741 627.007 399.958 626.761 400.131C626.515 400.299 626.241 400.425 625.94 400.507C625.64 400.593 625.323 400.637 624.99 400.637C624.421 400.637 623.933 400.541 623.527 400.35C623.126 400.154 622.819 399.853 622.604 399.447C622.39 399.042 622.283 398.518 622.283 397.875V392.933H623.896V397.574C623.896 398.162 624.015 398.602 624.252 398.894C624.493 399.185 624.867 399.331 625.373 399.331C625.861 399.331 626.248 399.231 626.535 399.03C626.822 398.83 627.025 398.534 627.144 398.142C627.267 397.75 627.328 397.269 627.328 396.699V392.933H628.941ZM634.062 399.338C634.271 399.338 634.479 399.32 634.684 399.283C634.889 399.242 635.076 399.194 635.244 399.14V400.356C635.066 400.434 634.836 400.5 634.554 400.555C634.271 400.609 633.977 400.637 633.672 400.637C633.243 400.637 632.858 400.566 632.517 400.425C632.175 400.279 631.904 400.031 631.703 399.68C631.503 399.329 631.402 398.843 631.402 398.224V394.156H630.37V393.438L631.478 392.871L632.004 391.251H633.016V392.933H635.183V394.156H633.016V398.203C633.016 398.586 633.111 398.871 633.303 399.058C633.494 399.244 633.747 399.338 634.062 399.338ZM643.481 396.699C643.481 397.328 643.399 397.886 643.235 398.374C643.071 398.862 642.832 399.274 642.518 399.611C642.203 399.944 641.825 400.199 641.383 400.377C640.941 400.55 640.442 400.637 639.886 400.637C639.366 400.637 638.89 400.55 638.457 400.377C638.024 400.199 637.648 399.944 637.329 399.611C637.015 399.274 636.771 398.862 636.598 398.374C636.424 397.886 636.338 397.328 636.338 396.699C636.338 395.865 636.481 395.159 636.769 394.58C637.06 393.997 637.475 393.552 638.013 393.247C638.55 392.942 639.191 392.789 639.934 392.789C640.631 392.789 641.246 392.942 641.779 393.247C642.312 393.552 642.729 393.997 643.03 394.58C643.331 395.163 643.481 395.87 643.481 396.699ZM637.992 396.699C637.992 397.251 638.058 397.722 638.19 398.114C638.327 398.506 638.537 398.807 638.819 399.017C639.102 399.222 639.466 399.324 639.913 399.324C640.36 399.324 640.724 399.222 641.007 399.017C641.289 398.807 641.497 398.506 641.629 398.114C641.761 397.722 641.827 397.251 641.827 396.699C641.827 396.148 641.761 395.681 641.629 395.298C641.497 394.91 641.289 394.617 641.007 394.416C640.724 394.211 640.357 394.108 639.906 394.108C639.241 394.108 638.756 394.332 638.45 394.778C638.145 395.225 637.992 395.865 637.992 396.699ZM653.879 392.789C654.727 392.789 655.365 393.008 655.793 393.445C656.226 393.883 656.442 394.585 656.442 395.551V400.5H654.836V395.838C654.836 395.264 654.724 394.831 654.501 394.539C654.278 394.247 653.938 394.102 653.482 394.102C652.844 394.102 652.384 394.307 652.102 394.717C651.824 395.122 651.685 395.713 651.685 396.487V400.5H650.078V395.838C650.078 395.455 650.028 395.136 649.928 394.881C649.832 394.621 649.684 394.427 649.483 394.3C649.283 394.168 649.03 394.102 648.725 394.102C648.283 394.102 647.929 394.202 647.665 394.402C647.405 394.603 647.218 394.899 647.104 395.291C646.991 395.678 646.934 396.155 646.934 396.72V400.5H645.327V392.933H646.578L646.804 393.951H646.893C647.048 393.687 647.239 393.47 647.467 393.302C647.699 393.129 647.957 393.001 648.239 392.919C648.522 392.832 648.816 392.789 649.121 392.789C649.686 392.789 650.162 392.889 650.55 393.09C650.937 393.286 651.227 393.587 651.418 393.992H651.541C651.778 393.582 652.108 393.279 652.532 393.083C652.956 392.887 653.405 392.789 653.879 392.789ZM661.651 392.789C662.608 392.789 663.331 393.001 663.818 393.425C664.311 393.849 664.557 394.509 664.557 395.407V400.5H663.415L663.107 399.427H663.053C662.839 399.7 662.618 399.926 662.39 400.104C662.162 400.281 661.897 400.413 661.597 400.5C661.3 400.591 660.938 400.637 660.51 400.637C660.059 400.637 659.655 400.555 659.3 400.391C658.944 400.222 658.664 399.967 658.459 399.625C658.254 399.283 658.151 398.85 658.151 398.326C658.151 397.547 658.441 396.961 659.02 396.569C659.603 396.177 660.482 395.961 661.658 395.92L662.971 395.872V395.476C662.971 394.951 662.848 394.578 662.602 394.354C662.36 394.131 662.018 394.02 661.576 394.02C661.198 394.02 660.831 394.074 660.476 394.184C660.12 394.293 659.774 394.427 659.437 394.587L658.917 393.452C659.286 393.256 659.705 393.097 660.175 392.974C660.649 392.851 661.141 392.789 661.651 392.789ZM662.964 396.884L661.986 396.918C661.184 396.945 660.621 397.082 660.298 397.328C659.974 397.574 659.812 397.911 659.812 398.34C659.812 398.714 659.924 398.987 660.147 399.16C660.371 399.329 660.665 399.413 661.029 399.413C661.585 399.413 662.046 399.256 662.41 398.941C662.779 398.622 662.964 398.155 662.964 397.54V396.884ZM669.622 399.338C669.832 399.338 670.039 399.32 670.244 399.283C670.449 399.242 670.636 399.194 670.805 399.14V400.356C670.627 400.434 670.397 400.5 670.114 400.555C669.832 400.609 669.538 400.637 669.232 400.637C668.804 400.637 668.419 400.566 668.077 400.425C667.735 400.279 667.464 400.031 667.264 399.68C667.063 399.329 666.963 398.843 666.963 398.224V394.156H665.931V393.438L667.038 392.871L667.564 391.251H668.576V392.933H670.743V394.156H668.576V398.203C668.576 398.586 668.672 398.871 668.863 399.058C669.055 399.244 669.308 399.338 669.622 399.338ZM673.949 392.933V400.5H672.343V392.933H673.949ZM673.156 390.034C673.402 390.034 673.614 390.1 673.792 390.232C673.974 390.365 674.065 390.592 674.065 390.916C674.065 391.235 673.974 391.463 673.792 391.6C673.614 391.732 673.402 391.798 673.156 391.798C672.901 391.798 672.685 391.732 672.507 391.6C672.334 391.463 672.247 391.235 672.247 390.916C672.247 390.592 672.334 390.365 672.507 390.232C672.685 390.1 672.901 390.034 673.156 390.034ZM679.302 400.637C678.586 400.637 677.966 400.498 677.442 400.22C676.918 399.942 676.515 399.516 676.232 398.941C675.95 398.367 675.809 397.638 675.809 396.754C675.809 395.833 675.964 395.081 676.273 394.498C676.583 393.915 677.012 393.484 677.559 393.206C678.11 392.928 678.741 392.789 679.452 392.789C679.903 392.789 680.311 392.835 680.676 392.926C681.045 393.012 681.357 393.119 681.612 393.247L681.134 394.532C680.856 394.418 680.571 394.323 680.279 394.245C679.988 394.168 679.707 394.129 679.438 394.129C678.996 394.129 678.627 394.227 678.331 394.423C678.039 394.619 677.821 394.91 677.675 395.298C677.534 395.685 677.463 396.166 677.463 396.74C677.463 397.296 677.536 397.766 677.682 398.148C677.827 398.527 678.044 398.814 678.331 399.01C678.618 399.201 678.971 399.297 679.391 399.297C679.805 399.297 680.177 399.247 680.505 399.146C680.833 399.046 681.143 398.916 681.435 398.757V400.151C681.147 400.315 680.84 400.436 680.512 400.514C680.184 400.596 679.78 400.637 679.302 400.637ZM686.179 392.789C687.136 392.789 687.858 393.001 688.346 393.425C688.838 393.849 689.084 394.509 689.084 395.407V400.5H687.942L687.635 399.427H687.58C687.366 399.7 687.145 399.926 686.917 400.104C686.689 400.281 686.425 400.413 686.124 400.5C685.828 400.591 685.465 400.637 685.037 400.637C684.586 400.637 684.183 400.555 683.827 400.391C683.472 400.222 683.191 399.967 682.986 399.625C682.781 399.283 682.679 398.85 682.679 398.326C682.679 397.547 682.968 396.961 683.547 396.569C684.13 396.177 685.01 395.961 686.186 395.92L687.498 395.872V395.476C687.498 394.951 687.375 394.578 687.129 394.354C686.887 394.131 686.546 394.02 686.104 394.02C685.725 394.02 685.358 394.074 685.003 394.184C684.647 394.293 684.301 394.427 683.964 394.587L683.444 393.452C683.813 393.256 684.233 393.097 684.702 392.974C685.176 392.851 685.668 392.789 686.179 392.789ZM687.491 396.884L686.514 396.918C685.712 396.945 685.149 397.082 684.825 397.328C684.502 397.574 684.34 397.911 684.34 398.34C684.34 398.714 684.451 398.987 684.675 399.16C684.898 399.329 685.192 399.413 685.557 399.413C686.113 399.413 686.573 399.256 686.938 398.941C687.307 398.622 687.491 398.155 687.491 397.54V396.884ZM699.885 392.789C700.732 392.789 701.37 393.008 701.799 393.445C702.232 393.883 702.448 394.585 702.448 395.551V400.5H700.842V395.838C700.842 395.264 700.73 394.831 700.507 394.539C700.284 394.247 699.944 394.102 699.488 394.102C698.85 394.102 698.39 394.307 698.107 394.717C697.829 395.122 697.69 395.713 697.69 396.487V400.5H696.084V395.838C696.084 395.455 696.034 395.136 695.934 394.881C695.838 394.621 695.69 394.427 695.489 394.3C695.289 394.168 695.036 394.102 694.73 394.102C694.288 394.102 693.935 394.202 693.671 394.402C693.411 394.603 693.224 394.899 693.11 395.291C692.996 395.678 692.939 396.155 692.939 396.72V400.5H691.333V392.933H692.584L692.81 393.951H692.898C693.053 393.687 693.245 393.47 693.473 393.302C693.705 393.129 693.963 393.001 694.245 392.919C694.528 392.832 694.822 392.789 695.127 392.789C695.692 392.789 696.168 392.889 696.556 393.09C696.943 393.286 697.232 393.587 697.424 393.992H697.547C697.784 393.582 698.114 393.279 698.538 393.083C698.962 392.887 699.411 392.789 699.885 392.789ZM707.705 392.789C708.38 392.789 708.958 392.928 709.441 393.206C709.924 393.484 710.296 393.878 710.556 394.389C710.815 394.899 710.945 395.51 710.945 396.221V397.082H705.894C705.912 397.816 706.108 398.381 706.481 398.777C706.86 399.174 707.388 399.372 708.067 399.372C708.55 399.372 708.983 399.326 709.366 399.235C709.754 399.14 710.152 399.001 710.562 398.818V400.124C710.184 400.302 709.799 400.432 709.407 400.514C709.015 400.596 708.546 400.637 707.999 400.637C707.256 400.637 706.602 400.493 706.037 400.206C705.477 399.914 705.037 399.481 704.718 398.907C704.403 398.333 704.246 397.62 704.246 396.768C704.246 395.92 704.39 395.2 704.677 394.607C704.964 394.015 705.367 393.564 705.887 393.254C706.406 392.944 707.012 392.789 707.705 392.789ZM707.705 393.999C707.199 393.999 706.789 394.163 706.475 394.491C706.165 394.819 705.982 395.3 705.928 395.934H709.373C709.368 395.555 709.305 395.22 709.182 394.929C709.063 394.637 708.881 394.409 708.635 394.245C708.393 394.081 708.083 393.999 707.705 393.999ZM716.701 392.789C717.553 392.789 718.216 393.01 718.69 393.452C719.169 393.89 719.408 394.594 719.408 395.564V400.5H717.802V395.865C717.802 395.277 717.681 394.838 717.439 394.546C717.198 394.25 716.824 394.102 716.318 394.102C715.585 394.102 715.074 394.327 714.787 394.778C714.505 395.229 714.363 395.883 714.363 396.74V400.5H712.757V392.933H714.008L714.233 393.958H714.322C714.486 393.694 714.689 393.477 714.931 393.309C715.177 393.135 715.45 393.006 715.751 392.919C716.056 392.832 716.373 392.789 716.701 392.789ZM724.474 399.338C724.683 399.338 724.891 399.32 725.096 399.283C725.301 399.242 725.488 399.194 725.656 399.14V400.356C725.479 400.434 725.248 400.5 724.966 400.555C724.683 400.609 724.389 400.637 724.084 400.637C723.656 400.637 723.271 400.566 722.929 400.425C722.587 400.279 722.316 400.031 722.115 399.68C721.915 399.329 721.814 398.843 721.814 398.224V394.156H720.782V393.438L721.89 392.871L722.416 391.251H723.428V392.933H725.595V394.156H723.428V398.203C723.428 398.586 723.523 398.871 723.715 399.058C723.906 399.244 724.159 399.338 724.474 399.338ZM730.209 392.789C730.883 392.789 731.462 392.928 731.945 393.206C732.428 393.484 732.8 393.878 733.06 394.389C733.319 394.899 733.449 395.51 733.449 396.221V397.082H728.397C728.416 397.816 728.612 398.381 728.985 398.777C729.364 399.174 729.892 399.372 730.571 399.372C731.054 399.372 731.487 399.326 731.87 399.235C732.257 399.14 732.656 399.001 733.066 398.818V400.124C732.688 400.302 732.303 400.432 731.911 400.514C731.519 400.596 731.05 400.637 730.503 400.637C729.76 400.637 729.106 400.493 728.541 400.206C727.98 399.914 727.541 399.481 727.222 398.907C726.907 398.333 726.75 397.62 726.75 396.768C726.75 395.92 726.894 395.2 727.181 394.607C727.468 394.015 727.871 393.564 728.391 393.254C728.91 392.944 729.516 392.789 730.209 392.789ZM730.209 393.999C729.703 393.999 729.293 394.163 728.979 394.491C728.669 394.819 728.486 395.3 728.432 395.934H731.877C731.872 395.555 731.809 395.22 731.686 394.929C731.567 394.637 731.385 394.409 731.139 394.245C730.897 394.081 730.587 393.999 730.209 393.999ZM741.912 392.789C742.587 392.789 743.165 392.928 743.648 393.206C744.132 393.484 744.503 393.878 744.763 394.389C745.022 394.899 745.152 395.51 745.152 396.221V397.082H740.101C740.119 397.816 740.315 398.381 740.688 398.777C741.067 399.174 741.595 399.372 742.274 399.372C742.757 399.372 743.19 399.326 743.573 399.235C743.961 399.14 744.359 399.001 744.77 398.818V400.124C744.391 400.302 744.006 400.432 743.614 400.514C743.222 400.596 742.753 400.637 742.206 400.637C741.463 400.637 740.809 400.493 740.244 400.206C739.684 399.914 739.244 399.481 738.925 398.907C738.61 398.333 738.453 397.62 738.453 396.768C738.453 395.92 738.597 395.2 738.884 394.607C739.171 394.015 739.574 393.564 740.094 393.254C740.613 392.944 741.219 392.789 741.912 392.789ZM741.912 393.999C741.406 393.999 740.996 394.163 740.682 394.491C740.372 394.819 740.189 395.3 740.135 395.934H743.58C743.576 395.555 743.512 395.22 743.389 394.929C743.27 394.637 743.088 394.409 742.842 394.245C742.6 394.081 742.29 393.999 741.912 393.999ZM755.516 392.789C756.363 392.789 757.001 393.008 757.43 393.445C757.863 393.883 758.079 394.585 758.079 395.551V400.5H756.473V395.838C756.473 395.264 756.361 394.831 756.138 394.539C755.914 394.247 755.575 394.102 755.119 394.102C754.481 394.102 754.021 394.307 753.738 394.717C753.46 395.122 753.321 395.713 753.321 396.487V400.5H751.715V395.838C751.715 395.455 751.665 395.136 751.564 394.881C751.469 394.621 751.321 394.427 751.12 394.3C750.92 394.168 750.667 394.102 750.361 394.102C749.919 394.102 749.566 394.202 749.302 394.402C749.042 394.603 748.855 394.899 748.741 395.291C748.627 395.678 748.57 396.155 748.57 396.72V400.5H746.964V392.933H748.215L748.44 393.951H748.529C748.684 393.687 748.876 393.47 749.104 393.302C749.336 393.129 749.593 393.001 749.876 392.919C750.159 392.832 750.452 392.789 750.758 392.789C751.323 392.789 751.799 392.889 752.187 393.09C752.574 393.286 752.863 393.587 753.055 393.992H753.178C753.415 393.582 753.745 393.279 754.169 393.083C754.593 392.887 755.042 392.789 755.516 392.789ZM766.925 392.789C767.882 392.789 768.604 393.001 769.092 393.425C769.584 393.849 769.83 394.509 769.83 395.407V400.5H768.688L768.381 399.427H768.326C768.112 399.7 767.891 399.926 767.663 400.104C767.435 400.281 767.171 400.413 766.87 400.5C766.574 400.591 766.212 400.637 765.783 400.637C765.332 400.637 764.929 400.555 764.573 400.391C764.218 400.222 763.938 399.967 763.732 399.625C763.527 399.283 763.425 398.85 763.425 398.326C763.425 397.547 763.714 396.961 764.293 396.569C764.876 396.177 765.756 395.961 766.932 395.92L768.244 395.872V395.476C768.244 394.951 768.121 394.578 767.875 394.354C767.633 394.131 767.292 394.02 766.85 394.02C766.471 394.02 766.104 394.074 765.749 394.184C765.394 394.293 765.047 394.427 764.71 394.587L764.19 393.452C764.56 393.256 764.979 393.097 765.448 392.974C765.922 392.851 766.414 392.789 766.925 392.789ZM768.237 396.884L767.26 396.918C766.458 396.945 765.895 397.082 765.571 397.328C765.248 397.574 765.086 397.911 765.086 398.34C765.086 398.714 765.198 398.987 765.421 399.16C765.644 399.329 765.938 399.413 766.303 399.413C766.859 399.413 767.319 399.256 767.684 398.941C768.053 398.622 768.237 398.155 768.237 397.54V396.884ZM773.692 400.5H772.079V389.863H773.692V400.5ZM778.149 403.863C777.124 403.863 776.338 403.679 775.791 403.31C775.244 402.94 774.971 402.423 774.971 401.758C774.971 401.293 775.117 400.899 775.408 400.575C775.7 400.256 776.117 400.035 776.659 399.912C776.454 399.821 776.276 399.68 776.126 399.488C775.98 399.292 775.907 399.076 775.907 398.839C775.907 398.556 775.987 398.315 776.146 398.114C776.306 397.914 776.545 397.72 776.864 397.533C776.468 397.365 776.149 397.091 775.907 396.713C775.67 396.33 775.552 395.881 775.552 395.366C775.552 394.819 775.668 394.354 775.9 393.972C776.133 393.584 776.472 393.29 776.919 393.09C777.366 392.885 777.906 392.782 778.539 392.782C778.676 392.782 778.824 392.791 778.983 392.81C779.147 392.823 779.298 392.841 779.435 392.864C779.576 392.882 779.683 392.903 779.756 392.926H782.374V393.821L781.089 394.061C781.212 394.234 781.31 394.432 781.383 394.655C781.456 394.874 781.492 395.113 781.492 395.373C781.492 396.157 781.221 396.774 780.679 397.226C780.141 397.672 779.398 397.896 778.45 397.896C778.222 397.886 778.001 397.868 777.787 397.841C777.623 397.941 777.498 398.053 777.411 398.176C777.325 398.294 777.281 398.429 777.281 398.579C777.281 398.702 777.325 398.802 777.411 398.88C777.498 398.953 777.625 399.007 777.794 399.044C777.967 399.08 778.177 399.099 778.423 399.099H779.729C780.558 399.099 781.191 399.274 781.629 399.625C782.066 399.976 782.285 400.491 782.285 401.17C782.285 402.031 781.93 402.694 781.219 403.159C780.508 403.629 779.485 403.863 778.149 403.863ZM778.211 402.735C778.771 402.735 779.243 402.681 779.626 402.571C780.009 402.462 780.298 402.305 780.494 402.1C780.69 401.899 780.788 401.66 780.788 401.382C780.788 401.136 780.727 400.947 780.604 400.814C780.48 400.682 780.296 400.591 780.05 400.541C779.804 400.491 779.498 400.466 779.134 400.466H777.944C777.648 400.466 777.386 400.511 777.158 400.603C776.93 400.698 776.753 400.835 776.625 401.013C776.502 401.19 776.44 401.405 776.44 401.655C776.44 402.002 776.593 402.268 776.898 402.455C777.208 402.642 777.646 402.735 778.211 402.735ZM778.525 396.843C778.995 396.843 779.343 396.715 779.571 396.46C779.799 396.2 779.913 395.836 779.913 395.366C779.913 394.856 779.795 394.473 779.558 394.218C779.325 393.963 778.979 393.835 778.519 393.835C778.067 393.835 777.723 393.965 777.486 394.225C777.254 394.484 777.138 394.869 777.138 395.38C777.138 395.84 777.254 396.2 777.486 396.46C777.723 396.715 778.07 396.843 778.525 396.843ZM790.352 392.933V400.5H789.087L788.868 399.481H788.779C788.62 399.741 788.417 399.958 788.171 400.131C787.925 400.299 787.651 400.425 787.351 400.507C787.05 400.593 786.733 400.637 786.4 400.637C785.831 400.637 785.343 400.541 784.938 400.35C784.536 400.154 784.229 399.853 784.015 399.447C783.8 399.042 783.693 398.518 783.693 397.875V392.933H785.307V397.574C785.307 398.162 785.425 398.602 785.662 398.894C785.904 399.185 786.277 399.331 786.783 399.331C787.271 399.331 787.658 399.231 787.945 399.03C788.232 398.83 788.435 398.534 788.554 398.142C788.677 397.75 788.738 397.269 788.738 396.699V392.933H790.352ZM796.6 392.789C797.452 392.789 798.115 393.01 798.589 393.452C799.067 393.89 799.307 394.594 799.307 395.564V400.5H797.7V395.865C797.7 395.277 797.579 394.838 797.338 394.546C797.096 394.25 796.723 394.102 796.217 394.102C795.483 394.102 794.973 394.327 794.686 394.778C794.403 395.229 794.262 395.883 794.262 396.74V400.5H792.655V392.933H793.906L794.132 393.958H794.221C794.385 393.694 794.588 393.477 794.829 393.309C795.075 393.135 795.349 393.006 795.649 392.919C795.955 392.832 796.271 392.789 796.6 392.789ZM806.642 398.34C806.642 398.837 806.521 399.256 806.279 399.598C806.038 399.939 805.685 400.199 805.22 400.377C804.759 400.55 804.194 400.637 803.524 400.637C802.996 400.637 802.54 400.598 802.157 400.521C801.779 400.448 801.421 400.334 801.084 400.179V398.791C801.444 398.96 801.847 399.105 802.294 399.229C802.745 399.352 803.171 399.413 803.572 399.413C804.101 399.413 804.481 399.331 804.714 399.167C804.946 398.998 805.062 398.775 805.062 398.497C805.062 398.333 805.015 398.187 804.919 398.06C804.828 397.927 804.655 397.793 804.399 397.656C804.149 397.515 803.78 397.346 803.292 397.15C802.813 396.959 802.41 396.768 802.082 396.576C801.754 396.385 801.506 396.155 801.337 395.886C801.168 395.612 801.084 395.264 801.084 394.84C801.084 394.17 801.348 393.662 801.877 393.315C802.41 392.965 803.114 392.789 803.989 392.789C804.454 392.789 804.892 392.837 805.302 392.933C805.716 393.024 806.122 393.158 806.519 393.336L806.013 394.546C805.671 394.396 805.327 394.272 804.98 394.177C804.639 394.076 804.29 394.026 803.935 394.026C803.52 394.026 803.203 394.09 802.984 394.218C802.77 394.345 802.663 394.528 802.663 394.765C802.663 394.942 802.715 395.093 802.82 395.216C802.925 395.339 803.105 395.462 803.36 395.585C803.62 395.708 803.98 395.861 804.44 396.043C804.892 396.216 805.281 396.398 805.609 396.59C805.942 396.777 806.197 397.007 806.375 397.28C806.553 397.554 806.642 397.907 806.642 398.34ZM813.621 392.933V400.5H812.015V392.933H813.621ZM812.828 390.034C813.074 390.034 813.286 390.1 813.464 390.232C813.646 390.365 813.737 390.592 813.737 390.916C813.737 391.235 813.646 391.463 813.464 391.6C813.286 391.732 813.074 391.798 812.828 391.798C812.573 391.798 812.356 391.732 812.179 391.6C812.006 391.463 811.919 391.235 811.919 390.916C811.919 390.592 812.006 390.365 812.179 390.232C812.356 390.1 812.573 390.034 812.828 390.034ZM819.869 392.789C820.721 392.789 821.384 393.01 821.858 393.452C822.337 393.89 822.576 394.594 822.576 395.564V400.5H820.97V395.865C820.97 395.277 820.849 394.838 820.607 394.546C820.366 394.25 819.992 394.102 819.486 394.102C818.753 394.102 818.242 394.327 817.955 394.778C817.673 395.229 817.531 395.883 817.531 396.74V400.5H815.925V392.933H817.176L817.401 393.958H817.49C817.654 393.694 817.857 393.477 818.099 393.309C818.345 393.135 818.618 393.006 818.919 392.919C819.224 392.832 819.541 392.789 819.869 392.789ZM829.911 398.34C829.911 398.837 829.79 399.256 829.549 399.598C829.307 399.939 828.954 400.199 828.489 400.377C828.029 400.55 827.464 400.637 826.794 400.637C826.265 400.637 825.81 400.598 825.427 400.521C825.049 400.448 824.691 400.334 824.354 400.179V398.791C824.714 398.96 825.117 399.105 825.563 399.229C826.015 399.352 826.441 399.413 826.842 399.413C827.37 399.413 827.751 399.331 827.983 399.167C828.216 398.998 828.332 398.775 828.332 398.497C828.332 398.333 828.284 398.187 828.188 398.06C828.097 397.927 827.924 397.793 827.669 397.656C827.418 397.515 827.049 397.346 826.562 397.15C826.083 396.959 825.68 396.768 825.352 396.576C825.023 396.385 824.775 396.155 824.606 395.886C824.438 395.612 824.354 395.264 824.354 394.84C824.354 394.17 824.618 393.662 825.146 393.315C825.68 392.965 826.384 392.789 827.259 392.789C827.724 392.789 828.161 392.837 828.571 392.933C828.986 393.024 829.392 393.158 829.788 393.336L829.282 394.546C828.94 394.396 828.596 394.272 828.25 394.177C827.908 394.076 827.56 394.026 827.204 394.026C826.789 394.026 826.473 394.09 826.254 394.218C826.04 394.345 825.933 394.528 825.933 394.765C825.933 394.942 825.985 395.093 826.09 395.216C826.195 395.339 826.375 395.462 826.63 395.585C826.89 395.708 827.25 395.861 827.71 396.043C828.161 396.216 828.551 396.398 828.879 396.59C829.212 396.777 829.467 397.007 829.645 397.28C829.822 397.554 829.911 397.907 829.911 398.34ZM834.464 399.338C834.674 399.338 834.881 399.32 835.086 399.283C835.291 399.242 835.478 399.194 835.646 399.14V400.356C835.469 400.434 835.239 400.5 834.956 400.555C834.674 400.609 834.38 400.637 834.074 400.637C833.646 400.637 833.261 400.566 832.919 400.425C832.577 400.279 832.306 400.031 832.105 399.68C831.905 399.329 831.805 398.843 831.805 398.224V394.156H830.772V393.438L831.88 392.871L832.406 391.251H833.418V392.933H835.585V394.156H833.418V398.203C833.418 398.586 833.514 398.871 833.705 399.058C833.896 399.244 834.149 399.338 834.464 399.338ZM840.151 392.789C841.108 392.789 841.831 393.001 842.318 393.425C842.811 393.849 843.057 394.509 843.057 395.407V400.5H841.915L841.607 399.427H841.553C841.339 399.7 841.118 399.926 840.89 400.104C840.662 400.281 840.397 400.413 840.097 400.5C839.8 400.591 839.438 400.637 839.01 400.637C838.559 400.637 838.155 400.555 837.8 400.391C837.444 400.222 837.164 399.967 836.959 399.625C836.754 399.283 836.651 398.85 836.651 398.326C836.651 397.547 836.941 396.961 837.52 396.569C838.103 396.177 838.982 395.961 840.158 395.92L841.471 395.872V395.476C841.471 394.951 841.348 394.578 841.102 394.354C840.86 394.131 840.518 394.02 840.076 394.02C839.698 394.02 839.331 394.074 838.976 394.184C838.62 394.293 838.274 394.427 837.937 394.587L837.417 393.452C837.786 393.256 838.205 393.097 838.675 392.974C839.149 392.851 839.641 392.789 840.151 392.789ZM841.464 396.884L840.486 396.918C839.684 396.945 839.121 397.082 838.798 397.328C838.474 397.574 838.312 397.911 838.312 398.34C838.312 398.714 838.424 398.987 838.647 399.16C838.871 399.329 839.165 399.413 839.529 399.413C840.085 399.413 840.546 399.256 840.91 398.941C841.279 398.622 841.464 398.155 841.464 397.54V396.884ZM849.25 392.789C850.102 392.789 850.765 393.01 851.239 393.452C851.718 393.89 851.957 394.594 851.957 395.564V400.5H850.351V395.865C850.351 395.277 850.23 394.838 849.988 394.546C849.747 394.25 849.373 394.102 848.867 394.102C848.133 394.102 847.623 394.327 847.336 394.778C847.053 395.229 846.912 395.883 846.912 396.74V400.5H845.306V392.933H846.557L846.782 393.958H846.871C847.035 393.694 847.238 393.477 847.479 393.309C847.726 393.135 847.999 393.006 848.3 392.919C848.605 392.832 848.922 392.789 849.25 392.789ZM857.022 399.338C857.232 399.338 857.439 399.32 857.645 399.283C857.85 399.242 858.036 399.194 858.205 399.14V400.356C858.027 400.434 857.797 400.5 857.515 400.555C857.232 400.609 856.938 400.637 856.633 400.637C856.204 400.637 855.819 400.566 855.478 400.425C855.136 400.279 854.865 400.031 854.664 399.68C854.464 399.329 854.363 398.843 854.363 398.224V394.156H853.331V393.438L854.438 392.871L854.965 391.251H855.977V392.933H858.144V394.156H855.977V398.203C855.977 398.586 856.072 398.871 856.264 399.058C856.455 399.244 856.708 399.338 857.022 399.338ZM862.758 392.789C863.432 392.789 864.011 392.928 864.494 393.206C864.977 393.484 865.349 393.878 865.608 394.389C865.868 394.899 865.998 395.51 865.998 396.221V397.082H860.946C860.965 397.816 861.16 398.381 861.534 398.777C861.912 399.174 862.441 399.372 863.12 399.372C863.603 399.372 864.036 399.326 864.419 399.235C864.806 399.14 865.205 399.001 865.615 398.818V400.124C865.237 400.302 864.852 400.432 864.46 400.514C864.068 400.596 863.599 400.637 863.052 400.637C862.309 400.637 861.655 400.493 861.09 400.206C860.529 399.914 860.09 399.481 859.771 398.907C859.456 398.333 859.299 397.62 859.299 396.768C859.299 395.92 859.442 395.2 859.729 394.607C860.017 394.015 860.42 393.564 860.939 393.254C861.459 392.944 862.065 392.789 862.758 392.789ZM862.758 393.999C862.252 393.999 861.842 394.163 861.527 394.491C861.217 394.819 861.035 395.3 860.98 395.934H864.426C864.421 395.555 864.357 395.22 864.234 394.929C864.116 394.637 863.934 394.409 863.688 394.245C863.446 394.081 863.136 393.999 862.758 393.999ZM872.896 398.34C872.896 398.837 872.775 399.256 872.533 399.598C872.292 399.939 871.938 400.199 871.474 400.377C871.013 400.55 870.448 400.637 869.778 400.637C869.25 400.637 868.794 400.598 868.411 400.521C868.033 400.448 867.675 400.334 867.338 400.179V398.791C867.698 398.96 868.101 399.105 868.548 399.229C868.999 399.352 869.425 399.413 869.826 399.413C870.355 399.413 870.735 399.331 870.968 399.167C871.2 398.998 871.316 398.775 871.316 398.497C871.316 398.333 871.269 398.187 871.173 398.06C871.082 397.927 870.909 397.793 870.653 397.656C870.403 397.515 870.034 397.346 869.546 397.15C869.067 396.959 868.664 396.768 868.336 396.576C868.008 396.385 867.759 396.155 867.591 395.886C867.422 395.612 867.338 395.264 867.338 394.84C867.338 394.17 867.602 393.662 868.131 393.315C868.664 392.965 869.368 392.789 870.243 392.789C870.708 392.789 871.146 392.837 871.556 392.933C871.97 393.024 872.376 393.158 872.772 393.336L872.267 394.546C871.925 394.396 871.581 394.272 871.234 394.177C870.893 394.076 870.544 394.026 870.188 394.026C869.774 394.026 869.457 394.09 869.238 394.218C869.024 394.345 868.917 394.528 868.917 394.765C868.917 394.942 868.969 395.093 869.074 395.216C869.179 395.339 869.359 395.462 869.614 395.585C869.874 395.708 870.234 395.861 870.694 396.043C871.146 396.216 871.535 396.398 871.863 396.59C872.196 396.777 872.451 397.007 872.629 397.28C872.807 397.554 872.896 397.907 872.896 398.34ZM874.399 399.652C874.399 399.279 874.495 399.017 874.687 398.866C874.882 398.711 875.119 398.634 875.397 398.634C875.675 398.634 875.912 398.711 876.108 398.866C876.309 399.017 876.409 399.279 876.409 399.652C876.409 400.017 876.309 400.281 876.108 400.445C875.912 400.605 875.675 400.685 875.397 400.685C875.119 400.685 874.882 400.605 874.687 400.445C874.495 400.281 874.399 400.017 874.399 399.652Z" fill="#4D505C"/>
<path d="M574.514 422.5H572.497L567.603 414.522H567.541C567.559 414.791 567.575 415.076 567.589 415.377C567.607 415.678 567.621 415.988 567.63 416.307C567.644 416.626 567.655 416.949 567.664 417.277V422.5H566.174V412.506H568.177L573.064 420.429H573.112C573.103 420.196 573.092 419.93 573.078 419.629C573.064 419.328 573.051 419.018 573.037 418.699C573.028 418.376 573.021 418.063 573.017 417.763V412.506H574.514V422.5ZM579.941 414.789C580.898 414.789 581.621 415.001 582.108 415.425C582.601 415.849 582.847 416.509 582.847 417.407V422.5H581.705L581.397 421.427H581.343C581.129 421.7 580.908 421.926 580.68 422.104C580.452 422.281 580.188 422.413 579.887 422.5C579.59 422.591 579.228 422.637 578.8 422.637C578.349 422.637 577.945 422.555 577.59 422.391C577.234 422.222 576.954 421.967 576.749 421.625C576.544 421.283 576.441 420.85 576.441 420.326C576.441 419.547 576.731 418.961 577.31 418.569C577.893 418.177 578.772 417.961 579.948 417.92L581.261 417.872V417.476C581.261 416.951 581.138 416.578 580.892 416.354C580.65 416.131 580.308 416.02 579.866 416.02C579.488 416.02 579.121 416.074 578.766 416.184C578.41 416.293 578.064 416.427 577.727 416.587L577.207 415.452C577.576 415.256 577.995 415.097 578.465 414.974C578.939 414.851 579.431 414.789 579.941 414.789ZM581.254 418.884L580.276 418.918C579.474 418.945 578.911 419.082 578.588 419.328C578.264 419.574 578.103 419.911 578.103 420.34C578.103 420.714 578.214 420.987 578.438 421.16C578.661 421.329 578.955 421.413 579.319 421.413C579.875 421.413 580.336 421.256 580.7 420.941C581.069 420.622 581.254 420.155 581.254 419.54V418.884ZM577.173 414.01C577.2 413.691 577.259 413.413 577.351 413.176C577.442 412.934 577.56 412.734 577.706 412.574C577.856 412.41 578.027 412.287 578.219 412.205C578.415 412.123 578.627 412.082 578.854 412.082C579.055 412.082 579.246 412.121 579.429 412.198C579.616 412.276 579.796 412.367 579.969 412.472C580.146 412.572 580.317 412.661 580.481 412.738C580.65 412.816 580.812 412.854 580.967 412.854C581.145 412.854 581.295 412.791 581.418 412.663C581.546 412.535 581.641 412.337 581.705 412.068H582.546C582.491 412.697 582.311 413.178 582.006 413.511C581.701 413.839 581.32 414.003 580.864 414.003C580.673 414.003 580.484 413.964 580.297 413.887C580.115 413.805 579.937 413.714 579.764 413.613C579.59 413.513 579.42 413.424 579.251 413.347C579.082 413.269 578.918 413.23 578.759 413.23C578.576 413.23 578.422 413.294 578.294 413.422C578.171 413.549 578.08 413.745 578.021 414.01H577.173ZM591.795 418.699C591.795 419.328 591.713 419.886 591.549 420.374C591.385 420.862 591.146 421.274 590.831 421.611C590.517 421.944 590.138 422.199 589.696 422.377C589.254 422.55 588.755 422.637 588.199 422.637C587.68 422.637 587.203 422.55 586.771 422.377C586.338 422.199 585.962 421.944 585.643 421.611C585.328 421.274 585.084 420.862 584.911 420.374C584.738 419.886 584.651 419.328 584.651 418.699C584.651 417.865 584.795 417.159 585.082 416.58C585.374 415.997 585.788 415.552 586.326 415.247C586.864 414.942 587.504 414.789 588.247 414.789C588.944 414.789 589.56 414.942 590.093 415.247C590.626 415.552 591.043 415.997 591.344 416.58C591.645 417.163 591.795 417.87 591.795 418.699ZM586.306 418.699C586.306 419.251 586.372 419.722 586.504 420.114C586.641 420.506 586.85 420.807 587.133 421.017C587.415 421.222 587.78 421.324 588.227 421.324C588.673 421.324 589.038 421.222 589.32 421.017C589.603 420.807 589.81 420.506 589.942 420.114C590.075 419.722 590.141 419.251 590.141 418.699C590.141 418.148 590.075 417.681 589.942 417.298C589.81 416.91 589.603 416.617 589.32 416.416C589.038 416.211 588.671 416.108 588.22 416.108C587.554 416.108 587.069 416.332 586.764 416.778C586.458 417.225 586.306 417.865 586.306 418.699ZM601.058 416.156H599.219V422.5H597.612V416.156H596.375V415.384L597.612 414.912V414.386C597.612 413.743 597.713 413.233 597.913 412.854C598.118 412.476 598.41 412.205 598.788 412.041C599.171 411.872 599.627 411.788 600.155 411.788C600.502 411.788 600.818 411.818 601.105 411.877C601.393 411.932 601.634 411.995 601.83 412.068L601.413 413.285C601.258 413.235 601.085 413.189 600.894 413.148C600.702 413.103 600.497 413.08 600.278 413.08C599.914 413.08 599.645 413.194 599.472 413.422C599.303 413.65 599.219 413.982 599.219 414.42V414.933H601.058V416.156ZM609.049 418.699C609.049 419.328 608.967 419.886 608.803 420.374C608.639 420.862 608.399 421.274 608.085 421.611C607.771 421.944 607.392 422.199 606.95 422.377C606.508 422.55 606.009 422.637 605.453 422.637C604.934 422.637 604.457 422.55 604.024 422.377C603.591 422.199 603.215 421.944 602.896 421.611C602.582 421.274 602.338 420.862 602.165 420.374C601.992 419.886 601.905 419.328 601.905 418.699C601.905 417.865 602.049 417.159 602.336 416.58C602.628 415.997 603.042 415.552 603.58 415.247C604.118 414.942 604.758 414.789 605.501 414.789C606.198 414.789 606.813 414.942 607.347 415.247C607.88 415.552 608.297 415.997 608.598 416.58C608.898 417.163 609.049 417.87 609.049 418.699ZM603.56 418.699C603.56 419.251 603.626 419.722 603.758 420.114C603.895 420.506 604.104 420.807 604.387 421.017C604.669 421.222 605.034 421.324 605.48 421.324C605.927 421.324 606.292 421.222 606.574 421.017C606.857 420.807 607.064 420.506 607.196 420.114C607.328 419.722 607.395 419.251 607.395 418.699C607.395 418.148 607.328 417.681 607.196 417.298C607.064 416.91 606.857 416.617 606.574 416.416C606.292 416.211 605.925 416.108 605.474 416.108C604.808 416.108 604.323 416.332 604.018 416.778C603.712 417.225 603.56 417.865 603.56 418.699ZM612.501 414.933V422.5H610.895V414.933H612.501ZM611.708 412.034C611.954 412.034 612.166 412.1 612.344 412.232C612.526 412.365 612.617 412.592 612.617 412.916C612.617 413.235 612.526 413.463 612.344 413.6C612.166 413.732 611.954 413.798 611.708 413.798C611.453 413.798 611.236 413.732 611.059 413.6C610.885 413.463 610.799 413.235 610.799 412.916C610.799 412.592 610.885 412.365 611.059 412.232C611.236 412.1 611.453 412.034 611.708 412.034ZM622.276 414.789C622.404 414.789 622.543 414.796 622.693 414.81C622.844 414.823 622.974 414.841 623.083 414.864L622.933 416.368C622.837 416.341 622.718 416.32 622.577 416.307C622.44 416.293 622.317 416.286 622.208 416.286C621.921 416.286 621.647 416.334 621.388 416.43C621.128 416.521 620.898 416.662 620.697 416.854C620.497 417.04 620.34 417.275 620.226 417.558C620.112 417.84 620.055 418.168 620.055 418.542V422.5H618.441V414.933H619.699L619.918 416.266H619.993C620.144 415.997 620.33 415.751 620.554 415.527C620.777 415.304 621.032 415.126 621.319 414.994C621.611 414.857 621.93 414.789 622.276 414.789ZM627.499 414.789C628.174 414.789 628.752 414.928 629.235 415.206C629.718 415.484 630.09 415.878 630.35 416.389C630.609 416.899 630.739 417.51 630.739 418.221V419.082H625.688C625.706 419.816 625.902 420.381 626.275 420.777C626.654 421.174 627.182 421.372 627.861 421.372C628.344 421.372 628.777 421.326 629.16 421.235C629.548 421.14 629.946 421.001 630.356 420.818V422.124C629.978 422.302 629.593 422.432 629.201 422.514C628.809 422.596 628.34 422.637 627.793 422.637C627.05 422.637 626.396 422.493 625.831 422.206C625.271 421.914 624.831 421.481 624.512 420.907C624.197 420.333 624.04 419.62 624.04 418.768C624.04 417.92 624.184 417.2 624.471 416.607C624.758 416.015 625.161 415.564 625.681 415.254C626.2 414.944 626.806 414.789 627.499 414.789ZM627.499 415.999C626.993 415.999 626.583 416.163 626.269 416.491C625.959 416.819 625.776 417.3 625.722 417.934H629.167C629.162 417.555 629.099 417.22 628.976 416.929C628.857 416.637 628.675 416.409 628.429 416.245C628.187 416.081 627.877 415.999 627.499 415.999ZM635.094 422.637C634.191 422.637 633.467 422.309 632.92 421.652C632.378 420.992 632.106 420.019 632.106 418.733C632.106 417.435 632.382 416.452 632.934 415.787C633.49 415.122 634.221 414.789 635.128 414.789C635.511 414.789 635.846 414.841 636.133 414.946C636.42 415.047 636.666 415.183 636.871 415.356C637.081 415.53 637.258 415.723 637.404 415.938H637.479C637.457 415.796 637.429 415.593 637.397 415.329C637.37 415.06 637.356 414.812 637.356 414.584V411.863H638.97V422.5H637.712L637.425 421.468H637.356C637.22 421.687 637.047 421.885 636.837 422.062C636.632 422.236 636.386 422.375 636.099 422.479C635.816 422.584 635.481 422.637 635.094 422.637ZM635.545 421.331C636.233 421.331 636.718 421.133 637.001 420.736C637.284 420.34 637.429 419.745 637.438 418.952V418.74C637.438 417.893 637.302 417.243 637.028 416.792C636.755 416.336 636.256 416.108 635.531 416.108C634.952 416.108 634.51 416.343 634.205 416.812C633.904 417.277 633.754 417.927 633.754 418.761C633.754 419.595 633.904 420.233 634.205 420.675C634.51 421.112 634.957 421.331 635.545 421.331ZM642.88 414.933V422.5H641.273V414.933H642.88ZM642.087 412.034C642.333 412.034 642.545 412.1 642.723 412.232C642.905 412.365 642.996 412.592 642.996 412.916C642.996 413.235 642.905 413.463 642.723 413.6C642.545 413.732 642.333 413.798 642.087 413.798C641.832 413.798 641.615 413.732 641.438 413.6C641.264 413.463 641.178 413.235 641.178 412.916C641.178 412.592 641.264 412.365 641.438 412.232C641.615 412.1 641.832 412.034 642.087 412.034ZM649.019 414.789C649.146 414.789 649.285 414.796 649.436 414.81C649.586 414.823 649.716 414.841 649.825 414.864L649.675 416.368C649.579 416.341 649.461 416.32 649.319 416.307C649.183 416.293 649.06 416.286 648.95 416.286C648.663 416.286 648.39 416.334 648.13 416.43C647.87 416.521 647.64 416.662 647.439 416.854C647.239 417.04 647.082 417.275 646.968 417.558C646.854 417.84 646.797 418.168 646.797 418.542V422.5H645.184V414.933H646.441L646.66 416.266H646.735C646.886 415.997 647.073 415.751 647.296 415.527C647.519 415.304 647.774 415.126 648.062 414.994C648.353 414.857 648.672 414.789 649.019 414.789ZM654.241 414.789C654.916 414.789 655.494 414.928 655.978 415.206C656.461 415.484 656.832 415.878 657.092 416.389C657.352 416.899 657.481 417.51 657.481 418.221V419.082H652.43C652.448 419.816 652.644 420.381 653.018 420.777C653.396 421.174 653.924 421.372 654.604 421.372C655.087 421.372 655.52 421.326 655.902 421.235C656.29 421.14 656.688 421.001 657.099 420.818V422.124C656.72 422.302 656.335 422.432 655.943 422.514C655.551 422.596 655.082 422.637 654.535 422.637C653.792 422.637 653.138 422.493 652.573 422.206C652.013 421.914 651.573 421.481 651.254 420.907C650.939 420.333 650.782 419.62 650.782 418.768C650.782 417.92 650.926 417.2 651.213 416.607C651.5 416.015 651.903 415.564 652.423 415.254C652.942 414.944 653.549 414.789 654.241 414.789ZM654.241 415.999C653.735 415.999 653.325 416.163 653.011 416.491C652.701 416.819 652.519 417.3 652.464 417.934H655.909C655.905 417.555 655.841 417.22 655.718 416.929C655.599 416.637 655.417 416.409 655.171 416.245C654.929 416.081 654.619 415.999 654.241 415.999ZM662.342 422.637C661.626 422.637 661.007 422.498 660.482 422.22C659.958 421.942 659.555 421.516 659.272 420.941C658.99 420.367 658.849 419.638 658.849 418.754C658.849 417.833 659.004 417.081 659.313 416.498C659.623 415.915 660.052 415.484 660.599 415.206C661.15 414.928 661.781 414.789 662.492 414.789C662.943 414.789 663.351 414.835 663.716 414.926C664.085 415.012 664.397 415.119 664.652 415.247L664.174 416.532C663.896 416.418 663.611 416.323 663.319 416.245C663.028 416.168 662.747 416.129 662.479 416.129C662.036 416.129 661.667 416.227 661.371 416.423C661.079 416.619 660.861 416.91 660.715 417.298C660.574 417.685 660.503 418.166 660.503 418.74C660.503 419.296 660.576 419.766 660.722 420.148C660.868 420.527 661.084 420.814 661.371 421.01C661.658 421.201 662.011 421.297 662.431 421.297C662.845 421.297 663.217 421.247 663.545 421.146C663.873 421.046 664.183 420.916 664.475 420.757V422.151C664.188 422.315 663.88 422.436 663.552 422.514C663.224 422.596 662.82 422.637 662.342 422.637ZM667.858 414.933V422.5H666.252V414.933H667.858ZM667.065 412.034C667.312 412.034 667.523 412.1 667.701 412.232C667.883 412.365 667.975 412.592 667.975 412.916C667.975 413.235 667.883 413.463 667.701 413.6C667.523 413.732 667.312 413.798 667.065 413.798C666.81 413.798 666.594 413.732 666.416 413.6C666.243 413.463 666.156 413.235 666.156 412.916C666.156 412.592 666.243 412.365 666.416 412.232C666.594 412.1 666.81 412.034 667.065 412.034ZM676.861 418.699C676.861 419.328 676.779 419.886 676.615 420.374C676.451 420.862 676.212 421.274 675.897 421.611C675.583 421.944 675.205 422.199 674.763 422.377C674.321 422.55 673.822 422.637 673.266 422.637C672.746 422.637 672.27 422.55 671.837 422.377C671.404 422.199 671.028 421.944 670.709 421.611C670.395 421.274 670.151 420.862 669.978 420.374C669.804 419.886 669.718 419.328 669.718 418.699C669.718 417.865 669.861 417.159 670.148 416.58C670.44 415.997 670.855 415.552 671.393 415.247C671.93 414.942 672.571 414.789 673.313 414.789C674.011 414.789 674.626 414.942 675.159 415.247C675.692 415.552 676.109 415.997 676.41 416.58C676.711 417.163 676.861 417.87 676.861 418.699ZM671.372 418.699C671.372 419.251 671.438 419.722 671.57 420.114C671.707 420.506 671.917 420.807 672.199 421.017C672.482 421.222 672.846 421.324 673.293 421.324C673.74 421.324 674.104 421.222 674.387 421.017C674.669 420.807 674.877 420.506 675.009 420.114C675.141 419.722 675.207 419.251 675.207 418.699C675.207 418.148 675.141 417.681 675.009 417.298C674.877 416.91 674.669 416.617 674.387 416.416C674.104 416.211 673.737 416.108 673.286 416.108C672.621 416.108 672.135 416.332 671.83 416.778C671.525 417.225 671.372 417.865 671.372 418.699ZM682.651 414.789C683.504 414.789 684.167 415.01 684.641 415.452C685.119 415.89 685.358 416.594 685.358 417.564V422.5H683.752V417.865C683.752 417.277 683.631 416.838 683.39 416.546C683.148 416.25 682.774 416.102 682.269 416.102C681.535 416.102 681.024 416.327 680.737 416.778C680.455 417.229 680.313 417.883 680.313 418.74V422.5H678.707V414.933H679.958L680.184 415.958H680.272C680.437 415.694 680.639 415.477 680.881 415.309C681.127 415.135 681.4 415.006 681.701 414.919C682.007 414.832 682.323 414.789 682.651 414.789ZM690.574 414.789C691.531 414.789 692.254 415.001 692.741 415.425C693.233 415.849 693.479 416.509 693.479 417.407V422.5H692.338L692.03 421.427H691.976C691.761 421.7 691.54 421.926 691.312 422.104C691.085 422.281 690.82 422.413 690.52 422.5C690.223 422.591 689.861 422.637 689.433 422.637C688.981 422.637 688.578 422.555 688.223 422.391C687.867 422.222 687.587 421.967 687.382 421.625C687.177 421.283 687.074 420.85 687.074 420.326C687.074 419.547 687.364 418.961 687.942 418.569C688.526 418.177 689.405 417.961 690.581 417.92L691.894 417.872V417.476C691.894 416.951 691.771 416.578 691.524 416.354C691.283 416.131 690.941 416.02 690.499 416.02C690.121 416.02 689.754 416.074 689.398 416.184C689.043 416.293 688.697 416.427 688.359 416.587L687.84 415.452C688.209 415.256 688.628 415.097 689.098 414.974C689.572 414.851 690.064 414.789 690.574 414.789ZM691.887 418.884L690.909 418.918C690.107 418.945 689.544 419.082 689.221 419.328C688.897 419.574 688.735 419.911 688.735 420.34C688.735 420.714 688.847 420.987 689.07 421.16C689.294 421.329 689.588 421.413 689.952 421.413C690.508 421.413 690.968 421.256 691.333 420.941C691.702 420.622 691.887 420.155 691.887 419.54V418.884ZM698.271 422.637C697.369 422.637 696.645 422.309 696.098 421.652C695.555 420.992 695.284 420.019 695.284 418.733C695.284 417.435 695.56 416.452 696.111 415.787C696.667 415.122 697.399 414.789 698.306 414.789C698.688 414.789 699.023 414.841 699.311 414.946C699.598 415.047 699.844 415.183 700.049 415.356C700.258 415.53 700.436 415.723 700.582 415.938H700.657C700.634 415.796 700.607 415.593 700.575 415.329C700.548 415.06 700.534 414.812 700.534 414.584V411.863H702.147V422.5H700.89L700.603 421.468H700.534C700.397 421.687 700.224 421.885 700.015 422.062C699.81 422.236 699.563 422.375 699.276 422.479C698.994 422.584 698.659 422.637 698.271 422.637ZM698.723 421.331C699.411 421.331 699.896 421.133 700.179 420.736C700.461 420.34 700.607 419.745 700.616 418.952V418.74C700.616 417.893 700.479 417.243 700.206 416.792C699.933 416.336 699.434 416.108 698.709 416.108C698.13 416.108 697.688 416.343 697.383 416.812C697.082 417.277 696.932 417.927 696.932 418.761C696.932 419.595 697.082 420.233 697.383 420.675C697.688 421.112 698.135 421.331 698.723 421.331ZM711.15 418.699C711.15 419.328 711.068 419.886 710.904 420.374C710.74 420.862 710.501 421.274 710.187 421.611C709.872 421.944 709.494 422.199 709.052 422.377C708.61 422.55 708.111 422.637 707.555 422.637C707.035 422.637 706.559 422.55 706.126 422.377C705.693 422.199 705.317 421.944 704.998 421.611C704.684 421.274 704.44 420.862 704.267 420.374C704.093 419.886 704.007 419.328 704.007 418.699C704.007 417.865 704.15 417.159 704.438 416.58C704.729 415.997 705.144 415.552 705.682 415.247C706.219 414.942 706.86 414.789 707.603 414.789C708.3 414.789 708.915 414.942 709.448 415.247C709.981 415.552 710.398 415.997 710.699 416.58C711 417.163 711.15 417.87 711.15 418.699ZM705.661 418.699C705.661 419.251 705.727 419.722 705.859 420.114C705.996 420.506 706.206 420.807 706.488 421.017C706.771 421.222 707.135 421.324 707.582 421.324C708.029 421.324 708.393 421.222 708.676 421.017C708.958 420.807 709.166 420.506 709.298 420.114C709.43 419.722 709.496 419.251 709.496 418.699C709.496 418.148 709.43 417.681 709.298 417.298C709.166 416.91 708.958 416.617 708.676 416.416C708.393 416.211 708.026 416.108 707.575 416.108C706.91 416.108 706.424 416.332 706.119 416.778C705.814 417.225 705.661 417.865 705.661 418.699ZM713.775 419.451V419.021C713.775 418.683 713.814 418.389 713.892 418.139C713.969 417.888 714.099 417.653 714.281 417.435C714.464 417.211 714.71 416.979 715.02 416.737C715.339 416.487 715.591 416.27 715.778 416.088C715.97 415.906 716.106 415.723 716.188 415.541C716.275 415.354 716.318 415.138 716.318 414.892C716.318 414.504 716.186 414.21 715.922 414.01C715.662 413.805 715.295 413.702 714.821 413.702C714.402 413.702 714.008 413.761 713.639 413.88C713.27 413.998 712.905 414.146 712.545 414.324L711.978 413.121C712.392 412.893 712.841 412.711 713.324 412.574C713.812 412.433 714.347 412.362 714.931 412.362C715.86 412.362 716.578 412.588 717.084 413.039C717.594 413.49 717.85 414.085 717.85 414.823C717.85 415.229 717.786 415.577 717.658 415.869C717.531 416.156 717.341 416.423 717.091 416.669C716.845 416.91 716.546 417.166 716.195 417.435C715.908 417.662 715.687 417.861 715.532 418.029C715.382 418.193 715.277 418.36 715.218 418.528C715.163 418.697 715.136 418.9 715.136 419.137V419.451H713.775ZM713.516 421.652C713.516 421.279 713.611 421.017 713.803 420.866C713.999 420.711 714.238 420.634 714.521 420.634C714.794 420.634 715.029 420.711 715.225 420.866C715.421 421.017 715.519 421.279 715.519 421.652C715.519 422.017 715.421 422.281 715.225 422.445C715.029 422.605 714.794 422.685 714.521 422.685C714.238 422.685 713.999 422.605 713.803 422.445C713.611 422.281 713.516 422.017 713.516 421.652Z" fill="#4D505C"/>
<path d="M729.361 422.5L728.384 419.725H724.562L723.585 422.5H721.855L725.574 412.465H727.393L731.104 422.5H729.361ZM727.96 418.316L727.01 415.582C726.973 415.464 726.921 415.297 726.853 415.083C726.784 414.864 726.716 414.643 726.647 414.42C726.579 414.192 726.522 414.001 726.477 413.846C726.431 414.033 726.374 414.242 726.306 414.475C726.242 414.702 726.178 414.917 726.114 415.117C726.055 415.318 726.009 415.473 725.978 415.582L725.021 418.316H727.96ZM735.309 422.637C734.593 422.637 733.973 422.498 733.449 422.22C732.925 421.942 732.522 421.516 732.239 420.941C731.957 420.367 731.815 419.638 731.815 418.754C731.815 417.833 731.97 417.081 732.28 416.498C732.59 415.915 733.019 415.484 733.565 415.206C734.117 414.928 734.748 414.789 735.459 414.789C735.91 414.789 736.318 414.835 736.683 414.926C737.052 415.012 737.364 415.119 737.619 415.247L737.141 416.532C736.863 416.418 736.578 416.323 736.286 416.245C735.994 416.168 735.714 416.129 735.445 416.129C735.003 416.129 734.634 416.227 734.338 416.423C734.046 416.619 733.827 416.91 733.682 417.298C733.54 417.685 733.47 418.166 733.47 418.74C733.47 419.296 733.543 419.766 733.688 420.148C733.834 420.527 734.051 420.814 734.338 421.01C734.625 421.201 734.978 421.297 735.397 421.297C735.812 421.297 736.184 421.247 736.512 421.146C736.84 421.046 737.15 420.916 737.441 420.757V422.151C737.154 422.315 736.847 422.436 736.519 422.514C736.19 422.596 735.787 422.637 735.309 422.637ZM742.233 414.789C742.908 414.789 743.487 414.928 743.97 415.206C744.453 415.484 744.824 415.878 745.084 416.389C745.344 416.899 745.474 417.51 745.474 418.221V419.082H740.422C740.44 419.816 740.636 420.381 741.01 420.777C741.388 421.174 741.917 421.372 742.596 421.372C743.079 421.372 743.512 421.326 743.895 421.235C744.282 421.14 744.681 421.001 745.091 420.818V422.124C744.713 422.302 744.327 422.432 743.936 422.514C743.544 422.596 743.074 422.637 742.527 422.637C741.785 422.637 741.131 422.493 740.565 422.206C740.005 421.914 739.565 421.481 739.246 420.907C738.932 420.333 738.774 419.62 738.774 418.768C738.774 417.92 738.918 417.2 739.205 416.607C739.492 416.015 739.896 415.564 740.415 415.254C740.935 414.944 741.541 414.789 742.233 414.789ZM742.233 415.999C741.728 415.999 741.317 416.163 741.003 416.491C740.693 416.819 740.511 417.3 740.456 417.934H743.901C743.897 417.555 743.833 417.22 743.71 416.929C743.591 416.637 743.409 416.409 743.163 416.245C742.922 416.081 742.612 415.999 742.233 415.999ZM752.371 420.34C752.371 420.837 752.25 421.256 752.009 421.598C751.767 421.939 751.414 422.199 750.949 422.377C750.489 422.55 749.924 422.637 749.254 422.637C748.725 422.637 748.27 422.598 747.887 422.521C747.508 422.448 747.151 422.334 746.813 422.179V420.791C747.174 420.96 747.577 421.105 748.023 421.229C748.475 421.352 748.901 421.413 749.302 421.413C749.83 421.413 750.211 421.331 750.443 421.167C750.676 420.998 750.792 420.775 750.792 420.497C750.792 420.333 750.744 420.187 750.648 420.06C750.557 419.927 750.384 419.793 750.129 419.656C749.878 419.515 749.509 419.346 749.021 419.15C748.543 418.959 748.14 418.768 747.812 418.576C747.483 418.385 747.235 418.155 747.066 417.886C746.898 417.612 746.813 417.264 746.813 416.84C746.813 416.17 747.078 415.662 747.606 415.315C748.14 414.965 748.844 414.789 749.719 414.789C750.184 414.789 750.621 414.837 751.031 414.933C751.446 415.024 751.852 415.158 752.248 415.336L751.742 416.546C751.4 416.396 751.056 416.272 750.71 416.177C750.368 416.076 750.02 416.026 749.664 416.026C749.249 416.026 748.933 416.09 748.714 416.218C748.5 416.345 748.393 416.528 748.393 416.765C748.393 416.942 748.445 417.093 748.55 417.216C748.655 417.339 748.835 417.462 749.09 417.585C749.35 417.708 749.71 417.861 750.17 418.043C750.621 418.216 751.011 418.398 751.339 418.59C751.672 418.777 751.927 419.007 752.104 419.28C752.282 419.554 752.371 419.907 752.371 420.34ZM759.193 420.34C759.193 420.837 759.073 421.256 758.831 421.598C758.59 421.939 758.236 422.199 757.771 422.377C757.311 422.55 756.746 422.637 756.076 422.637C755.548 422.637 755.092 422.598 754.709 422.521C754.331 422.448 753.973 422.334 753.636 422.179V420.791C753.996 420.96 754.399 421.105 754.846 421.229C755.297 421.352 755.723 421.413 756.124 421.413C756.653 421.413 757.033 421.331 757.266 421.167C757.498 420.998 757.614 420.775 757.614 420.497C757.614 420.333 757.566 420.187 757.471 420.06C757.38 419.927 757.206 419.793 756.951 419.656C756.701 419.515 756.331 419.346 755.844 419.15C755.365 418.959 754.962 418.768 754.634 418.576C754.306 418.385 754.057 418.155 753.889 417.886C753.72 417.612 753.636 417.264 753.636 416.84C753.636 416.17 753.9 415.662 754.429 415.315C754.962 414.965 755.666 414.789 756.541 414.789C757.006 414.789 757.443 414.837 757.854 414.933C758.268 415.024 758.674 415.158 759.07 415.336L758.564 416.546C758.223 416.396 757.879 416.272 757.532 416.177C757.19 416.076 756.842 416.026 756.486 416.026C756.072 416.026 755.755 416.09 755.536 416.218C755.322 416.345 755.215 416.528 755.215 416.765C755.215 416.942 755.267 417.093 755.372 417.216C755.477 417.339 755.657 417.462 755.912 417.585C756.172 417.708 756.532 417.861 756.992 418.043C757.443 418.216 757.833 418.398 758.161 418.59C758.494 418.777 758.749 419.007 758.927 419.28C759.104 419.554 759.193 419.907 759.193 420.34ZM763.944 414.789C764.619 414.789 765.198 414.928 765.681 415.206C766.164 415.484 766.535 415.878 766.795 416.389C767.055 416.899 767.185 417.51 767.185 418.221V419.082H762.133C762.151 419.816 762.347 420.381 762.721 420.777C763.099 421.174 763.628 421.372 764.307 421.372C764.79 421.372 765.223 421.326 765.605 421.235C765.993 421.14 766.392 421.001 766.802 420.818V422.124C766.424 422.302 766.038 422.432 765.646 422.514C765.255 422.596 764.785 422.637 764.238 422.637C763.495 422.637 762.841 422.493 762.276 422.206C761.716 421.914 761.276 421.481 760.957 420.907C760.643 420.333 760.485 419.62 760.485 418.768C760.485 417.92 760.629 417.2 760.916 416.607C761.203 416.015 761.606 415.564 762.126 415.254C762.646 414.944 763.252 414.789 763.944 414.789ZM763.944 415.999C763.438 415.999 763.028 416.163 762.714 416.491C762.404 416.819 762.222 417.3 762.167 417.934H765.612C765.608 417.555 765.544 417.22 765.421 416.929C765.302 416.637 765.12 416.409 764.874 416.245C764.632 416.081 764.323 415.999 763.944 415.999ZM775.6 414.789C776.557 414.789 777.279 415.001 777.767 415.425C778.259 415.849 778.505 416.509 778.505 417.407V422.5H777.363L777.056 421.427H777.001C776.787 421.7 776.566 421.926 776.338 422.104C776.11 422.281 775.846 422.413 775.545 422.5C775.249 422.591 774.886 422.637 774.458 422.637C774.007 422.637 773.604 422.555 773.248 422.391C772.893 422.222 772.612 421.967 772.407 421.625C772.202 421.283 772.1 420.85 772.1 420.326C772.1 419.547 772.389 418.961 772.968 418.569C773.551 418.177 774.431 417.961 775.606 417.92L776.919 417.872V417.476C776.919 416.951 776.796 416.578 776.55 416.354C776.308 416.131 775.966 416.02 775.524 416.02C775.146 416.02 774.779 416.074 774.424 416.184C774.068 416.293 773.722 416.427 773.385 416.587L772.865 415.452C773.234 415.256 773.654 415.097 774.123 414.974C774.597 414.851 775.089 414.789 775.6 414.789ZM776.912 418.884L775.935 418.918C775.132 418.945 774.57 419.082 774.246 419.328C773.923 419.574 773.761 419.911 773.761 420.34C773.761 420.714 773.872 420.987 774.096 421.16C774.319 421.329 774.613 421.413 774.978 421.413C775.534 421.413 775.994 421.256 776.358 420.941C776.728 420.622 776.912 420.155 776.912 419.54V418.884ZM785.56 425.856V422.644C785.56 422.461 785.564 422.263 785.573 422.049C785.587 421.835 785.607 421.639 785.635 421.461H785.553C785.348 421.794 785.063 422.074 784.698 422.302C784.334 422.525 783.857 422.637 783.27 422.637C782.381 422.637 781.665 422.309 781.123 421.652C780.581 420.992 780.31 420.016 780.31 418.727C780.31 417.87 780.435 417.15 780.686 416.566C780.936 415.983 781.287 415.541 781.738 415.24C782.194 414.939 782.723 414.789 783.324 414.789C783.903 414.789 784.372 414.903 784.732 415.131C785.097 415.354 785.389 415.63 785.607 415.958H785.662L785.84 414.933H787.173V425.856H785.56ZM783.748 421.345C784.204 421.345 784.568 421.258 784.842 421.085C785.115 420.912 785.313 420.65 785.437 420.299C785.56 419.943 785.626 419.504 785.635 418.979V418.733C785.635 417.877 785.496 417.225 785.218 416.778C784.94 416.332 784.445 416.108 783.734 416.108C783.133 416.108 782.686 416.343 782.395 416.812C782.103 417.277 781.957 417.924 781.957 418.754C781.957 419.592 782.103 420.235 782.395 420.682C782.691 421.124 783.142 421.345 783.748 421.345ZM796.073 414.933V422.5H794.809L794.59 421.481H794.501C794.341 421.741 794.139 421.958 793.893 422.131C793.646 422.299 793.373 422.425 793.072 422.507C792.771 422.593 792.455 422.637 792.122 422.637C791.552 422.637 791.065 422.541 790.659 422.35C790.258 422.154 789.951 421.853 789.736 421.447C789.522 421.042 789.415 420.518 789.415 419.875V414.933H791.028V419.574C791.028 420.162 791.147 420.602 791.384 420.894C791.625 421.185 791.999 421.331 792.505 421.331C792.993 421.331 793.38 421.231 793.667 421.03C793.954 420.83 794.157 420.534 794.275 420.142C794.398 419.75 794.46 419.269 794.46 418.699V414.933H796.073ZM799.983 414.933V422.5H798.377V414.933H799.983ZM799.19 412.034C799.437 412.034 799.648 412.1 799.826 412.232C800.008 412.365 800.1 412.592 800.1 412.916C800.1 413.235 800.008 413.463 799.826 413.6C799.648 413.732 799.437 413.798 799.19 413.798C798.935 413.798 798.719 413.732 798.541 413.6C798.368 413.463 798.281 413.235 798.281 412.916C798.281 412.592 798.368 412.365 798.541 412.232C798.719 412.1 798.935 412.034 799.19 412.034Z" fill="#2C46B1"/>
<path d="M721.855 423.354H801.132V423.696H721.855V423.354Z" fill="#2C46B1"/>
</svg>
